<svg width="438" height="532" viewBox="0 0 438 532" fill="none" xmlns="http://www.w3.org/2000/svg">
<g clip-path="url(#clip0_70_1490)">
<path d="M182.275 484.528C189.29 486.241 202.903 492.283 201.352 495.085C202.995 492.098 203.018 492.306 213.274 493.927C212.233 495.941 220.96 498.742 226.563 500.27C224.526 498.766 222.002 497.423 218.506 495.779C215.011 494.112 210.519 492.144 204.708 489.227C203.111 489.135 201.398 488.857 199.615 488.278C197.856 487.676 196.027 486.866 194.152 485.917C190.447 483.972 186.373 481.842 182.715 479.064C179.011 476.379 175.214 473.948 171.765 471.748C168.361 469.48 165.074 467.79 161.972 467.234C164.981 470.058 167.621 473.392 170.7 476.587C173.918 479.55 177.575 482.398 182.252 484.528H182.275Z" fill="white"/>
<path d="M228.531 520.111L230.73 519.347C223.345 517.981 215.983 516.291 208.69 514.254C211.028 514.555 215.89 515.758 220.243 516.893C224.572 518.097 228.415 519.208 228.531 520.111Z" fill="white"/>
<path d="M300.345 525.991C298.354 528.561 309.837 529.464 309.837 531.64C309.466 529.186 313.935 528.677 319.699 528.191C325.487 527.751 332.687 527.218 337.456 525.598C338.452 524.07 339.378 522.449 340.257 520.898C335.372 520.944 327.316 522.495 317.801 523.56C308.309 524.672 297.335 525.25 287.265 524.672C291.594 525.227 295.946 525.644 300.322 525.968L300.345 525.991Z" fill="#AA1F33"/>
<path d="M318.796 527.427C320.834 526.362 322.848 525.273 324.816 524.093C319.722 525.713 307.29 527.241 318.796 527.427Z" fill="white"/>
<path d="M304.373 515.342C289.395 515.504 313.518 516.707 298.377 517.958C303.517 517.263 309.304 516.684 304.373 515.342Z" fill="white"/>
<path d="M365.654 505.502C357.088 511.915 347.11 516.661 336.6 520.088C341.137 519.393 345.698 518.606 350.189 517.356C355.838 513.883 361.07 509.901 365.654 505.502Z" fill="#AA1F33"/>
<path d="M371.674 511.151C370.724 511.776 369.567 512.448 368.479 512.98C367.368 513.49 366.279 513.86 365.492 514.022C363.895 514.369 363.455 513.837 365.863 511.661C371.836 509.693 375.818 506.405 379.151 502.863C380.911 501.173 382.393 499.252 384.221 497.539C385.911 495.687 387.879 493.973 390.171 492.144C388.157 495.223 386.004 498.256 383.62 501.127C385.286 501.752 388.944 497.029 391.977 492.376C395.126 487.792 397.788 483.301 399.964 485.083C402.441 477.629 399.802 479.504 397.718 480.8C396.677 481.472 395.728 482.004 395.542 481.31C395.311 480.592 396.052 478.74 397.742 474.318C393.783 482.166 389.106 488.371 383.99 493.51C378.85 498.65 373.317 502.817 367.067 506.429C369.15 505.78 370.47 505.063 371.928 504.183C373.433 503.349 375.031 502.261 377.6 500.618C373.803 504.252 369.081 508.258 363.756 511.939C358.431 515.62 352.435 518.838 346.578 521.083C350.398 521.708 354.264 520.203 358.362 518.189C362.413 516.036 366.673 513.466 371.674 511.198V511.151Z" fill="#AA1F33"/>
<path d="M407.488 469.063C410.266 463.831 413.206 456.885 414.827 450.681C416.494 444.477 416.864 439.082 415.22 437.045C412.211 442.509 411.238 445.866 411.053 448.69C410.891 451.514 411.447 453.76 411.285 456.677C410.359 458.228 408.622 461.631 407.118 463.97C405.543 466.285 404.247 467.535 404.247 464.965C405.011 464.386 404.918 466.401 405.08 468.067C405.219 469.734 405.59 471.077 407.488 469.04V469.063Z" fill="#AA1F33"/>
<path d="M422.652 425.446C422.004 422.414 421.263 419.427 420.568 416.441L420.175 421.881L417.42 421.974C417.674 422.506 418.786 423.988 419.48 426.789C420.175 429.59 420.476 433.734 418.762 439.36C420.568 436.675 420.985 434.637 421.216 432.577C421.494 430.516 421.541 428.41 422.652 425.446Z" fill="#AA1F33"/>
<path d="M404.988 419.103C408.182 411.903 408.113 407.25 408.507 398.36C407.719 404.425 406.284 411.764 405.335 418.061C404.849 421.279 404.386 423.872 404.131 426.164C403.807 428.386 403.691 430.1 403.853 431.049L403.413 429.984C403.413 429.984 403.251 432.785 403.02 436.582C402.904 438.48 402.719 440.633 402.649 442.856C402.487 445.032 402.395 447.301 402.325 449.384C403.182 443.296 405.89 435.355 407.187 428.988C407.881 425.817 408.159 423.062 407.928 421.279C407.65 419.404 406.793 418.524 404.964 419.103H404.988Z" fill="#AA1F33"/>
<path d="M428.162 390.048L423.971 407.273L425.847 403.221L428.162 390.048Z" fill="#AA1F33"/>
<path d="M413.415 408.824C416.517 395.142 409.132 415.792 411.586 402.851C411.887 399.239 408.113 421.927 409.618 423.201C410.984 420.052 410.035 409.634 413.391 408.801L413.415 408.824Z" fill="#AA1F33"/>
<path d="M430.153 378.635L429.782 371.227L429.204 363.818L429.782 371.227L430.153 378.635Z" fill="#AA1F33"/>
<path d="M435.871 342.427L434.112 339.417C434.852 335.921 435.015 332.055 435.246 328.119C435.408 324.161 435.64 320.132 435.57 316.197C435.57 308.325 435.987 300.963 437.723 295.639C435.385 298.162 432.283 290.036 432.236 302.468C433.579 304.343 433.579 308.812 435.13 308.071C434.667 313.419 432.885 312.33 432.213 315.849C434.366 324.994 432.051 339.093 433.301 346.524C433.162 342.913 433.672 342.08 434.135 339.463C435.246 347.358 433.649 351.849 432.375 355.206C431.009 358.563 430.06 360.832 432.537 364.559C431.982 361.712 432.954 358.054 433.996 354.164C434.945 350.275 436.033 346.131 435.894 342.473L435.871 342.427Z" fill="#AA1F33"/>
<path d="M422.142 342.705C421.541 346.733 421.054 350.761 420.383 354.789C418.137 350.784 421.448 339.973 419.202 337.843C417.582 338.491 415.869 350.367 415.128 345.899C418.16 346.872 417.975 351.016 417.836 354.187C417.651 357.359 417.651 359.582 421.494 356.803C420.985 364.721 419.897 365.832 418.739 367.013C417.582 368.194 416.401 369.49 415.359 377.732L417.975 382.872C418.23 378.195 418.623 374.537 419.11 371.365C419.55 368.194 419.966 365.508 420.452 362.823C420.915 360.137 421.378 357.452 421.772 354.257C422.096 351.062 422.212 347.381 422.189 342.728L422.142 342.705Z" fill="#AA1F33"/>
<path d="M423.809 295.824L425.523 289.805L422.768 293.185C422.42 286.448 422.281 280.428 422.698 274.78C423.231 269.131 423.624 263.968 424.18 259.037C424.434 256.56 424.689 254.175 424.944 251.837C425.106 249.522 425.083 247.276 425.013 245.077C424.851 240.701 424.388 236.488 422.86 232.529C420.337 227.783 418.461 223.014 416.933 218.152C415.243 213.36 413.623 208.568 412.234 203.636L411.169 199.932C410.798 198.705 410.312 197.525 409.896 196.298C409.016 193.89 408.113 191.459 407.21 189.028C406.284 186.597 405.312 184.166 404.27 181.736C403.066 179.397 401.77 177.059 400.404 174.744C396.723 170.808 397.649 173.193 399.362 176.735C400.218 178.518 401.283 180.578 402.071 182.314C402.811 184.074 403.182 185.532 402.973 185.949C401.538 185.833 400.705 185.139 400.172 184.12C399.57 183.125 399.246 181.828 398.899 180.439C398.227 177.684 397.51 174.628 394.57 173.54C392.694 173.864 394.477 179.027 397.047 185.162C399.2 191.505 402.047 198.89 402.904 203.359C406.168 210.373 407.164 209.841 409.919 211.346C409.34 212.619 409.641 215.166 409.919 217.689C410.22 220.189 410.197 222.805 409.571 224.032C411.424 227.644 412.674 230.978 413.6 234.149C414.572 237.298 414.804 240.423 415.267 243.433C415.683 246.466 416.1 249.475 416.841 252.647C417.373 255.865 418.184 259.245 419.619 263.019C417.767 268.32 417.096 251.466 417.582 256.675L419.11 265.149L419.387 264.176C419.989 265.565 420.522 267.14 421.008 268.807C421.425 270.497 421.726 272.325 422.004 274.224C422.536 278.021 422.883 282.072 423.045 286.008C422.906 293.949 422.397 301.311 421.448 305.107C422.281 299.181 424.133 294.898 425.453 301.936C424.481 303.903 423.369 305.871 422.351 307.793L424.689 315.386C425.499 317.933 426.24 320.503 426.865 323.096C426.263 320.155 426.055 317.123 426.078 314.183C426.124 311.242 426.402 308.395 426.587 305.825C426.819 303.255 426.842 300.986 426.425 299.25C426.032 297.491 425.268 296.264 423.786 295.777L423.809 295.824Z" fill="#AA1F33"/>
<path d="M418.554 312.678C417.813 321.591 418.832 321.081 420.082 320.804C421.309 320.503 422.536 320.433 421.402 330.319L421.656 319.878L421.448 309.483L418.531 312.678H418.554Z" fill="#AA1F33"/>
<path d="M414.017 226.811C413.808 223.732 413.646 220.629 413.368 217.527C410.683 223.616 420.499 235.33 414.017 226.811Z" fill="white"/>
<path d="M402.071 195.927L407.835 198.589L402.071 191.806V195.927Z" fill="white"/>
<path d="M392.139 166.618C389.384 164.28 388.759 165.09 389.43 167.22C390.055 169.373 391.676 173.054 393.852 176.341C390.541 170.09 390.194 165.946 392.139 166.618Z" fill="#AA1F33"/>
<path d="M368.154 120.779C377.993 132.794 360.213 109.481 370.122 115.801C367.506 115.338 360.746 110.731 368.154 120.779Z" fill="white"/>
<path d="M340.165 74.3379C342.966 76.1899 344.795 77.6484 345.86 78.9218C346.902 80.2414 347.249 81.1906 347.226 81.8619C346.393 80.9822 345.582 80.1488 344.842 79.3616C344.078 78.6208 343.36 77.9494 342.735 77.3475C341.485 76.0973 340.582 75.0787 340.165 74.3147V74.3379Z" fill="#AA1F33"/>
<path d="M430.477 251.559C430.801 253.342 431.148 255.263 431.31 257.046C431.033 255.171 430.755 253.411 430.477 251.559Z" fill="#AA1F33"/>
<path d="M429.806 247.994C430.06 249.151 430.338 250.355 430.477 251.559C430.269 250.216 429.991 249.036 429.806 247.994Z" fill="#AA1F33"/>
<path d="M388.365 136.661C388.365 136.661 388.388 136.684 388.411 136.707C388.573 137.147 388.735 137.517 388.874 137.957L388.365 136.661Z" fill="#AA1F33"/>
<path d="M272.911 530.413C269.855 530.344 267.494 530.158 265.619 529.857C268.026 530.089 270.457 530.251 272.842 530.367C272.888 530.367 272.888 530.367 272.911 530.413Z" fill="#AA1F33"/>
<path d="M265.225 523.861C268.42 523.63 270.804 523.931 272.934 524.556C275.064 525.204 276.916 526.13 279.046 527.079C283.283 529.001 288.7 531.061 299.141 530.019C290.76 530.714 281.894 530.83 272.842 530.344C267.1 527.727 269.485 527.426 271.105 527.126C272.749 526.778 273.606 526.616 265.225 523.838V523.861Z" fill="#AA1F33"/>
<path d="M401.214 456.168C401.26 455.936 401.33 455.728 401.376 455.496C401.7 454.339 401.584 454.964 401.214 456.168Z" fill="#AA1F33"/>
<path d="M32.6732 89.8028L31.7703 89.1314C34.0391 85.9829 36.7014 83.1122 39.1786 80.172C36.9792 83.3668 34.6178 86.4459 32.6732 89.8028Z" fill="white"/>
<path d="M30.1261 90.1732L27.1628 94.2015L24.4541 98.3918L21.7454 102.605C20.8425 104.018 20.0786 105.499 19.2451 106.958C21.0509 102.351 23.4818 98.0214 25.6116 93.5533C28.1351 89.2935 30.3808 84.8716 33.2283 80.797C38.5068 72.3932 44.8038 64.6608 51.5639 57.3682L56.7961 52.0435C58.5787 50.3072 60.5002 48.7097 62.3523 47.0197L65.1536 44.5426L68.1169 42.2506C70.1079 40.7458 72.0757 39.1715 74.113 37.713C82.3779 32.0179 91.2216 27.133 100.575 23.2899L97.5882 26.2764C97.8891 26.4153 96.6853 27.1561 94.3702 28.2905C93.7914 28.5683 93.1432 28.8925 92.4486 29.2397C91.7773 29.6333 91.0364 30.05 90.2261 30.513C88.6287 31.3928 86.8229 32.4114 84.8319 33.5227C77.0301 38.1529 66.9825 45.1445 58.1388 53.4788C49.2257 61.7206 41.7479 71.2357 36.7473 78.4588C31.7698 85.7282 29.3621 90.7288 30.1492 90.1964L30.1261 90.1732Z" fill="white"/>
<path d="M28.8762 95.8915C28.39 102.003 25.8897 105.823 23.482 110.222C22.2319 112.398 20.8428 114.598 19.8936 117.26C18.9444 119.899 17.9489 122.793 17.7869 126.335C18.0647 121.635 18.4814 117.584 19.0833 113.602C20.0094 109.736 21.1206 105.916 23.6441 102.142L28.8531 95.8915H28.8762Z" fill="white"/>
<path d="M23.1812 134.137C20.7272 139.624 21.1208 146.963 19.9401 150.111C16.699 147.426 21.3292 138.814 23.1812 134.137Z" stroke="#AA1F33" stroke-width="2.3151" stroke-linecap="round" stroke-linejoin="round"/>
<path d="M32.9967 152.079C32.9041 152.936 32.7652 153.769 32.58 154.602C32.5337 153.584 32.4874 152.635 32.3948 151.894L33.0199 152.079H32.9967Z" fill="#AA1F33"/>
<path d="M32.3951 151.894L30.844 151.454C31.77 149.764 32.1868 150.366 32.3951 151.894Z" fill="#AA1F33"/>
<path d="M32.58 154.603C32.6263 156.918 32.8346 159.673 33.3208 161.154L33.8533 158.839C33.8533 162.127 34.3857 167.845 33.4597 169.28C34.2931 162.983 33.3671 162.798 31.1215 162.312C30.4964 165.738 30.1723 169.211 29.7787 172.684C27.2089 171.503 27.4636 169.188 28.5054 166.062C29.1305 164.534 29.8481 162.775 30.6353 160.853C31.3761 158.932 32.0475 156.825 32.58 154.579V154.603Z" fill="#AA1F33"/>
<path d="M31.1448 187.5C30.0336 183.889 29.3159 180.277 28.3667 176.573C29.8947 175.161 30.5892 176.897 30.8902 179.49C31.1911 182.06 31.0754 185.486 31.1217 187.523L31.1448 187.5Z" stroke="#AA1F33" stroke-width="2.3151" stroke-linecap="round" stroke-linejoin="round"/>
<path d="M28.1353 203.706C27.1398 201.205 26.9546 190.417 25.8665 196.992C25.172 195.232 25.2183 193.126 25.2646 190.926C26.0517 198.219 29.5244 191.251 28.1353 203.729V203.706Z" fill="#AA1F33"/>
<path d="M25.2646 190.903C25.172 190.024 25.1025 189.074 25.1025 187.778C25.2414 188.82 25.2646 189.885 25.2646 190.903Z" fill="#AA1F33"/>
<path d="M46.9571 76.4446C45.7764 77.3243 45.4986 77.0465 45.568 76.3289L46.9571 76.4446Z" stroke="#AA1F33" stroke-width="2.3151" stroke-linecap="round" stroke-linejoin="round"/>
<path d="M27.2321 226.255L27.834 230.445C27.6488 229.241 27.4173 228.153 27.1858 227.088L27.2321 226.255Z" fill="#AA1F33"/>
<path d="M236.31 17.7336C220.96 13.659 206.098 10.0012 183.016 9.63076C183.178 13.4507 173.732 9.83912 172.089 13.7516C177.969 14.1221 175.399 13.9369 168.431 13.659C161.486 13.4044 150.026 13.196 138.334 14.4925C132.5 15.1407 126.643 16.113 121.342 17.4558C116.11 19.0301 111.317 20.2339 107.775 21.8776C100.529 24.7021 97.6118 26.9014 102.126 25.304L107.011 21.785C105.529 23.7066 104.094 25.5587 102.751 27.4802C100.066 28.3831 97.1025 29.2628 94.0003 30.1657C90.9675 31.1844 87.9347 32.4577 84.9714 33.6615C79.2299 36.3702 74.0904 39.403 71.7522 42.783C71.4512 42.8293 72.4235 41.9264 74.3682 40.329C76.3592 38.801 79.4846 36.7869 83.2582 34.2866C91.0138 29.6795 102.103 24.3085 113.887 21.1137C125.671 17.6873 137.825 16.7844 146.53 16.4835C155.281 16.2288 160.722 16.4372 159.795 16.0899C161.925 17.4095 154.749 17.641 142.803 18.7754C136.853 19.4005 129.676 20.3034 122.036 22.1323C114.443 24.1233 106.293 26.5542 98.6073 30.3509C90.7823 33.8004 83.5129 38.5464 76.8685 43.1766C75.2711 44.4499 73.6968 45.6769 72.1689 46.9039C70.6409 48.1309 69.0898 49.2885 67.7239 50.6081C66.3348 51.8814 64.9921 53.1315 63.6724 54.3354C63.0242 54.9373 62.376 55.5392 61.7509 56.118C61.149 56.7431 60.5702 57.3682 60.0146 57.9701C50.6847 67.4852 45.6841 75.3797 45.5452 76.352L42.6745 76.1205C42.1652 77.0697 41.6327 77.9957 41.1697 78.9449C40.7529 79.8941 40.3131 80.8433 39.9195 81.7462C39.1324 83.5751 38.3915 85.3578 37.6507 87.0709C36.2848 90.5204 35.3125 93.9005 34.2475 97.049C33.2752 100.267 32.5343 103.462 31.6083 106.587C30.7286 109.736 30.0572 113.023 29.0385 116.334C27.6958 116.913 26.4456 117.561 25.1723 118.209C27.4411 113.556 28.645 110.523 29.4321 107.212C30.4739 104.041 31.1221 100.591 33.1594 95.6137C31.0064 99.7114 29.4784 103.068 27.9504 105.823C26.5845 108.648 25.4501 111.009 24.3157 113.208C23.135 115.385 22.2784 117.561 21.3061 119.992C20.3569 122.423 19.3151 125.108 18.528 128.581C22.3247 129.159 23.6675 117.677 20.7968 135.063C18.0186 139.624 16.7222 127.006 13.8515 142.842C12.6013 147.541 12.254 150.968 12.1614 153.607C12.1614 156.269 12.5782 158.214 12.9717 160.043C13.782 163.724 14.9627 167.058 14.546 175.323C15.2637 171.642 16.0508 167.961 16.8611 164.349C16.699 167.382 16.4907 171.711 16.2592 176.04C16.0971 180.37 15.5415 184.629 14.5923 187.57C14.6154 185.833 14.5691 183.425 14.4765 180.809C14.3839 178.193 14.0135 175.323 13.782 172.683C13.2264 167.405 12.1151 162.914 10.2631 162.96C10.2167 164.766 10.1704 167.104 9.91579 169.697C9.66112 172.29 9.36016 175.114 9.17495 177.939C8.64248 183.588 8.41097 189.121 8.50357 192.269L5.81806 188.426C4.59105 191.899 4.86886 194.677 5.37819 197.617C5.88751 200.58 6.25792 203.729 5.54024 208.197C7.71644 216.3 8.96659 202.942 10.4251 207.433C9.56852 209.146 9.61482 225.213 12.4161 230.376C14.8933 228.037 13.782 223.523 12.7865 218.129C12.2077 215.443 11.7447 212.549 11.6984 209.679C11.629 206.808 11.9531 203.96 13.2495 201.391C13.1569 203.868 13.2032 206.345 13.2495 208.822C13.319 211.299 13.2495 213.8 13.4116 216.277C16.7222 220.606 15.8887 214.726 15.31 208.313C14.9164 205.095 14.6617 201.738 14.7775 199.492C14.8701 197.223 15.2868 196.066 16.4675 197.223C18.0418 199.909 18.4585 202.664 18.5511 205.465C18.6437 208.267 18.227 211.137 17.8797 214.008C17.3241 219.703 17 225.445 21.4218 229.936C21.5376 228.2 21.3755 225.583 21.2366 222.666C21.1209 219.749 20.982 216.508 20.8662 213.568C20.8662 207.688 21.0051 203.034 22.1164 204.331C20.6347 211.994 24.9639 217.041 27.1633 227.088C26.8623 231.325 26.7466 235.608 26.654 239.914C29.3163 244.822 28.5755 240.585 28.9691 236.302C28.9228 245.655 31.6777 257.856 35.3125 270.821C37.1877 277.303 39.1092 284.017 41.0308 290.707C42.0263 294.041 42.9754 297.375 43.8089 300.732C44.6192 304.089 45.3831 307.399 46.124 310.663C52.4442 325.017 49.1105 311.636 53.4629 317.562C53.3008 326.545 61.45 338.398 65.1541 346.085C66.0339 348.515 70.965 351.201 71.1502 348.4C67.5618 342.218 63.6493 336.13 60.3387 329.74C62.376 329.995 63.8577 325.943 60.5008 319.067C58.4403 322.771 56.5882 315.34 54.4815 307.145C53.3239 303.093 52.4211 298.718 51.1246 295.5C49.8744 292.258 48.3696 290.105 46.4712 290.314L49.7587 289.573C46.1934 281.123 42.8134 272.557 39.8269 263.945L39.5954 264.848C40.1279 264.755 38.0906 259.315 35.8449 251.953C33.6687 244.59 31.2842 235.284 30.9601 227.783C31.7472 229.82 32.9742 237.066 34.1781 241.882C35.4745 246.72 36.5858 249.082 36.8636 241.511C38.924 246.72 40.2205 254.314 42.1883 263.019C44.0635 271.723 46.5639 281.609 50.4995 291.101L51.3793 286.61C53.8796 291.425 56.0326 296.796 58.0699 302.445C60.3156 308.024 62.2139 313.997 64.4133 319.947C66.6821 325.851 68.6499 331.986 71.2197 337.727C72.4467 340.621 73.6968 343.492 74.947 346.27C76.2203 349.071 77.702 351.687 79.1142 354.257L73.1181 349.418C74.5071 353.377 75.8962 358.03 77.6788 362.452C79.4614 366.851 81.9386 370.833 84.9945 373.588C79.8087 364.86 83.9527 368.541 85.99 369.444C88.0968 372.153 89.9952 375.44 92.2871 378.774C94.5328 382.154 96.8016 385.812 99.1398 389.632C101.594 393.359 104.233 397.133 106.895 400.929C108.192 402.851 109.65 404.68 111.132 406.439C112.614 408.222 114.119 409.981 115.623 411.695C115.623 411.695 114.558 411.394 114.674 412.296L117.985 415.792C119.119 416.927 120.3 418.015 121.457 419.103L128.403 425.678C134.098 432.6 135.047 435.957 137.455 441.49C140.233 443.435 146.252 449.06 145.164 445.611C143.983 444.291 142.803 442.972 141.83 442.323C146.53 444.337 147.549 445.611 148.729 447.278C149.331 448.088 149.933 449.014 151.044 450.102C152.202 451.121 153.892 452.348 156.531 453.806C147.525 450.172 156.184 458.737 153.545 460.335C165.375 468.368 157.712 457.094 159.958 457.209C162.921 460.312 165.421 462.442 167.458 464.525C169.496 466.562 171.186 468.368 172.899 470.128C174.589 471.91 176.511 473.415 178.756 475.244C181.048 477.004 183.734 479.11 187.392 481.333C189.012 480.453 177.599 473.948 177.46 471.54C181.326 474.457 186.257 477.305 187.322 477.166L179.242 470.521C192.832 481.75 208.112 489.991 227.096 494.76L225.938 493.418C229.735 494.737 233.555 495.941 237.421 497.029C235.731 497.747 234.041 498.372 232.304 499.02C238.81 500.108 245.014 504.646 249.066 502.771L246.751 502.03C249.506 502.238 252.238 502.539 255.016 502.655C252.052 503.257 249.066 503.674 246.033 504.16C251.034 505.989 257.516 505.942 264.693 505.479C271.893 505.016 279.741 504.206 288.098 504.762C289.858 507.054 282.519 507.308 274.416 507.077C266.313 506.868 257.446 506.128 255.849 508.744C261.313 510.735 271.059 512.98 274.717 511.684C274.162 510.04 270.087 509.647 265.989 509.045C273.675 508.582 282.959 509.785 291.664 510.11C300.345 510.503 308.263 509.924 312.523 506.915C308.888 506.683 305.23 506.29 301.595 505.78C307.893 505.248 313.078 506.174 317.269 506.614C321.459 507.1 324.608 507.216 326.298 505.155C324.932 506.428 323.496 507.679 322.015 508.883C320.533 510.11 319.028 511.313 317.431 512.471C323.797 510.225 330.881 508.257 337.456 505.711C344.031 503.211 350.027 500.062 354.195 496.427C353.477 494.922 350.213 496.844 346.786 498.742C343.429 500.687 339.91 502.609 340.165 502.169C341.624 500.849 342.897 499.391 344.217 498.048C352.25 495.548 353.338 495.108 355.051 494.784C355.908 494.621 356.834 494.367 358.616 493.487C359.542 493.07 360.677 492.538 362.066 491.658C363.501 490.871 365.191 489.69 367.298 488.162L365.932 486.38C369.59 485.361 373.479 480.129 375.91 476.124C378.318 472.072 379.846 469.479 380.263 474.156C378.712 475.452 377.276 476.842 375.679 477.999L378.11 479.272C382.856 472.35 386.583 464.548 389.662 456.445C390.519 459.687 394.964 447.671 396.098 451.792L396.746 446.722L397.209 441.629C399.733 440.055 399.455 444.8 398.506 450.172C397.626 455.566 395.843 461.446 396.885 462.557C398.645 462.997 400.52 458.46 401.168 456.144C400.103 462.511 397.024 466.331 393.69 469.711C390.241 473.045 386.537 475.962 382.994 480.615C382.462 482.652 381.837 484.643 381.212 486.727L378.85 484.319C377.508 486.287 376.582 488.463 375.818 490.315C375.054 492.167 374.614 493.858 374.429 494.969C368.502 497.261 364.15 500.872 358.57 504.854C353.06 508.79 346.3 512.934 337.341 514.925C340.86 513.443 341.878 512.564 341.624 512.239C341.346 511.892 339.771 512.077 337.781 512.286C333.868 512.795 328.428 513.397 329.562 512.702C325.626 513.559 318.889 516.221 311.828 517.796C304.813 519.416 297.66 519.949 294.071 517.888C289.187 516.268 304.35 515.527 292.705 514.717C285.135 514.994 279.764 516.383 284.626 518.236C276.037 518.328 266.614 517.448 257.146 515.782C247.677 514.115 238.162 511.684 229.156 509.021C230.8 508.744 232.42 508.489 234.064 508.142C223.391 503.28 211.955 502.122 205.195 501.891C204.037 500.409 202.949 500.664 205.148 500.178C202.046 497.909 199.384 496.404 196.652 495.432C193.99 494.321 191.304 493.649 188.294 492.931C186.79 492.561 185.192 492.191 183.479 491.704C182.622 491.45 181.743 491.195 180.817 490.94C179.914 490.616 178.988 490.223 178.038 489.829C174.219 488.139 169.704 485.963 164.588 482.328C164.24 484.111 166.509 486.495 169.797 488.834C171.44 490.014 173.339 491.172 175.307 492.214C177.251 493.256 179.265 494.205 181.256 494.76L177.645 496.913C182.553 499.506 187.623 502.146 192.763 504.692C197.995 507.03 203.319 509.253 208.644 511.036C219.247 514.74 229.735 517.124 238.602 518.212C235.731 518.444 232.883 518.513 229.989 518.652C236.842 523.051 239.944 522.495 242.746 522.079C245.616 521.569 248.186 521.199 254.877 525.158C260.317 525.389 258.442 524.602 256.289 523.792C254.113 522.935 251.682 521.917 255.78 521.917C259.414 523.005 258.72 524.463 258.65 525.922C258.581 527.334 259.16 528.931 265.596 529.834C241.287 527.774 215.589 521.129 191.512 509.994C167.366 498.951 145.187 483.393 126.111 466.308C124.93 466.123 126.782 468.137 128.588 470.151C126.551 469.109 123.24 466.493 119.003 462.766C116.873 460.914 114.744 458.552 112.313 456.052C109.951 453.505 107.266 450.82 104.696 447.764C94.2086 435.633 82.8415 419.496 72.9792 403.082C53.0693 370.254 40.2205 336.153 35.0346 335.805C35.2893 332.935 39.9195 339.926 35.544 330.064C34.5253 329.416 32.6964 327.147 32.3723 330.041C29.7562 316.289 24.1537 301.403 19.153 285.498C14.1524 269.617 9.54537 252.67 8.45727 236.071C6.99876 237.066 5.07722 229.936 3.96597 229.959C4.40584 226.996 4.42899 223.616 4.22063 220.004C3.94282 216.416 3.54925 212.596 3.13254 208.776C2.27595 201.182 1.60457 193.566 2.66952 188.171L0.863737 191.667C0.655378 180.323 1.30361 168.933 2.78527 157.612C2.27595 156.524 1.60457 161.131 1.0721 163.84C1.1184 156.269 3.3872 154.88 5.00777 154.417C4.68365 151.824 4.5679 149.231 4.33639 146.615C4.10488 143.976 3.94282 141.337 3.94282 138.698C5.95696 133.373 8.0174 127.886 10.1241 122.26C12.4161 116.727 14.5691 111.032 17.1621 105.407C22.209 94.0857 28.0893 82.5796 35.3819 71.5829C42.6745 60.6093 51.3561 50.0293 61.7509 41.1856C72.0994 32.3188 84.0916 25.1188 96.8942 20.9053C103.145 14.9786 109.697 11.2745 123.495 8.17225L119.999 8.3343L116.503 8.68157C119.883 7.1536 121.712 6.66743 122.638 6.48222C123.587 6.32016 123.657 6.55167 123.657 6.82949C123.68 7.40826 123.472 8.10279 129.375 6.66743C133.311 5.20892 133.866 4.02821 131.968 3.47259C130.093 2.94012 125.74 3.19478 120.23 5.09316C116.596 5.30152 115.785 5.02371 116.526 4.32918C117.267 3.61149 119.559 2.616 122.106 1.82887C133.704 -0.0232154 144.817 -0.277877 155.235 0.231446C165.699 0.763919 175.422 2.06038 184.706 3.63465C203.366 6.82949 220.752 11.5986 236.286 17.7336H236.31Z" fill="#AA1F33"/>
<path d="M197.323 24.2622C199.314 24.5863 198.272 24.8178 196.212 25.1882C195.216 25.3735 193.781 25.605 192.786 25.8596C192.23 25.9754 191.674 26.1143 191.096 26.2532C190.632 26.369 190.193 26.5079 189.73 26.6236C187.878 27.1561 186.674 27.6191 186.234 28.1284C185.863 28.6377 186.488 29.1239 189.081 29.5638C191.211 29.6795 193.596 29.6101 197.346 29.6564C201.189 29.7722 204.338 30.3278 207.116 30.7908C212.418 31.8094 217.117 32.8049 222.28 33.6847C227.512 34.5644 232.906 35.4673 238.439 36.3933C244.042 37.3425 249.807 38.3843 255.594 39.5882C267.193 41.9727 279 44.9824 290.251 49.0801C301.48 53.1547 312.175 58.3868 321.135 64.7765C325.557 68.8511 328.381 71.1662 330.974 73.7128C332.294 74.9398 333.613 76.0742 335.025 77.4401C336.391 78.8755 337.896 80.4729 339.748 82.3944C340.234 82.1398 340.697 81.6767 340.674 80.9128C341.855 81.8619 343.013 83.0426 344.263 84.2928C345.513 85.5198 346.809 86.8163 348.152 88.159C349.472 89.5481 350.699 91.1224 351.995 92.6503C352.643 93.4375 353.292 94.2014 353.94 94.9886L354.426 95.5673L354.796 96.0535L355.537 97.0259C359.519 102.258 363.825 107.745 366.557 112.329C368.965 114.273 372.252 114.435 368.155 110.338C380.054 121.52 382.485 134.878 389.731 141.568C387.879 137.702 389.569 138.999 391.143 140.249C392.718 141.499 394.153 142.61 391.606 138.049C394.524 141.8 395.704 144.763 396.561 147.356C397.348 149.949 397.487 152.125 397.533 154.232C397.579 158.446 397.417 162.127 400.242 168.447C401.237 168.817 402.233 169.234 401.052 166.687C402.117 170.438 404.154 174.744 406.562 179.189C408.831 183.726 411.215 188.519 413.438 192.917C415.776 197.293 417.327 201.553 418.253 204.84C419.156 208.128 419.249 210.512 417.975 211.415C419.457 213.012 421.101 214.564 422.444 216.23C422.536 223.153 420.777 222.018 423.208 232.598C425.893 239.219 425.338 231.742 426.842 234.01C426.009 235.793 426.981 241.257 427.977 247.392C428.556 250.448 428.741 253.758 428.88 256.814C428.995 259.893 428.88 262.741 428.417 264.986C426.565 265.519 427.19 261.583 427.653 256.467C428.255 251.327 428.069 245.053 425.407 241.257C424.597 241.164 424.689 242.437 424.99 244.151C423.786 238.687 422.93 233.293 421.564 228.153C420.985 225.56 420.406 222.991 419.828 220.444C419.295 217.897 418.786 215.351 418.045 212.92C416.725 208.012 415.475 203.15 414.248 198.335C412.72 193.612 411.215 188.982 409.757 184.421C408.368 179.768 406.423 175.438 404.571 171.086C403.622 168.91 402.65 166.757 401.7 164.604L400.219 161.386L398.506 158.33C396.19 154.255 393.783 150.25 391.213 146.338C389.986 144.393 388.527 142.402 387.023 140.55C385.541 138.675 383.99 136.892 382.416 135.156C379.406 127.006 373.502 123.765 369.196 122.654C370.817 125.594 374.151 131.15 377.577 135.665C381.003 140.156 384.499 143.721 386.791 142.356C387.555 144.323 388.203 146.291 388.782 148.259L390.588 154.116C393.25 157.682 388.689 160.506 388.967 162.543C384.985 155.39 375.771 150.875 380.054 160.876C374.104 152.403 377.322 152.125 380.656 152.241C382.323 152.287 384.036 152.449 384.592 151.639C385.101 150.852 384.684 149 381.513 145.342L376.767 145.458C380.633 147.032 371.951 133.003 367.043 129.136L368.039 131.59C360.445 121.566 352.018 111.055 343.383 99.7345C338.984 93.9236 333.359 89.0156 327.455 84.4549C324.399 82.3018 321.366 80.1025 318.079 78.2504C314.884 76.2362 311.481 74.6157 308.124 72.8793C294.465 66.3508 279.833 61.8826 265.318 58.6183C250.756 55.4235 236.309 53.3862 222.511 51.9971C219.432 49.1959 215.381 47.6679 210.751 46.8345C208.436 46.4177 206.005 46.1862 203.389 46.1399C200.796 46.0705 197.879 46.3714 195.332 46.9734C185.424 49.4737 175.746 51.7193 169.033 48.3393C163.083 50.0987 177.946 51.0248 166.393 53.1315C160.582 54.1502 159.888 51.673 160.096 50.9553C158.36 51.3257 156.6 51.6962 154.818 52.0666C152.387 47.5753 153.66 43.1071 160.004 38.6853C163.175 36.4859 167.62 34.2403 173.385 31.9483C176.279 30.7908 179.451 29.6101 182.923 28.3599C184.66 27.7349 186.512 27.0866 188.433 26.4153C190.563 25.7439 192.878 24.9104 197.3 24.2854L197.323 24.2622Z" fill="#AA1F33"/>
</g>
<defs>
<clipPath id="clip0_70_1490">
<rect width="436.86" height="531.64" fill="white" transform="translate(0.840332)"/>
</clipPath>
</defs>
</svg>
