<svg width="1292" height="233" viewBox="0 0 1292 233" fill="none" xmlns="http://www.w3.org/2000/svg">
<g clip-path="url(#clip0_72_49)">
<path d="M1249.73 164.724C1247.98 167.087 1244.44 168.665 1241.63 167.221C1234.97 163.797 1241.29 148.932 1248.58 152.165C1253.37 154.288 1252.32 161.214 1249.73 164.724Z" fill="#8A171A"/>
<path d="M1269.77 164.724C1268.02 167.087 1264.48 168.665 1261.67 167.22C1255.01 163.796 1261.34 148.931 1268.62 152.164C1273.41 154.288 1272.36 161.213 1269.77 164.724Z" fill="#8A171A"/>
<path d="M1289.8 164.724C1288.05 167.087 1284.51 168.665 1281.7 167.22C1275.04 163.796 1281.37 148.931 1288.65 152.164C1293.44 154.288 1292.39 161.213 1289.8 164.724Z" fill="#8A171A"/>
</g>
<g clip-path="url(#clip1_72_49)">
<path d="M529.375 91.8432L504.656 127.28C513.236 120.341 520.578 111.606 529.53 105.07C535.57 100.64 553.381 88.4049 560.35 92.6176C570.418 98.6889 547.774 122.292 549.509 124.213C560.134 116.345 587.206 88.1571 600.991 92.122C609.664 94.6001 602.942 105.906 600.247 110.831C596.004 118.575 564.687 153.268 571.161 159.68C574.321 159.928 577.077 159.711 580.051 158.503C598.513 150.945 624.13 110.708 638.44 96.4896C642.467 92.4628 645.379 89.9847 651.605 92.6486L626.886 127.311C634.599 120.991 641.414 113.433 649.344 107.331C656.313 101.972 673.908 88.4669 682.55 92.6486L685.431 96.025C688.157 107.238 657.119 138.183 652.039 150.047C650.459 153.702 648.074 159.247 653.959 159.742C681.404 150.449 693.887 119.102 716.685 103.552C727.031 96.4896 747.042 85.5552 757.573 96.5206C762.158 115.385 741.466 126.815 725.142 127.403C708.817 127.992 707.145 119.629 697.233 138.09C693.02 145.958 687.103 160.114 700.888 161.941C715.942 163.955 747.506 136.975 758.224 126.412C765.07 119.66 782.726 95.4055 790.439 93.7328C805.803 90.4184 801.962 105.07 811.75 111.854C814.662 111.854 831.141 89.7679 836.933 101.879C834.951 111.606 822.096 111.606 817.604 115.416C813.763 118.668 804.626 134.063 799.422 139.639C796.045 143.263 792.359 145.865 788.456 148.808L790.903 159.649C794.744 163.614 826.711 131.121 830.367 127.311C837.15 120.279 841.673 111.73 849.664 104.946C888.818 71.5541 907.187 107.486 880.609 141.157C897.057 139.546 907.496 125.452 918.524 114.982C919.67 114.734 919.577 116.593 919.267 117.274C917.068 122.169 895.571 139.546 889.902 141.931C885.72 143.697 880.857 143.542 877.605 145.091C873.578 147.011 865.803 157.388 859.484 160.919C849.726 166.402 835.199 169.995 828.26 158.658C822.158 148.622 827.331 143.573 827.269 133.475C821.074 139.019 815.746 145.741 809.489 151.193C792.793 165.783 796.851 157.884 786.04 178.699C778.389 193.413 741.807 244.678 721.951 230.646C705.596 219.092 742.891 187.93 751.75 181.518C756.861 177.832 783.005 164.358 783.965 162.778C785.699 159.959 785.297 155.468 782.416 153.547C778.637 156.025 767.176 162.995 763.738 158.224C760.423 144.471 776.469 147.755 782.509 144.347C785.421 142.706 808.064 117.646 807.909 115.726C795.178 108.632 789.664 98.0384 776.19 110.305C763.985 121.425 754.569 134.807 740.599 145.741C729.354 154.538 699.339 176.005 686.453 162.778C680.413 156.583 684.316 149.861 683.417 142.706C677.098 148.684 649.065 178.018 641.631 162.747C634.197 147.476 669.137 119.505 672.669 105.782C674.279 99.5253 671.027 98.7199 665.575 100.269C646.463 105.689 598.389 163.924 584.574 181.394C581.476 185.328 566.205 207.786 564.749 208.622C562.426 209.954 557.191 208.498 554.248 208.963L597.552 151.193L596.809 148.901C591.636 156.056 562.333 178.514 560.474 158.751C558.988 143.077 588.848 118.266 594.269 103.149C594.981 95.1267 581.321 102.933 578.564 104.512C554.713 118.173 536.313 147.228 516.055 165.504L506.329 165.07L549.974 106.836L551.12 102.065L547.31 99.5253C536.499 98.627 501.713 135.302 493.164 144.254C490.19 147.383 477.211 164.203 475.415 165.101C473.711 165.937 462.87 167.548 464.573 163.552C465.626 161.105 481.982 144.75 480.03 142.737C467.95 152.091 437.377 175.912 422.849 163.49C405.75 148.901 439.855 112.07 452.307 103.552C463.644 95.8082 500.598 79.9795 493.226 107.362C489.726 120.372 471.357 127.373 459.183 127.465C453.98 127.496 447.939 125.142 443.788 125.793C435.394 127.094 416.344 162.313 438.461 161.941C455.9 161.663 486.442 134.094 497.841 121.208C503.076 115.292 514.413 96.5825 519.369 93.3611C522.622 91.2547 525.936 91.8742 529.53 91.9362L529.375 91.8432ZM482.601 95.2506C470.675 96.9543 453.236 113.743 444.346 121.89C444.129 132.05 501.62 113.898 489.261 95.5913C487.062 94.3523 484.893 94.9408 482.601 95.2506ZM747.135 95.2506C735.209 96.9543 717.77 113.743 708.879 121.89C708.663 132.05 766.154 113.898 753.794 95.5913C751.595 94.3523 749.427 94.9408 747.135 95.2506ZM885.163 96.4586C870.604 95.3745 855.178 109.654 846.536 120.372C839.597 128.952 821.136 161.477 841.115 162.778C853.041 163.552 862.798 151.627 870.573 144.192C863.046 133.413 867.445 124.678 873.082 114.456C874.383 112.101 886.061 97.2021 885.132 96.4586H885.163ZM887.486 101.105C880.795 104.512 861.714 135.24 873.578 138.059C878.317 139.174 896.376 106.712 887.486 101.105ZM781.518 168.88C767.021 173.495 727.713 202.396 724.615 216.18C722.942 223.552 724.584 227.177 732.452 225.535C748.095 222.313 777.274 184.833 781.549 168.849L781.518 168.88Z" fill="#8A171A"/>
<path d="M990.387 88.7457C980.103 108.106 960.154 125.359 949.53 144.347C938.905 163.335 950.459 162.189 963.283 151.874C982.178 136.665 1008.54 94.4143 1031.55 91.9362C1061.17 88.7457 1051.04 126.815 1038.37 140.382C1057.91 140.258 1070.06 118.451 1084.03 107.3C1092.76 100.3 1108.19 91.8742 1119.59 91.8742C1124.39 91.8742 1136.41 96.8304 1138.88 95.7772L1188.76 30.5731L1197.71 30.2324C1198.23 32.8344 1196.41 34.2902 1195.23 36.2107C1173.48 71.9878 1137.55 105.782 1115.37 141.559C1103.7 160.424 1110.45 165.442 1127.27 151.874C1145.73 137.006 1172.9 96.8923 1194.52 92.5247C1226.89 85.9579 1217.04 126.072 1203.9 141.126C1220.35 139.515 1230.79 125.421 1241.82 114.951C1242.96 114.703 1242.87 116.562 1242.56 117.243C1240.36 122.138 1218.86 139.515 1213.2 141.9C1209.01 143.666 1204.15 143.511 1200.9 145.06C1198.05 146.392 1193.93 152.525 1190.74 154.941C1181.01 162.313 1163.08 173.248 1152.85 160.424C1145.05 150.635 1150.41 143.914 1150.56 133.444C1141.52 141.652 1119.49 167.362 1107.23 167.145C1094.96 166.929 1100.38 150.759 1103.39 144.223C1101.65 142.086 1067.52 180.744 1057.36 160.052C1052.49 150.171 1059.28 142.798 1061.6 133.444C1056.55 135.364 1052.62 139.887 1047.69 141.9C1043.51 143.635 1038.65 143.511 1035.39 145.06C1031.09 147.104 1023.19 157.791 1016.31 161.477C1006.65 166.65 992.679 169.5 986.05 158.627C980.412 149.365 984.315 144.378 985.059 134.993C976.386 142.953 955.167 167.362 943.242 167.176C938.905 167.083 936.148 164.017 935.59 159.897C933.329 142.737 969.695 105.689 979.607 91.0689C982.023 85.4003 962.044 92.6796 964.15 85.7101L983.913 85.3693C992.648 75.8288 1000.14 54.3625 1015.17 56.4689L995.064 83.4488C994.413 86.9491 996.582 85.5862 998.905 85.741C1002.81 86.0198 1014.83 83.3869 1013.62 88.8076H990.418L990.387 88.7457ZM1042.95 96.4587C1028.39 95.3745 1012.97 109.654 1004.33 120.372C997.387 128.952 978.926 161.477 998.905 162.778C1010.83 163.552 1020.59 151.627 1028.36 144.192C1020.84 133.413 1025.23 124.678 1030.87 114.456C1032.17 112.101 1043.85 97.2021 1042.92 96.4587H1042.95ZM1115.25 96.8304C1101.71 99.1226 1085.02 115.85 1077.03 126.536C1072.13 133.041 1053.45 161.074 1072.94 159.587C1092.42 158.101 1123.55 117.925 1133.93 101.817C1129.87 95.5294 1121.79 95.7152 1115.25 96.8304ZM1208.49 96.4587C1193.93 95.3745 1178.5 109.654 1169.86 120.372C1162.92 128.952 1144.46 161.477 1164.44 162.778C1176.37 163.552 1186.12 151.627 1193.9 144.192C1186.37 133.413 1190.77 124.678 1196.41 114.456C1197.71 112.101 1209.39 97.2021 1208.46 96.4587H1208.49ZM1045.28 101.105C1038.58 104.512 1019.5 135.24 1031.37 138.059C1036.11 139.174 1054.17 106.712 1045.28 101.105ZM1210.81 101.105C1204.12 104.512 1185.04 135.24 1196.9 138.059C1201.64 139.174 1219.7 106.712 1210.81 101.105Z" fill="#8A171A"/>
<path d="M156.58 141.126C169.559 139.918 180.773 129.603 189.012 120.31C194.216 114.425 206.978 93.2991 213.08 91.9052C214.691 91.5335 221.444 90.6972 219.988 94.1355L195.269 127.28C204.996 118.421 236.529 87.5686 249.911 92.0911C251.057 92.4938 251.831 93.2991 252.389 94.3523C258.305 102.282 238.233 122.169 240.122 124.213C252.636 115.447 271.718 93.1133 287.484 91.9052C305.636 90.4803 288.909 113.991 284.696 120.093C280.855 125.731 255.517 153.485 261.743 159.649C269.116 160.888 274.134 156.18 279.492 151.905C298.821 136.417 321.558 98.534 344.015 92.9274C377.221 84.6259 368.3 125.607 354.578 141.157C371.522 139.701 381.217 124.647 393.236 114.982C393.917 117.863 391.625 118.637 390.169 120.372C384.284 127.342 372.172 138.431 363.871 141.931C359.689 143.697 354.826 143.542 351.573 145.091C344.882 148.25 338.687 160.083 327.164 163.924C313.999 168.292 300.122 165.442 298.976 149.458C298.605 144.192 302.136 140.042 301.237 135.024C292.595 142.922 271.687 167.486 259.699 166.898C243.158 166.123 254.65 146.082 258.986 139.143C264.593 130.16 282.156 112.814 284.325 104.234C284.82 102.313 285.595 101.817 283.488 100.269C281.878 98.9987 280.174 99.4943 278.408 99.835C266.576 101.941 240.711 128.673 231.604 138.059C226.524 143.325 210.478 164.76 205.305 165.783C202.672 166.309 199.544 165.628 196.818 165.783L240.463 106.805L241.609 102.034C240.463 99.7111 238.821 99.4014 236.405 99.5562C225.656 100.238 192.388 135.055 183.653 144.223C180.68 147.352 167.701 164.172 165.904 165.07C164.2 165.906 153.359 167.517 155.063 163.521C156.642 159.804 169.188 146.361 172.843 141.157C173.71 139.918 176.994 138.152 174.392 136.541C168.971 143.046 159.368 142.334 153.576 145.091C145.026 149.149 139.482 162.933 124.521 165.442C89.2081 171.389 102.249 131.988 115.723 115.106C149.177 73.1958 190.747 92.3699 156.58 141.157V141.126ZM161.196 96.4587C146.637 95.3745 131.211 109.654 122.569 120.372C115.63 128.952 97.1689 161.477 117.148 162.778C129.074 163.552 138.831 151.627 146.606 144.192C139.079 133.413 143.478 124.678 149.115 114.456C150.416 112.101 162.094 97.2021 161.165 96.4587H161.196ZM359.224 96.4587C344.666 95.3745 329.24 109.654 320.597 120.372C313.659 128.952 295.197 161.477 315.177 162.778C327.102 163.552 336.86 151.627 344.635 144.192C337.107 133.413 341.506 124.678 347.144 114.456C348.445 112.101 360.122 97.2021 359.193 96.4587H359.224ZM163.519 101.105C156.828 104.512 137.747 135.24 149.611 138.059C154.35 139.174 172.409 106.712 163.519 101.105ZM361.547 101.105C354.857 104.512 335.775 135.24 347.639 138.059C352.379 139.174 370.437 106.712 361.547 101.105Z" fill="#8A171A"/>
<path d="M96.2407 67.1861V59.4732C117.118 61.3627 146.36 54.3931 158.812 36.2723C167.454 23.6961 163.706 7.09308 147.722 4.39818C109.405 -2.07576 46.9891 60.3715 26.9168 89.7985C15.146 107.052 -3.90412 141.466 18.987 157.202C41.8781 172.938 82.6113 150.015 91.904 126.784C101.197 103.552 83.0759 93.2058 63.84 106.556C51.2018 115.323 43.365 131.306 43.7057 146.546L32.8022 147.259C37.5725 126.815 51.1709 106.525 71.491 98.7815C105.843 85.6477 112.782 113.929 92.3687 138.059C60.9282 175.23 -12.5773 185.483 2.32201 117.708C12.6679 70.6864 74.1239 18.0585 119.101 4.46014C137.562 -1.11551 178.327 -7.06286 171.667 24.4705C167.051 46.3394 117.986 70.7793 96.2097 67.1861H96.2407Z" fill="#8A171A"/>
<g clip-path="url(#clip2_72_49)">
<path d="M914.933 53.4715C916.523 53.0131 925.146 52.8269 925.118 55.1044L897.672 86.1596L896.913 83.2804L912.412 55.9496C913.042 55.0472 913.844 53.8009 914.933 53.4715Z" fill="#8A171A"/>
</g>
</g>
<defs>
<clipPath id="clip0_72_49">
<rect width="53.1848" height="16.0702" fill="white" transform="translate(1238.82 151.705)"/>
</clipPath>
<clipPath id="clip1_72_49">
<rect width="1242.35" height="233" fill="white" transform="translate(0.369629)"/>
</clipPath>
<clipPath id="clip2_72_49">
<rect width="28.2046" height="32.9746" fill="white" transform="translate(896.913 53.1848)"/>
</clipPath>
</defs>
</svg>
