<svg width="782" height="861" viewBox="0 0 782 861" fill="none" xmlns="http://www.w3.org/2000/svg">
<g clip-path="url(#clip0_80_296)">
<path d="M702.372 304.363C705.965 375.245 716.308 444.151 756.342 505.383C773.305 531.328 782.955 559.84 781.415 591.636C779.952 621.714 767.172 639.113 737.89 645.863C723.853 649.096 709.25 651.124 694.853 651.38C648.403 652.201 609.626 670.499 577.136 702.424C536.845 742.022 504.869 858.097 417.897 860.971C327.332 859.534 259.966 748.592 197.81 692.467C195.654 690.516 193.421 688.669 191.343 686.641C164.576 660.285 132.959 644.964 95.1831 640.858C77.0393 638.882 58.7671 634.058 41.5985 627.693C11.008 616.35 -5.54466 584.399 1.61535 552.372C4.18166 540.875 8.10812 528.941 14.3956 519.138C30.2041 494.527 46.2948 469.839 64.9006 447.333C84.2506 423.928 93.9256 397.623 98.006 368.367C101.676 342.165 105.166 315.963 109.221 289.812C110.555 281.267 114.815 258.273 117.638 250.086C139.683 199.786 218.751 184.44 242.977 191.343C281.651 202.353 292.738 236.382 312.627 255.475C331.463 273.516 353.662 285.013 379.325 289.812C406.554 294.894 433.089 292.841 457.29 278.752C476.665 267.486 495.476 255.065 513.749 242.079C550.088 216.288 589.224 199.915 634.673 206.202C664.827 210.385 703.425 235.33 702.398 275.005C702.142 284.783 702.372 294.586 702.372 304.363Z" fill="#701114"/>
</g>
<circle cx="401.751" cy="513.157" r="215.574" fill="white"/>
<path d="M409.711 293.785C521.286 296.71 613.145 385.264 621.655 496.384C636.775 693.778 407.545 811.394 256.422 683.521C108.528 558.345 187.433 307.993 381.066 293.823C384.333 293.595 398.124 294.658 399.301 292.949L404.202 0.960011C417.423 -2.72499 412.56 10.8373 412.408 18.2833C411.952 45.8258 412.408 73.7483 412.104 101.025C411.496 165.303 410.66 229.582 409.711 293.785ZM389.69 303.814C369.138 306.245 338.822 308.753 321.499 320.719C304.175 332.686 289.169 356.316 282.331 376.678C305.467 368.434 329.096 361.558 353.296 357.113C360.97 341.5 367.77 325.468 379.699 312.476L389.69 303.814ZM434.898 314.147C434.404 313.653 430.111 309.93 429.313 309.284C422.171 303.776 416.967 303.168 407.925 303.814C414.877 318.212 420.5 333.522 423.425 349.288H457.046C451.423 337.777 443.977 323.265 434.898 314.109V314.147ZM491.35 324.138C476.003 317.338 460.047 310.842 443.407 308.373L450.17 315.705C457.92 326.646 464.606 338.195 470.418 350.275L512.587 355.708L491.388 324.138H491.35ZM412.446 350.275C413.927 348.756 402.569 314.375 399.263 310.234C383.498 320.453 374.152 337.929 366.972 354.834L412.446 350.275ZM291.449 334.775C290.841 334.168 281.229 340.93 279.862 341.842C260.487 355.404 241.492 374.285 227.93 393.659C226.638 395.483 216.115 411.363 216.837 412.16C232.755 400.46 249.926 390.924 267.819 382.605L277.924 358.101L291.449 334.737V334.775ZM545.866 361.558C539.787 355.784 531.999 349.402 525.199 344.425C523.604 343.247 514.638 336.523 513.46 337.511L527.137 358.899C528.314 359.773 545.714 365.471 547.651 365.699C551.222 366.117 546.815 362.432 545.904 361.558H545.866ZM460.237 360.267H426.122L435.734 420.404L479.688 418.087C475.965 404.79 473.343 391.038 468.899 377.97C467.683 374.361 464.834 365.471 463.238 362.698C462.706 361.786 461.149 360.457 460.237 360.229V360.267ZM424.299 421.278L415.257 361.596C412.94 359.963 364.161 365.357 361.958 367.561C354.208 389.595 348.471 412.578 346.078 435.866C371.873 429.484 397.858 424.165 424.337 421.278H424.299ZM541.649 425.837C537.128 406.12 528.732 387.619 520.261 369.384C505.863 364.028 490.173 364.066 475.243 361.178L491.54 419.075L541.611 425.837H541.649ZM349.687 369.384C324.956 374.323 300.528 381.351 277.355 391.228C268.883 415.39 265.084 441.299 263.26 466.79C285.75 455.393 309.684 447.073 333.769 439.475C338.138 415.921 341.861 392.064 349.687 369.384ZM599.887 444.946C594.758 430.699 588.262 416.909 580.246 404.069C575.991 397.269 571.509 389.291 564.671 385.036C561.403 383.022 535.76 371.701 534.355 373.031C542.029 391.114 548.981 409.501 554.565 428.382C570.179 432.447 585.185 438.373 599.849 444.984L599.887 444.946ZM252.129 472.108C253.725 446.693 257.22 421.24 264.134 396.699C247.95 404.79 230.513 414.364 216.799 426.293C205.82 435.866 202.363 440.995 198.146 454.975C192.675 473.248 189.978 493.382 189.94 512.339C209.087 496.65 230.133 483.429 252.091 472.108H252.129ZM437.025 534.221C438.317 535.513 468.177 526.661 472.28 525.37C475.357 524.42 489.945 520.165 490.591 518.114C489.679 489.318 487.324 460.407 482.347 431.953L481.055 430.547L436.113 431.345C438.431 465.498 438.735 500.031 437.025 534.259V534.221ZM545.106 437.879C528.162 434.081 510.839 431.421 493.44 431.345C498.606 458.926 501.114 487 501.646 515.113C512.321 510.554 523.338 506.413 533.823 501.322C536.862 499.841 553.919 491.141 554.869 489.621C556.009 487.76 552.97 471.994 552.362 468.461C551.678 464.662 546.398 438.829 545.144 437.879H545.106ZM425.21 433.131C397.82 435.182 370.923 441.261 344.406 447.871C341.025 464.092 341.595 480.884 339.658 497.295V547.86C368.682 547.252 397.782 543.339 426.008 536.805C427.604 502.31 427.49 467.625 425.21 433.093V433.131ZM558.06 441.337L566.684 482.289C578.271 475.337 587.958 466.068 598.064 457.254C598.064 454.823 563.265 441.413 558.06 441.337ZM332.402 452.24C308.202 458.052 285.142 468.537 262.501 478.794C260.221 501.056 261.589 523.736 263.26 546.036C285.37 548.088 307.404 549.379 329.666 548.771C327.197 516.594 329.932 484.341 332.402 452.24ZM606.269 465.004C604.674 464.586 604.446 465.65 603.534 466.372C599.545 469.449 595.252 474.426 591.225 477.731C583.817 483.771 575.574 488.672 568.204 494.75C568.621 512.149 571.585 529.473 570.787 546.948C583.665 537.033 596.848 522.483 603.686 507.515C605.51 503.564 609.536 493.117 609.916 489.166C610.676 481.796 606.459 472.488 606.231 465.004H606.269ZM251.408 485.025C238.377 491.255 225.689 498.853 213.836 507.059C209.771 509.87 192.599 521.951 190.928 525.104C190.472 525.978 190.244 526.813 190.51 527.801C210.303 535.893 231.197 541.173 252.319 544.251L251.408 485.063V485.025ZM557.111 501.436L502.026 526.889L497.961 589.762C499.404 591.32 532.189 573.845 535.874 571.717C544.004 567.006 551.944 561.878 559.39 556.103L557.111 501.474V501.436ZM565.316 612.518C566.19 613.392 579.297 604.464 581.082 603.249C584.957 600.627 595.822 593.333 597.836 589.99C600.381 585.735 603.496 574.073 604.902 568.83C609.308 552.077 611.778 534.259 611.702 516.936L597.608 536.995C589.06 545.314 581.158 554.47 570.939 560.852C569.837 578.137 568.811 595.537 565.278 612.556L565.316 612.518ZM490.705 531.486L436.189 546.15L428.819 611.606C448.422 608.187 467.341 601.691 485.994 595.081L490.667 531.448L490.705 531.486ZM262.311 613.43L253.231 555.572C232.413 551.165 211.1 547.252 191.346 538.742C193.701 555.002 194.271 568.678 205.44 581.557C219.876 598.196 241.796 606.896 262.311 613.43ZM425.21 548.771C397.288 553.71 369.024 558.345 340.607 558.763C341.633 580.037 343.191 601.425 347.104 622.395C370.467 621.104 394.021 619.584 416.815 614.114L425.21 548.771ZM336.049 622.547L329.742 560.13L264.172 557.015L274.391 616.013C294.526 620.762 315.382 622.054 336.049 622.585V622.547ZM558.934 570.615L534.393 584.748L496.631 602.527C494.048 612.556 492.604 623.231 490.249 633.45C488.843 639.567 487.21 645.683 485.234 651.648C496.593 647.811 507.724 643.176 518.589 638.161C523.376 635.958 549.703 623.459 551.602 621.142C553.73 618.521 556.389 599.26 556.959 594.663C557.946 586.723 558.364 578.631 558.896 570.653L558.934 570.615ZM265.768 625.473C245.443 619.622 225.537 612.86 208.669 599.754C219.61 626.346 238.453 652.635 260.031 671.706C261.095 672.656 266.983 677.898 267.439 678.012C269.035 678.316 269.757 675.125 272.682 675.315C273.745 675.391 283.243 680.368 283.243 678.506C276.063 661.297 270.136 643.594 265.73 625.473H265.768ZM484.322 607.048L427.186 622.699L414.269 673.492C434.138 670.073 453.247 663.196 472.28 656.89C477.864 640.707 481.093 623.801 484.322 607.01V607.048ZM587.16 612.518L562.201 628.056L549.893 663.5C556.161 660.993 589.478 614.873 587.198 612.518H587.16ZM415.181 625.283C393.261 629.196 371.075 632.235 348.775 632.577L358.88 683.483L401.391 677.025L415.181 625.283ZM337.796 632.615C317.32 633.374 297.109 630.525 276.861 628.018C282.027 646.595 288.03 664.944 296.197 682.419C299.578 685.572 346.914 686.522 348.737 684.471L337.758 632.615H337.796ZM548.031 636.186C525.959 646.595 503.849 657.004 480.903 665.552C474.217 684.737 465.328 703.275 452.487 719.041C470.608 714.976 488.767 707.34 504.951 698.261C508.446 696.285 522.502 688.08 524.326 685.8C525.693 684.129 525.123 682.001 525.921 680.14C527.023 677.556 532.987 670.946 535.077 667.451C537.166 663.956 549.475 637.781 547.993 636.224L548.031 636.186ZM434.1 723.41C437.253 717.94 443.028 714.331 447.016 709.468C456.134 698.413 462.63 683.103 467.949 669.883L409.787 686.788C402.721 700.654 395.882 718.016 380.648 724.55L392.919 726.335C406.747 726.867 420.462 725.044 434.1 723.41ZM369.707 718.167C383.118 714.938 391.286 701.338 395.161 689.029L362.451 694.538L369.707 718.167ZM351.358 695.564C335.023 696.627 318.573 696.931 302.39 694.5C304.327 696.513 304.593 701.604 306.037 703.124C307.746 704.985 326.893 712.697 330.616 714.027C337.074 716.344 352.118 721.511 358.349 721.814C360.286 721.89 359.906 721.283 359.526 719.725C357.779 712.013 353.524 703.351 351.358 695.564Z" fill="#701114"/>
<defs>
<clipPath id="clip0_80_296">
<rect width="781.57" height="671.219" fill="white" transform="translate(0 189.781)"/>
</clipPath>
</defs>
</svg>
