<svg width="432" height="236" viewBox="0 0 432 236" fill="none" xmlns="http://www.w3.org/2000/svg">
<g clip-path="url(#clip0_79_129)">
<path d="M406.394 33.9092C407.753 54.6585 411.08 74.7998 423.073 92.5649C428.154 100.092 431.104 108.403 430.791 117.725C430.492 126.542 426.823 131.695 418.274 133.798C414.176 134.806 409.907 135.463 405.69 135.601C392.086 136.042 380.805 141.57 371.425 151.063C359.793 162.837 350.927 196.979 325.461 198.197C298.923 198.167 278.709 165.958 260.258 149.784C259.618 149.222 258.956 148.69 258.338 148.106C250.383 140.5 241.055 136.148 229.971 135.109C224.647 134.608 219.273 133.274 214.216 131.483C205.205 128.293 200.218 119.004 202.177 109.591C202.88 106.211 203.978 102.699 205.778 99.7995C210.303 92.5215 214.91 85.2196 220.263 78.5459C225.831 71.6058 228.551 63.858 229.62 55.2698C230.582 47.5781 231.492 39.887 232.567 32.2086C232.921 29.6994 234.069 22.9448 234.861 20.5343C241.102 5.70373 264.198 0.866395 271.325 2.7841C282.702 5.84229 286.097 15.7633 292.006 21.2709C297.602 26.4747 304.155 29.7469 311.694 31.0419C319.693 32.4128 327.457 31.6968 334.486 27.4648C340.114 24.0807 345.571 20.3607 350.867 16.4777C361.401 8.76504 372.796 3.79947 386.137 5.44507C394.989 6.54026 406.404 13.6811 406.275 25.3084C406.242 28.1739 406.352 31.0448 406.394 33.9092ZM277.331 43.4146C258.575 45.8118 240.02 64.9297 255.643 101.967C265.658 126.386 304.27 160.46 321.667 160.203C336.44 159.986 346.057 147.203 355.348 135.764C368.504 114.62 374.746 107.497 383.369 85.3976C386.846 76.4806 387.609 64.4454 383.151 55.856C379.467 48.7591 371.429 42.6588 356.898 42.9558C326.672 43.6947 330.303 67.1026 320.713 66.9508C312.579 67.0707 306.66 59.909 303.34 55.5364C296.852 46.9769 290.071 41.986 277.324 43.4223L277.331 43.4146Z" fill="#701114"/>
<path d="M338.638 113.73L338.433 114.142C338.394 114.219 334.475 122.07 323.321 122.276L322.974 122.276L322.396 122.276C321.792 122.25 321.188 122.199 320.584 122.122C318.515 121.877 316.497 121.351 314.582 120.554C312.539 119.719 310.625 118.575 308.915 117.174C306.911 115.555 305.227 113.55 303.981 111.289C300.152 104.183 300.152 95.6242 303.981 88.5179C305.227 86.2563 306.911 84.2645 308.915 82.6325C310.625 81.2318 312.526 80.0881 314.582 79.2528C316.497 78.4561 318.528 77.9293 320.584 77.6851C321.329 77.5823 322.087 77.5437 322.832 77.5309L323.308 77.5309C324.644 77.5309 325.968 77.608 327.291 77.7622C330.119 78.122 332.766 79.2785 334.95 81.1161C335.4 81.4888 335.259 82.2598 334.642 82.8509C334.256 83.2236 333.832 83.5577 333.37 83.8404C332.637 84.2773 331.943 84.3544 331.738 83.9946C330.581 82.0157 328.872 80.4094 326.829 79.3942C325.595 78.7774 324.233 78.4561 322.858 78.469L322.691 78.469C320.044 78.5075 317.461 79.2528 315.199 80.6278C313.516 81.6687 312.051 83.018 310.869 84.5986C309.519 86.3334 308.427 88.2481 307.618 90.2913C305.099 96.4595 305.099 103.36 307.618 109.528C308.427 111.571 309.532 113.486 310.882 115.234C312.077 116.827 313.554 118.177 315.251 119.217C317.538 120.605 320.16 121.338 322.845 121.351L322.961 121.351C333.781 121.299 337.546 113.807 337.585 113.73L337.79 113.319L338.626 113.717L338.638 113.73Z" fill="#701114"/>
</g>
<g clip-path="url(#clip1_79_129)">
<path d="M208.441 37.2872C213.322 57.5001 220.039 76.7779 234.888 92.2353C241.179 98.7849 245.505 106.47 246.787 115.709C247.997 124.448 245.262 130.151 237.197 133.683C233.331 135.375 229.237 136.751 225.106 137.607C211.777 140.363 201.605 147.736 193.983 158.69C184.531 172.277 181.623 207.432 156.738 212.979C130.585 217.479 105.17 189.193 84.229 176.406C83.5025 175.961 82.7594 175.55 82.0509 175.079C72.9143 168.944 62.98 166.248 51.8809 167.116C46.5498 167.531 41.0272 167.133 35.7387 166.233C26.3158 164.627 19.8164 156.326 20.14 146.716C20.2551 143.267 20.738 139.618 22.0164 136.454C25.2325 128.51 28.5257 120.529 32.6613 113.04C36.9625 105.251 38.3208 97.1528 37.9082 88.5081C37.543 80.765 37.1262 73.0317 36.8746 65.2825C36.7952 62.7496 36.774 55.8981 37.1426 53.3879C40.7603 37.7097 62.6925 29.0009 70.0421 29.674C81.7744 30.7453 86.8128 39.9413 93.5751 44.3594C99.9774 48.5316 106.993 50.6373 114.642 50.6265C122.757 50.612 130.286 48.5811 136.489 43.2115C141.456 38.9165 146.198 34.3196 150.754 29.5894C159.817 20.1919 170.197 13.3543 183.624 12.6985C192.532 12.2667 204.999 17.3543 206.856 28.833C207.313 31.6621 207.911 34.4721 208.441 37.2872ZM82.895 68.6831C64.823 74.2466 49.8037 96.2511 71.5194 130.078C85.5559 152.429 129.418 179.412 146.515 176.19C161.034 173.454 168.328 159.217 175.531 146.36C184.884 123.281 189.819 115.197 194.542 91.9503C196.447 82.5705 195.144 70.5817 189.286 62.8793C184.444 56.5154 175.483 51.8767 161.216 54.6497C131.559 60.5371 139.133 82.9816 129.658 84.4689C121.663 85.9756 114.609 79.9292 110.591 76.1875C102.738 68.861 95.204 65.1009 82.889 68.6919L82.895 68.6831Z" fill="#701114"/>
<path d="M160.886 72.7288C161.128 72.9776 161.239 73.1492 161.21 73.2228C161.1 73.3923 160.937 73.3533 160.708 73.1353C159.036 72.4325 157.244 73.0268 155.331 74.9183C150.625 79.5711 148.195 88.0935 148.04 100.511C147.926 109.59 148.382 118.435 149.412 127.056C149.628 127.609 149.841 128.298 150.062 129.117C150.487 130.605 150.456 131.46 149.963 131.674C149.741 131.782 149.538 131.736 149.348 131.55C149.106 131.302 148.896 130.734 148.733 129.852C148.486 129.056 148.342 127.825 148.297 126.173C147.976 125.067 147.036 123.266 145.483 120.755C142.98 116.727 141.508 114.29 141.066 113.469C138.749 109.251 137.429 105.223 137.096 101.389C136.807 98.4997 136.989 96.163 137.629 94.3725C137.466 94.5894 137.224 94.9873 136.927 95.5678C136.316 96.8333 135.848 98.7082 135.531 101.213C134.949 105.725 134.759 111.25 134.939 117.798L135.14 125.888C135.205 129.386 135.162 132.297 135.004 134.635C134.422 144.126 131.345 151.635 125.749 157.162C123.98 158.906 122.142 159.874 120.222 160.035C118.308 160.206 116.505 159.426 114.808 157.709C113.088 155.966 111.89 153.569 111.219 150.504C110.659 147.72 110.606 145.01 111.061 142.372C111.748 138.413 113.113 134.977 115.162 132.075C114.308 132.104 113.421 131.634 112.489 130.696C110.597 128.783 109.812 126.072 110.104 122.553C110.339 119.803 111.146 116.964 112.505 114.019C114.317 110.207 116.827 106.653 120.04 103.368C124.217 99.1277 128.862 95.6852 133.97 93.0551C135.79 92.1313 138.09 91.3289 140.875 90.6582C141.256 90.5537 141.468 90.6204 141.49 90.8672C141.441 91.0351 141.335 91.1296 141.199 91.1522C140.375 91.3631 139.788 91.642 139.464 91.9654C138.051 93.7988 137.972 96.9084 139.237 101.29C140.041 104.212 141.304 107.264 143.021 110.436C145.521 115.186 147.228 119.375 148.148 123.016C147.304 116.963 146.935 109.386 147.048 100.306C147.206 86.9114 149.61 77.9363 154.27 73.4014C155.186 72.5036 156.254 71.955 157.503 71.7673C158.876 71.5012 160.008 71.8035 160.882 72.6935L160.886 72.7288ZM138.98 91.8337C132.804 94.1098 126.801 98.2756 120.989 104.347C118.171 107.303 115.949 110.536 114.323 114.048C112.485 118.055 111.69 121.877 111.944 125.502C112.093 127.646 112.731 129.285 113.858 130.42C114.49 131.061 115.085 131.364 115.673 131.341C116.641 130.055 117.779 128.853 119.074 127.73C120.32 126.665 121.729 126.03 123.318 125.84C124.904 125.641 126.257 126.116 127.369 127.244C127.697 127.578 128.015 128.002 128.317 128.53C128.699 129.242 128.763 129.727 128.514 129.969C128.488 129.993 128.442 130.001 128.386 130.013L127.905 129.184C127.667 128.775 127.381 128.398 127.058 128.075C126.032 127.031 124.802 126.588 123.39 126.737C121.978 126.886 120.688 127.457 119.527 128.437C115.985 131.498 113.702 136.223 112.673 142.6C112.305 145.213 112.281 147.774 112.621 150.274C113.043 153.301 114.007 155.58 115.508 157.101C116.986 158.595 118.574 159.273 120.257 159.129C121.954 158.991 123.559 158.161 125.08 156.659C129.23 152.553 131.795 145.046 132.756 134.122C133.224 128.842 133.466 124.026 133.493 119.67C133.52 114.387 133.639 110.271 133.849 107.324C134.318 101.764 135.157 97.763 136.343 95.3205C137.041 93.9194 137.917 92.7586 138.966 91.8279L138.98 91.8337Z" fill="#701114"/>
</g>
<defs>
<clipPath id="clip0_79_129">
<rect width="228.987" height="196.656" fill="white" transform="translate(200.138 3.37612) rotate(-0.844777)"/>
</clipPath>
<clipPath id="clip1_79_129">
<rect width="228.987" height="196.656" fill="white" transform="translate(0 42.4084) rotate(-10.6728)"/>
</clipPath>
</defs>
</svg>
