<svg width="313" height="268" viewBox="0 0 313 268" fill="none" xmlns="http://www.w3.org/2000/svg">
<g clip-path="url(#clip0_54_1374)">
<path d="M280.439 45.7497C281.874 74.0508 286.003 101.563 301.988 126.011C308.761 136.371 312.613 147.755 311.999 160.45C311.415 172.459 306.312 179.406 294.62 182.101C289.015 183.392 283.185 184.202 277.437 184.304C258.89 184.632 243.408 191.938 230.436 204.685C214.348 220.495 201.581 266.841 166.855 267.988C130.695 267.415 103.798 223.118 78.9806 200.709C78.1198 199.93 77.2284 199.193 76.3984 198.383C65.7112 187.86 53.0874 181.743 38.0044 180.103C30.76 179.314 23.4644 177.388 16.6095 174.847C4.3955 170.318 -2.21356 157.561 0.645242 144.773C1.6699 140.182 3.23763 135.418 5.74805 131.504C12.06 121.677 18.4846 111.82 25.9134 102.834C33.6393 93.4886 37.5023 82.9858 39.1315 71.3047C40.5968 60.8429 41.9903 50.3811 43.6093 39.9398C44.1421 36.5277 45.843 27.3468 46.9701 24.0781C55.772 3.99475 87.3418 -2.13272 97.0146 0.623617C112.456 5.01941 116.883 18.6064 124.824 26.2299C132.345 33.4333 141.208 38.0237 151.455 39.9398C162.326 41.9687 172.921 41.1489 182.584 35.5236C190.32 31.0253 197.831 26.0659 205.127 20.8812C219.636 10.5833 235.262 4.04598 253.409 6.5564C265.448 8.2266 280.859 18.1863 280.449 34.0276C280.347 37.9315 280.439 41.8457 280.439 45.7497ZM104.382 56.109C78.7756 58.9985 53.1079 84.6765 73.6523 135.459C86.809 168.934 138.739 216.141 162.449 216.141C182.584 216.141 195.946 198.916 208.836 183.515C227.187 154.968 235.836 145.388 248.029 115.447C252.947 103.366 254.228 86.982 248.326 75.1882C243.449 65.4437 232.618 56.9697 212.811 57.0824C171.61 57.482 176.088 89.4515 163.023 89.0518C151.936 89.0518 144.016 79.1741 139.579 73.1491C130.91 61.3553 121.77 54.4183 104.372 56.1192L104.382 56.109Z" fill="#F6EFEC"/>
<path d="M212.329 143.072L212.165 143.4C212.135 143.461 209.009 149.722 200.115 149.886H199.839H199.378C198.896 149.865 198.414 149.824 197.933 149.763C196.283 149.568 194.674 149.148 193.148 148.513C191.518 147.847 189.992 146.935 188.629 145.818C187.03 144.527 185.688 142.928 184.694 141.125C181.641 135.458 181.641 128.634 184.694 122.968C185.688 121.164 187.03 119.576 188.629 118.275C189.992 117.158 191.508 116.246 193.148 115.58C194.674 114.945 196.293 114.525 197.933 114.33C198.527 114.248 199.132 114.217 199.726 114.207H200.105C201.171 114.207 202.226 114.268 203.282 114.391C205.536 114.678 207.647 115.601 209.389 117.066C209.747 117.363 209.634 117.978 209.143 118.449C208.835 118.746 208.497 119.013 208.128 119.238C207.544 119.586 206.991 119.648 206.827 119.361C205.905 117.783 204.542 116.502 202.913 115.693C201.929 115.201 200.843 114.945 199.746 114.955H199.613C197.502 114.986 195.443 115.58 193.639 116.676C192.297 117.506 191.129 118.582 190.186 119.843C189.11 121.226 188.239 122.753 187.594 124.382C185.586 129.3 185.586 134.803 187.594 139.721C188.239 141.35 189.121 142.877 190.197 144.271C191.15 145.541 192.328 146.617 193.68 147.447C195.504 148.554 197.595 149.138 199.736 149.148H199.828C208.456 149.107 211.458 143.133 211.489 143.072L211.653 142.744L212.319 143.061L212.329 143.072Z" fill="#F6EFEC"/>
<path d="M170.483 101.901C170.596 102.198 170.626 102.383 170.575 102.434C170.422 102.537 170.299 102.444 170.186 102.178C169.038 100.979 167.317 100.825 165.022 101.717C159.376 103.91 154.232 110.181 149.58 120.55C146.178 128.133 143.34 135.725 141.065 143.339C141.045 143.882 140.973 144.537 140.86 145.306C140.676 146.71 140.337 147.417 139.846 147.417C139.62 147.427 139.467 147.314 139.374 147.089C139.262 146.792 139.292 146.238 139.477 145.439C139.559 144.681 139.887 143.595 140.45 142.191C140.583 141.146 140.45 139.291 140.061 136.617C139.426 132.323 139.077 129.741 139.005 128.891C138.596 124.505 138.954 120.642 140.071 117.302C140.881 114.771 141.885 112.875 143.073 111.605C142.858 111.728 142.51 111.974 142.049 112.353C141.075 113.193 139.999 114.597 138.821 116.585C136.69 120.161 134.517 124.731 132.284 130.295L129.507 137.16C128.287 140.121 127.191 142.55 126.207 144.455C122.262 152.212 116.944 157.397 110.233 159.999C108.112 160.819 106.216 160.963 104.546 160.399C102.876 159.846 101.646 158.534 100.847 156.475C100.038 154.384 99.9044 151.935 100.458 149.118C101.001 146.576 101.943 144.281 103.286 142.232C105.304 139.158 107.702 136.77 110.479 135.08C109.751 134.793 109.178 134.076 108.737 132.948C107.846 130.653 108.173 128.092 109.7 125.243C110.899 123.02 112.61 120.929 114.823 118.952C117.733 116.41 121.135 114.341 125.029 112.752C130.081 110.713 135.235 109.514 140.481 109.166C142.346 109.053 144.569 109.217 147.151 109.668C147.51 109.719 147.664 109.853 147.592 110.068C147.49 110.191 147.367 110.232 147.244 110.201C146.475 110.078 145.881 110.099 145.492 110.252C143.637 111.277 142.438 113.859 141.905 117.999C141.516 120.745 141.465 123.767 141.752 127.057C142.12 131.955 142.028 136.094 141.475 139.486C142.971 134.096 145.42 127.6 148.822 120.017C153.832 108.828 159.12 102.168 164.683 100.057C165.78 99.6367 166.876 99.565 167.993 99.8622C169.243 100.139 170.083 100.805 170.493 101.87L170.483 101.901ZM145.133 109.965C139.118 109.627 132.56 110.939 125.47 113.921C122.027 115.376 118.984 117.281 116.34 119.638C113.338 122.333 111.278 125.253 110.171 128.389C109.516 130.243 109.454 131.852 109.987 133.215C110.284 133.983 110.674 134.455 111.176 134.649C112.456 133.922 113.85 133.328 115.346 132.856C116.781 132.416 118.195 132.395 119.598 132.815C121.002 133.225 121.965 134.117 122.488 135.469C122.642 135.869 122.754 136.34 122.816 136.893C122.877 137.631 122.754 138.062 122.457 138.174C122.426 138.184 122.385 138.174 122.334 138.164L122.232 137.293C122.181 136.863 122.078 136.443 121.924 136.053C121.443 134.803 120.572 133.983 119.332 133.594C118.092 133.205 116.801 133.215 115.469 133.614C111.381 134.895 107.743 138.031 104.556 143.011C103.296 145.07 102.343 147.212 101.718 149.435C100.97 152.13 100.95 154.395 101.657 156.219C102.353 158.012 103.439 159.159 104.905 159.651C106.38 160.153 108.03 160.04 109.854 159.333C114.834 157.397 119.721 152.028 124.506 143.205C126.822 138.943 128.779 134.988 130.388 131.34C132.335 126.913 133.933 123.501 135.183 121.103C137.602 116.605 139.764 113.552 141.649 111.933C142.745 111.01 143.903 110.355 145.123 109.955L145.133 109.965Z" fill="#F6EFEC"/>
<path d="M173.394 136.032H165.832V143.666H163.629V136.032H156.098V133.993H163.629V126.36H165.832V133.993H173.394V136.032Z" fill="#F6EFEC"/>
</g>
<defs>
<clipPath id="clip0_54_1374">
<rect width="312.06" height="268" fill="white"/>
</clipPath>
</defs>
</svg>
