<svg width="782" height="780" viewBox="0 0 782 780" fill="none" xmlns="http://www.w3.org/2000/svg">
<g clip-path="url(#clip0_95_557)">
<path d="M702.372 223.011C705.965 293.893 716.308 362.798 756.342 424.03C773.305 449.976 782.955 478.488 781.415 510.284C779.952 540.361 767.172 557.761 737.89 564.51C723.853 567.744 709.25 569.771 694.853 570.028C648.403 570.849 609.626 589.147 577.136 621.072C536.845 660.67 504.869 776.744 417.897 779.619C327.332 778.181 259.966 667.24 197.81 611.115C195.654 609.164 193.422 607.316 191.343 605.289C164.576 578.933 132.959 563.612 95.1831 559.506C77.0393 557.53 58.7671 552.705 41.5985 546.341C11.0081 534.998 -5.54463 503.047 1.61538 471.02C4.18169 459.522 8.10815 447.589 14.3956 437.786C30.2041 413.175 46.2949 388.487 64.9006 365.98C84.2506 342.576 93.9256 316.271 98.006 287.015C101.676 260.813 105.166 234.611 109.221 208.46C110.555 199.914 114.815 176.92 117.638 168.734C139.683 118.434 218.751 103.087 242.977 109.991C281.651 121 292.738 155.03 312.627 174.123C331.463 192.164 353.662 203.661 379.325 208.46C406.554 213.542 433.089 211.488 457.29 197.399C476.665 186.133 495.476 173.712 513.749 160.727C550.088 134.935 589.224 118.562 634.673 124.85C664.827 129.033 703.425 153.977 702.398 193.653C702.142 203.43 702.372 213.234 702.372 223.011Z" fill="#701114"/>
</g>
<path d="M406.274 387.524C473.76 389.293 529.32 442.855 534.467 510.065C543.613 629.459 404.964 700.598 313.558 623.255C224.104 547.542 271.83 396.118 388.948 387.547C390.924 387.409 399.265 388.052 399.978 387.018L402.942 210.41C410.938 208.181 407.997 216.384 407.905 220.888C407.629 237.547 407.905 254.436 407.721 270.934C407.354 309.812 406.848 348.691 406.274 387.524ZM394.164 393.59C381.733 395.061 363.397 396.577 352.919 403.815C342.441 411.053 333.365 425.345 329.229 437.662C343.222 432.675 357.514 428.516 372.151 425.828C376.793 416.384 380.906 406.687 388.121 398.829L394.164 393.59ZM421.508 399.84C421.209 399.541 418.613 397.289 418.13 396.899C413.81 393.567 410.662 393.199 405.194 393.59C409.399 402.299 412.799 411.559 414.569 421.095H434.904C431.503 414.132 427 405.355 421.508 399.817V399.84ZM455.653 405.883C446.37 401.77 436.719 397.841 426.655 396.347L430.745 400.782C435.433 407.4 439.477 414.385 442.992 421.692L468.498 424.978L455.676 405.883H455.653ZM407.928 421.692C408.824 420.773 401.954 399.978 399.955 397.473C390.419 403.654 384.766 414.224 380.423 424.449L407.928 421.692ZM334.743 412.317C334.376 411.949 328.562 416.039 327.735 416.591C316.016 424.794 304.527 436.214 296.324 447.933C295.543 449.036 289.178 458.641 289.615 459.123C299.242 452.046 309.628 446.278 320.451 441.246L326.563 426.425L334.743 412.294V412.317ZM488.627 428.516C484.95 425.024 480.24 421.163 476.126 418.153C475.161 417.441 469.739 413.374 469.026 413.971L477.298 426.908C478.011 427.436 488.535 430.883 489.706 431.021C491.866 431.274 489.201 429.045 488.649 428.516H488.627ZM436.834 427.735H416.2L422.013 464.109L448.599 462.708C446.347 454.665 444.762 446.347 442.073 438.443C441.338 436.26 439.615 430.883 438.649 429.206C438.328 428.654 437.386 427.85 436.834 427.712V427.735ZM415.097 464.638L409.628 428.539C408.227 427.551 378.723 430.814 377.39 432.147C372.703 445.474 369.233 459.376 367.785 473.461C383.388 469.601 399.104 466.384 415.12 464.638H415.097ZM486.076 467.395C483.342 455.47 478.263 444.279 473.139 433.25C464.431 430.01 454.941 430.033 445.91 428.287L455.768 463.305L486.053 467.395H486.076ZM369.968 433.25C355.01 436.237 340.235 440.488 326.218 446.462C321.094 461.076 318.797 476.747 317.694 492.165C331.297 485.272 345.773 480.24 360.341 475.644C362.983 461.398 365.235 446.968 369.968 433.25ZM521.301 478.953C518.199 470.336 514.27 461.995 509.422 454.229C506.848 450.116 504.137 445.29 500.001 442.717C498.024 441.499 482.514 434.652 481.664 435.456C486.306 446.393 490.511 457.515 493.888 468.935C503.332 471.393 512.409 474.978 521.278 478.976L521.301 478.953ZM310.961 495.382C311.926 480.01 314.04 464.615 318.222 449.771C308.433 454.665 297.887 460.456 289.592 467.671C282.951 473.461 280.86 476.563 278.309 485.019C275.001 496.072 273.369 508.25 273.346 519.716C284.927 510.226 297.657 502.23 310.938 495.382H310.961ZM422.795 532.951C423.576 533.732 441.637 528.379 444.118 527.597C445.979 527.023 454.803 524.449 455.194 523.209C454.642 505.791 453.217 488.305 450.207 471.095L449.426 470.244L422.243 470.727C423.645 491.384 423.829 512.271 422.795 532.974V532.951ZM488.167 474.679C477.919 472.381 467.441 470.773 456.917 470.727C460.042 487.409 461.558 504.39 461.88 521.393C468.337 518.636 475.001 516.131 481.342 513.052C483.181 512.156 493.498 506.894 494.072 505.975C494.762 504.849 492.923 495.313 492.556 493.176C492.142 490.879 488.948 475.254 488.19 474.679H488.167ZM415.649 471.807C399.081 473.048 382.813 476.724 366.774 480.722C364.729 490.534 365.074 500.69 363.902 510.617V541.2C381.457 540.833 399.058 538.466 416.131 534.514C417.096 513.65 417.027 492.671 415.649 471.784V471.807ZM496.002 476.77L501.218 501.54C508.227 497.335 514.086 491.729 520.198 486.398C520.198 484.927 499.15 476.816 496.002 476.77ZM359.513 483.365C344.876 486.88 330.929 493.222 317.234 499.426C315.855 512.891 316.683 526.609 317.694 540.097C331.067 541.338 344.394 542.119 357.859 541.752C356.365 522.289 358.02 502.781 359.513 483.365ZM525.161 491.085C524.196 490.833 524.058 491.476 523.507 491.913C521.094 493.774 518.498 496.784 516.062 498.783C511.581 502.436 506.595 505.401 502.138 509.077C502.39 519.601 504.183 530.079 503.7 540.649C511.49 534.652 519.463 525.851 523.599 516.798C524.702 514.408 527.138 508.089 527.367 505.699C527.827 501.242 525.276 495.612 525.138 491.085H525.161ZM310.524 503.195C302.643 506.963 294.968 511.559 287.799 516.522C285.341 518.222 274.955 525.529 273.944 527.436C273.668 527.965 273.53 528.47 273.691 529.068C285.662 533.962 298.3 537.156 311.076 539.017L310.524 503.218V503.195ZM495.428 513.121L462.11 528.516L459.651 566.545C460.524 567.487 480.354 556.917 482.583 555.63C487.501 552.781 492.303 549.679 496.807 546.186L495.428 513.144V513.121ZM500.391 580.309C500.92 580.837 508.847 575.437 509.927 574.702C512.271 573.117 518.843 568.705 520.06 566.683C521.6 564.109 523.484 557.055 524.334 553.884C527 543.751 528.493 532.974 528.447 522.496L519.922 534.629C514.752 539.661 509.973 545.198 503.792 549.059C503.126 559.514 502.505 570.038 500.368 580.332L500.391 580.309ZM455.263 531.297L422.289 540.166L417.831 579.757C429.688 577.689 441.131 573.76 452.413 569.762L455.24 531.274L455.263 531.297ZM317.119 580.86L311.627 545.865C299.035 543.199 286.145 540.833 274.196 535.686C275.621 545.52 275.966 553.792 282.721 561.582C291.453 571.646 304.711 576.908 317.119 580.86ZM415.649 541.752C398.76 544.739 381.664 547.542 364.477 547.795C365.097 560.663 366.039 573.599 368.406 586.283C382.537 585.502 396.784 584.583 410.57 581.274L415.649 541.752ZM361.719 586.375L357.905 548.622L318.245 546.738L324.426 582.423C336.604 585.295 349.219 586.076 361.719 586.398V586.375ZM496.531 554.964L481.687 563.512L458.847 574.266C457.285 580.332 456.411 586.788 454.987 592.97C454.137 596.669 453.149 600.368 451.954 603.976C458.824 601.655 465.557 598.852 472.128 595.819C475.024 594.486 490.947 586.926 492.096 585.525C493.383 583.939 494.991 572.289 495.336 569.509C495.933 564.707 496.186 559.812 496.508 554.987L496.531 554.964ZM319.21 588.144C306.917 584.606 294.876 580.516 284.674 572.588C291.292 588.673 302.689 604.573 315.74 616.108C316.384 616.683 319.945 619.854 320.221 619.923C321.186 620.107 321.623 618.176 323.392 618.291C324.035 618.337 329.78 621.347 329.78 620.221C325.437 609.812 321.853 599.105 319.187 588.144H319.21ZM451.402 577L416.843 586.467L409.031 617.188C421.048 615.12 432.606 610.961 444.118 607.147C447.496 597.358 449.449 587.133 451.402 576.977V577ZM513.604 580.309L498.507 589.707L491.062 611.145C494.854 609.629 515.005 581.733 513.626 580.309H513.604ZM409.582 588.029C396.324 590.396 382.905 592.234 369.417 592.441L375.529 623.232L401.241 619.325L409.582 588.029ZM362.776 592.464C350.391 592.924 338.167 591.2 325.92 589.684C329.045 600.92 332.675 612.018 337.615 622.588C339.66 624.495 368.291 625.07 369.394 623.829L362.753 592.464H362.776ZM489.936 594.624C476.586 600.92 463.213 607.216 449.334 612.386C445.29 623.99 439.913 635.203 432.147 644.739C443.107 642.28 454.091 637.662 463.879 632.17C465.993 630.975 474.495 626.012 475.598 624.633C476.425 623.622 476.081 622.335 476.563 621.209C477.229 619.647 480.837 615.649 482.101 613.535C483.365 611.421 490.809 595.589 489.913 594.647L489.936 594.624ZM421.025 647.381C422.933 644.073 426.425 641.89 428.838 638.948C434.353 632.262 438.282 623.002 441.499 615.005L406.32 625.231C402.046 633.618 397.91 644.118 388.695 648.071L396.117 649.151C404.481 649.472 412.776 648.369 421.025 647.381ZM382.078 644.21C390.189 642.257 395.129 634.031 397.473 626.586L377.689 629.918L382.078 644.21ZM370.979 630.539C361.099 631.182 351.149 631.366 341.361 629.895C342.533 631.113 342.694 634.192 343.567 635.111C344.601 636.237 356.182 640.902 358.433 641.706C362.34 643.107 371.439 646.232 375.207 646.416C376.379 646.462 376.149 646.095 375.92 645.152C374.863 640.488 372.289 635.249 370.979 630.539Z" fill="white"/>
<defs>
<clipPath id="clip0_95_557">
<rect width="781.57" height="671.219" fill="white" transform="translate(0 108.429)"/>
</clipPath>
</defs>
</svg>
