<svg width="991" height="114" viewBox="0 0 991 114" fill="none" xmlns="http://www.w3.org/2000/svg">
<g clip-path="url(#clip0_54_1395)">
<path d="M549.084 19.4623C549.701 31.4979 551.448 43.2105 558.243 53.6022C561.12 58.0054 562.764 62.849 562.5 68.2503C562.25 73.3581 560.078 76.3082 555.102 77.4678C552.725 78.0255 550.229 78.3631 547.793 78.4071C539.896 78.5539 533.321 81.6508 527.802 87.0815C520.962 93.8038 515.532 113.516 500.752 114.015C485.37 113.765 473.921 94.934 463.368 85.3936C463.001 85.0707 462.619 84.7478 462.267 84.4102C457.717 79.9336 452.345 77.3357 445.931 76.6311C442.849 76.2936 439.752 75.4716 436.831 74.4002C431.635 72.4774 428.817 67.0467 430.035 61.6014C430.476 59.6493 431.136 57.6238 432.208 55.9506C434.894 51.7675 437.624 47.5697 440.779 43.7536C444.067 39.776 445.711 35.314 446.401 30.3384C447.017 25.8911 447.619 21.4291 448.309 16.9965C448.529 15.5435 449.263 11.6392 449.733 10.2449C453.461 1.68792 466.891 -0.909997 471.015 0.264202C477.59 2.12824 479.469 7.91117 482.845 11.1549C486.045 14.2225 489.817 16.1746 494.176 16.9819C498.799 17.8478 503.305 17.4956 507.415 15.1031C510.703 13.1804 513.903 11.0815 516.999 8.87988C523.179 4.49132 529.813 1.71727 537.533 2.78873C542.656 3.49325 549.217 7.73504 549.04 14.472C548.996 16.1306 549.04 17.7891 549.04 19.4623H549.084ZM474.185 23.8656C463.295 25.0985 452.375 36.0185 461.122 57.6238C466.714 71.861 488.819 91.9398 498.887 91.9398C507.459 91.9398 513.139 84.6157 518.614 78.0695C526.422 65.9313 530.107 61.8509 535.288 49.1109C537.387 43.9737 537.93 37.0019 535.42 31.9822C533.35 27.8285 528.741 24.2325 520.317 24.2766C502.792 24.438 504.7 38.044 499.137 37.8826C494.426 37.8826 491.05 33.6848 489.171 31.1163C485.487 26.0966 481.597 23.1464 474.2 23.8656H474.185Z" fill="#8A171A"/>
<path d="M66.3862 91.9398H55.3635L11.0228 24.7169V91.9398H0V7.39752H11.0228L55.3635 74.503V7.39752H66.3862V91.9545V91.9398Z" fill="#8A171A"/>
<path d="M96.1817 16.4829V44.7077H126.946V53.793H96.1817V82.8691H130.586V91.9545H85.1589V7.39752H130.586V16.4829H96.1817Z" fill="#8A171A"/>
<path d="M211.253 31.9821C208.904 27.0504 205.514 23.2343 201.081 20.5336C196.634 17.833 191.467 16.4826 185.582 16.4826C179.696 16.4826 174.383 17.833 169.657 20.5336C164.93 23.2343 161.217 27.1238 158.516 32.1582C155.816 37.2073 154.465 43.0489 154.465 49.6684C154.465 56.288 155.816 62.1003 158.516 67.1053C161.217 72.1103 164.93 75.9705 169.657 78.6711C174.383 81.3718 179.696 82.7221 185.582 82.7221C193.816 82.7221 200.597 80.2563 205.939 75.3393C211.267 70.4077 214.379 63.7588 215.26 55.3486H181.589V46.3807H227.016V54.8643C226.37 61.8067 224.183 68.1767 220.47 73.945C216.757 79.7132 211.869 84.2779 205.807 87.6391C199.745 90.9855 193.009 92.6588 185.582 92.6588C177.744 92.6588 170.596 90.8241 164.138 87.1547C157.68 83.4854 152.572 78.3776 148.815 71.8314C145.057 65.2853 143.178 57.9025 143.178 49.6684C143.178 41.4344 145.057 34.0222 148.815 27.4467C152.572 20.8712 157.68 15.7341 164.138 12.0647C170.596 8.39535 177.744 6.56067 185.582 6.56067C194.55 6.56067 202.475 8.77697 209.389 13.2242C216.287 17.6715 221.321 23.9241 224.477 31.9967H211.267L211.253 31.9821Z" fill="#8A171A"/>
<path d="M285.99 91.9397L265.882 57.4183H252.555V91.9397H241.532V7.51483H268.788C275.173 7.51483 280.56 8.60097 284.963 10.7879C289.366 12.9749 292.654 15.925 294.841 19.6384C297.028 23.3518 298.114 27.5936 298.114 32.3638C298.114 38.1761 296.441 43.3132 293.094 47.7458C289.748 52.1931 284.713 55.1286 278.02 56.5816L299.215 91.9544H286.005L285.99 91.9397ZM252.555 48.5824H268.788C274.762 48.5824 279.239 47.1147 282.233 44.1645C285.227 41.2143 286.71 37.2808 286.71 32.3491C286.71 27.4175 285.242 23.4693 282.292 20.7246C279.341 17.9799 274.835 16.6002 268.788 16.6002H252.555V48.5824Z" fill="#8A171A"/>
<path d="M365.087 73.1671H328.262L321.481 91.9396H309.856L340.385 7.99908H353.11L383.508 91.9396H371.883L365.102 73.1671H365.087ZM361.932 64.1992L346.667 21.5611L331.402 64.1992H361.932Z" fill="#8A171A"/>
<path d="M619.17 27.4467C622.884 20.8712 627.947 15.7194 634.376 12.006C640.79 8.29257 647.923 6.42853 655.761 6.42853C664.964 6.42853 673.007 8.64483 679.862 13.0921C686.731 17.5394 691.736 23.836 694.877 31.9967H681.667C679.319 26.9036 675.957 22.9994 671.554 20.24C667.151 17.4953 661.882 16.1157 655.747 16.1157C649.611 16.1157 644.562 17.4953 639.88 20.24C635.198 22.9847 631.529 26.8889 628.857 31.9233C626.186 36.9724 624.865 42.8874 624.865 49.6684C624.865 56.4494 626.201 62.247 628.857 67.296C631.529 72.3451 635.198 76.2346 639.88 78.9793C644.562 81.724 649.846 83.1037 655.747 83.1037C661.647 83.1037 667.151 81.7533 671.554 79.038C675.957 76.3374 679.319 72.4331 681.667 67.3547H694.877C691.721 75.4274 686.716 81.6653 679.862 86.0685C672.993 90.4718 664.964 92.6734 655.761 92.6734C647.923 92.6734 640.805 90.8387 634.376 87.1693C627.962 83.5 622.884 78.3922 619.17 71.8461C615.457 65.2999 613.593 57.9171 613.593 49.6831C613.593 41.449 615.442 34.0369 619.17 27.4614V27.4467Z" fill="#8A171A"/>
<path d="M776.277 7.51483V91.9397H765.255V53.6608H722.25V91.9397H711.227V7.51483H722.25V44.5755H765.255V7.51483H776.277Z" fill="#8A171A"/>
<path d="M806.073 16.4829V44.7077H836.837V53.793H806.073V82.8691H840.477V91.9545H795.05V7.39752H840.477V16.4829H806.073Z" fill="#8A171A"/>
<path d="M868.218 82.9864H897.778V91.9544H857.195V7.51483H868.218V82.9864Z" fill="#8A171A"/>
<path d="M926.354 87.287C919.896 83.6176 914.788 78.4805 911.031 71.905C907.273 65.3295 905.395 57.9173 905.395 49.6833C905.395 41.4492 907.273 34.0371 911.031 27.4616C914.788 20.886 919.896 15.7489 926.354 12.0796C932.812 8.41018 939.96 6.5755 947.798 6.5755C955.636 6.5755 962.901 8.41018 969.359 12.0796C975.817 15.7489 980.91 20.8567 984.624 27.4028C988.337 33.949 990.201 41.3758 990.201 49.6979C990.201 58.0201 988.337 65.4469 984.624 71.993C980.91 78.5392 975.817 83.647 969.359 87.3163C962.901 90.9857 955.709 92.8204 947.798 92.8204C939.887 92.8204 932.812 90.9857 926.354 87.3163V87.287ZM963.723 79.1116C968.449 76.3669 972.162 72.448 974.863 67.3549C977.564 62.2619 978.914 56.3762 978.914 49.6686C978.914 42.961 977.564 36.9726 974.863 31.9235C972.162 26.8745 968.464 22.9849 963.782 20.2402C959.099 17.4955 953.772 16.1159 947.798 16.1159C941.824 16.1159 936.496 17.4955 931.814 20.2402C927.132 22.9849 923.433 26.8891 920.733 31.9235C918.032 36.9726 916.682 42.8876 916.682 49.6686C916.682 56.4496 918.032 62.2619 920.733 67.3549C923.433 72.448 927.147 76.3669 931.873 79.1116C936.599 81.8563 941.912 83.236 947.798 83.236C953.683 83.236 958.997 81.871 963.723 79.1116Z" fill="#8A171A"/>
</g>
<defs>
<clipPath id="clip0_54_1395">
<rect width="990.187" height="114" fill="white"/>
</clipPath>
</defs>
</svg>
