<svg width="782" height="672" viewBox="0 0 782 672" fill="none" xmlns="http://www.w3.org/2000/svg">
<g clip-path="url(#clip0_93_485)">
<path d="M702.372 114.582C705.965 185.464 716.308 254.369 756.342 315.601C773.305 341.547 782.955 370.059 781.415 401.855C779.952 431.932 767.172 449.332 737.89 456.081C723.853 459.315 709.25 461.342 694.853 461.599C648.403 462.42 609.626 480.718 577.136 512.643C536.845 552.241 504.869 668.315 417.897 671.19C327.332 669.752 259.966 558.811 197.81 502.686C195.654 500.735 193.422 498.887 191.343 496.86C164.576 470.504 132.959 455.183 95.1831 451.077C77.0393 449.101 58.7671 444.276 41.5985 437.912C11.0081 426.569 -5.54463 394.618 1.61538 362.591C4.18169 351.094 8.10815 339.16 14.3956 329.357C30.2041 304.746 46.2949 280.058 64.9006 257.551C84.2506 234.147 93.9256 207.842 98.0061 178.586C101.676 152.384 105.166 126.182 109.221 100.031C110.555 91.4854 114.815 68.4913 117.638 60.3048C139.683 10.005 218.751 -5.3415 242.977 1.56188C281.651 12.5714 292.738 46.6007 312.627 65.694C331.463 83.7352 353.662 95.2322 379.325 100.031C406.554 105.113 433.089 103.059 457.29 88.9704C476.665 77.7043 495.476 65.2834 513.749 52.2979C550.088 26.5064 589.224 10.1334 634.673 16.4208C664.827 20.6039 703.425 45.5485 702.398 85.2236C702.142 95.0013 702.372 104.805 702.372 114.582Z" fill="#701114"/>
<path d="M472.61 296.079C475.44 293.027 478.395 290.405 481.031 287.631C482.654 285.855 484.18 283.899 485.623 281.818C487.288 279.14 488.592 276.13 489.161 272.356C489.396 268.153 485.831 267.043 482.89 270.164L470.557 285.758C469.932 246.289 451.883 276.629 462.15 297.356C462.025 304.292 435.888 307.442 429.131 309.564C402.786 317.888 390.495 324.575 360.32 320.413C344.81 318.277 332.685 306.942 317.355 304.362C315.26 301.49 339.025 269.429 324.32 263.117C317.314 261.05 309.822 275.728 309.045 281.61C305.355 279.778 304.439 266.169 297.711 273.383C295.019 276.269 294.978 279.584 295.893 283.025C301.97 291.363 307.172 300.963 303.704 311.243C303.968 311.326 302.594 313.601 302.844 313.698C280.009 351.364 289.387 391.735 263.167 429.262C256.147 439.306 242.329 448.504 240.775 461.697C253.317 444.051 271.643 429.165 280.453 409.284C291.593 384.119 289.831 354.832 300.805 329.236C300.805 329.236 301.692 326.073 303.357 323.451C305.022 320.829 307.02 320.954 307.02 320.954C310.627 320.468 308.962 325.643 309.059 328.154C309.961 350.587 299.126 369.025 295.186 390.889C291.995 408.563 288.277 432.869 286.557 450.585C286.335 452.888 284.642 458.021 288.346 457.535C297.489 435.255 296.518 409.617 301.36 386.713C304.356 372.562 313.762 353.154 315.052 340.376C316.273 328.293 311.182 319.553 313.235 308.524C329.217 312.686 342.23 323.798 358.642 326.226C397.792 332.011 430.324 316.32 466.367 304.389C464.092 318.942 474.067 328.182 478.839 340.571C485.97 359.091 490.159 401.252 502.271 413.391C505.989 417.123 513.827 418.371 516.061 424.434C516.394 424.073 521.277 424.143 522.234 421.326C514.285 414.653 504.671 412.212 501.161 401.002L481.891 331.29C490.492 351.073 506.308 365.126 517.725 382.384C527.506 397.159 533.915 418.593 547.081 429.609C548.718 430.982 551.229 435.047 553.296 431.676C538.951 416.554 532.167 396.535 520.653 379.443C513.883 369.385 504.199 360.312 497.776 350.573C489.341 337.796 482.501 320.912 474.663 307.455M313.693 283.122C314.927 278.266 318.826 271.399 323.543 269.193L315.26 296.079C311.279 295.746 313.124 285.342 313.693 283.108V283.122Z" fill="white"/>
<path d="M420.086 449.531C400.414 452 376.441 458.895 357.823 459.686C335.39 460.657 313.124 451.501 290.441 455.483L290.469 461.67C308.56 456.759 329.772 466.137 347.377 465.998C374.055 465.804 409.598 454.095 438.482 451.348C471.694 448.185 485.359 457.023 513.133 430.733C515.88 428.139 515.853 424.67 516.075 424.407C505.226 429.248 496.222 437.725 484.999 441.97C465.174 449.462 441.409 446.826 420.086 449.503V449.531Z" fill="white"/>
<path d="M519.723 120.861C528.422 129.296 536.954 137.356 540.519 149.564L543.321 148.857C545.721 137.217 551.853 141.948 556.418 149.273C560.899 156.487 563.146 167.489 562.48 175.979C577.297 172.677 582.485 202.768 578.198 213.104C583.456 211.161 585.537 213.686 588.215 218.015C593.931 227.226 593.459 236.605 588.021 245.789C587.022 247.467 575.216 262.478 574.147 255.236C573.662 251.948 583.623 243.222 585.399 238.353C588.298 230.376 587.563 222.19 581.486 216.128C578.906 215.961 571.512 231.166 568.945 227.823C569.694 218.597 574.619 212.146 574.772 202.449C574.841 197.885 570.582 178.906 565.726 179.073C558.582 184.858 563.437 195.915 559.692 203.295C558.721 205.224 558.401 206.209 556.501 204.128C553.574 200.923 557.749 187.355 557.985 181.889C558.554 168.973 554.836 157.861 550.424 146.041C548.538 144.459 543.89 150.577 543.377 152.228C541.407 158.638 549.328 170.915 540.491 171.817C537.98 154.392 531.557 136.676 518.447 124.565C514.937 137.55 520.833 152.159 520.139 164.353C519.321 178.823 506.863 198.232 517.933 211.966C521.402 216.281 527.936 219.374 531.696 223.37C539.992 232.165 546.582 253.183 536.204 261.909C535.927 258.649 532.847 255.32 530.475 253.211C510.151 235.231 503.242 254.002 495.348 270.441C517.822 269.234 516.324 290.349 522.081 305.069C529.781 324.769 552.422 341.708 573.523 343.539C579.336 344.039 586.453 341.68 591.766 342.013C610.232 343.178 623.994 370.398 637.367 370.911C647.592 371.299 632.234 359.271 631.679 356.913C639.643 359.84 647.106 366.402 656.138 363.891C658.843 351.918 649.937 354.221 644.748 348.006C650.367 347.978 663.158 351.017 666.501 345.218C671.523 336.533 648.189 337.601 643.541 336.616C623.924 332.496 603.226 323.409 590.296 307.705C595.887 306.276 599.452 312.713 604.502 314.794C611.258 317.555 622.176 317.679 624.66 309.578C626.283 304.25 620.095 306.845 621.233 302.031C636.591 305.11 645.622 299.464 648.757 284.315C641.46 286.063 634.121 287.381 626.63 288.157C623.841 288.449 624.243 286.326 625.048 285.605C626.019 284.745 638.408 283.108 642.487 280.888C653.03 275.186 655.597 262.437 647.217 253.641C646.066 253.572 633.622 267.778 629.182 264.296C647.148 250.103 661.077 227.795 657.969 204.252C655.444 202.255 644.235 212.951 641.973 215.018C619.957 235.315 596.719 262.728 571.331 278.779C569.347 280.028 568.39 281.235 565.615 280.444C565.56 277.85 565.532 276.351 567.405 274.34C571.137 270.316 581.639 264.226 586.356 260.245C595.304 252.684 604.169 244.776 612.867 236.91C620.248 230.237 646.552 201.27 653.682 200.118C671.176 197.288 660.827 228.142 657.345 236.924C656.013 240.281 651.102 246.677 651.019 249.049C650.935 251.421 656.762 256.804 657.081 263.255C657.553 272.883 653.044 274.881 652.24 279.833C651.685 283.246 653.335 286.187 651.879 291.542C650.089 298.118 644.29 303.016 638.255 305.762C635.841 306.858 632.248 306.512 630.639 307.51C629.182 308.412 627.975 313.157 625.964 315.557C622.704 319.469 618.764 319.178 615.781 322.535C622.398 325.379 629.071 328.32 636.105 330.138C643.999 332.177 666.002 333.703 670.372 337.851C677.183 344.302 667.223 354.055 659.717 353.139C658.663 354.138 665.821 362.198 659.606 367.11C656.429 369.621 648.979 370.092 645.539 367.692L643.527 369.579L643.111 375.073C621.399 380.081 610.19 349.366 591.267 347.701C586.009 347.243 578.934 349.56 573.162 349.116C547.65 347.118 524.315 327.571 516.199 303.751C512.551 293.041 512.925 276.171 498.233 273.702C493.641 272.925 488.633 276.601 485.54 271.954C504.782 264.004 495.584 234.662 523.469 243.722C528.463 245.345 532.833 250.311 536.69 253.627C538.382 244.415 534.595 234.399 528.463 227.546C524.287 222.87 517.212 219.777 513.397 214.671C500.98 198.107 513.966 179.725 514.729 162.536C515.242 150.855 510.858 139.978 512.689 127.714C513.425 122.803 514.091 117.961 519.709 120.902L519.723 120.861Z" fill="white"/>
<path d="M275.528 120.68C266.316 128.546 257.284 136.066 252.97 148.024L250.223 147.137C248.558 135.372 242.149 139.701 237.127 146.734C232.188 153.657 229.261 164.492 229.399 172.996C214.819 168.765 207.743 198.467 211.364 209.052C206.245 206.777 204.011 209.177 201.056 213.325C194.772 222.163 194.661 231.555 199.503 241.058C200.391 242.806 211.239 258.524 212.752 251.366C213.445 248.119 204.039 238.783 202.583 233.816C200.196 225.673 201.445 217.557 207.896 211.883C210.476 211.883 216.9 227.518 219.674 224.341C219.508 215.087 214.999 208.331 215.457 198.648C215.665 194.083 221.117 175.424 225.945 175.882C232.715 182.097 227.166 192.835 230.44 200.437C231.3 202.421 231.536 203.434 233.575 201.478C236.697 198.467 233.381 184.65 233.492 179.197C233.742 166.268 238.139 155.419 243.286 143.89C245.27 142.434 249.529 148.829 249.932 150.508C251.499 157.028 242.815 168.779 251.583 170.249C255.19 153.019 262.709 135.733 276.554 124.468C279.232 137.647 272.434 151.853 272.365 164.076C272.267 178.559 283.477 198.717 271.574 211.73C267.842 215.809 261.127 218.486 257.118 222.246C248.281 230.5 240.387 251.074 250.195 260.425C250.681 257.178 253.955 254.057 256.466 252.115C277.872 235.453 283.588 254.626 290.441 271.523C268.078 268.901 268.258 290.072 261.585 304.403C252.665 323.589 228.997 339.058 207.827 339.557C201.986 339.696 195.036 336.88 189.722 336.894C171.215 336.894 155.774 363.197 142.401 362.864C132.176 362.615 148.255 351.572 148.963 349.255C140.833 351.669 132.967 357.759 124.116 354.679C122.174 342.554 130.914 345.426 136.477 339.543C130.872 339.169 117.915 341.389 114.946 335.395C110.479 326.419 133.702 328.944 138.391 328.265C158.23 325.393 179.456 317.624 193.357 302.766C187.877 300.99 183.895 307.191 178.735 308.939C171.826 311.27 160.908 310.701 158.951 302.46C157.661 297.05 163.668 300.019 162.85 295.149C147.34 297.258 138.669 291.057 136.505 275.727C143.677 277.933 150.919 279.709 158.341 280.957C161.116 281.429 160.838 279.278 160.089 278.515C159.173 277.6 146.91 275.172 142.983 272.716C132.814 266.363 131.066 253.474 139.973 245.22C141.124 245.22 152.653 260.175 157.301 256.998C140.264 241.71 127.765 218.569 132.357 195.263C134.992 193.417 145.522 204.807 147.631 207.013C168.316 228.655 189.791 257.484 214.125 275.089C216.026 276.462 216.9 277.725 219.73 277.1C219.952 274.52 220.077 273.022 218.329 270.885C214.846 266.64 204.761 259.884 200.293 255.625C191.831 247.523 183.479 239.06 175.308 230.667C168.371 223.536 143.927 192.973 136.893 191.378C119.621 187.452 128 218.902 130.928 227.878C132.051 231.305 136.546 238.006 136.477 240.378C136.408 242.75 130.262 247.759 129.54 254.168C128.458 263.74 132.842 266.016 133.328 271.01C133.661 274.451 131.843 277.281 132.953 282.719C134.327 289.406 139.806 294.636 145.647 297.757C147.978 299.006 151.599 298.881 153.139 299.977C154.54 300.976 155.442 305.776 157.301 308.301C160.311 312.408 164.265 312.38 167.026 315.904C160.242 318.318 153.388 320.842 146.271 322.216C138.253 323.756 116.208 323.895 111.588 327.751C104.388 333.772 113.711 344.122 121.258 343.678C122.243 344.746 114.599 352.335 120.481 357.62C123.492 360.325 130.9 361.269 134.479 359.091L136.366 361.102L136.435 366.61C157.786 372.978 170.91 343.026 189.902 342.554C195.174 342.415 202.097 345.19 207.882 345.107C233.464 344.718 257.992 326.683 267.592 303.418C271.907 292.957 272.587 276.101 287.417 274.562C292.051 274.076 296.809 278.058 300.194 273.618C281.493 264.476 292.508 235.772 264.11 243.056C259.032 244.36 254.357 249.049 250.292 252.115C249.182 242.82 253.594 233.053 260.142 226.602C264.609 222.204 271.851 219.554 275.985 214.699C289.415 198.939 277.609 179.78 277.942 162.577C278.164 150.882 283.227 140.311 282.173 127.95C281.757 123.011 281.396 118.142 275.597 120.708L275.528 120.68Z" fill="white"/>
<circle cx="272.5" cy="255.5" r="1.5" fill="#D9D9D9"/>
<circle cx="514.5" cy="255.5" r="1.5" fill="#D9D9D9"/>
<path d="M449.278 393.188L449.149 393.541C449.125 393.607 446.665 400.343 437.626 401.537L437.345 401.569L436.875 401.622C436.382 401.657 435.887 401.671 435.39 401.664C433.687 401.656 432 401.414 430.372 400.943C428.636 400.453 426.976 399.701 425.459 398.721C423.682 397.591 422.131 396.118 420.91 394.396C417.147 388.978 416.359 382.028 418.814 375.905C419.618 373.954 420.801 372.182 422.279 370.672C423.538 369.377 424.977 368.273 426.57 367.406C428.051 366.583 429.651 365.968 431.298 365.58C431.894 365.428 432.506 365.327 433.11 365.248L433.496 365.204C434.582 365.081 435.663 365.022 436.752 365.025C439.081 365.057 441.337 365.753 443.28 367.044C443.68 367.305 443.636 367.944 443.19 368.481C442.911 368.819 442.597 369.129 442.248 369.401C441.693 369.824 441.137 369.95 440.937 369.677C439.815 368.176 438.28 367.029 436.527 366.393C435.469 366.006 434.333 365.87 433.218 366.007L433.082 366.023C430.936 366.298 428.907 367.141 427.197 368.466C425.926 369.466 424.861 370.696 424.046 372.089C423.11 373.622 422.4 375.277 421.93 377.011C420.453 382.251 421.088 387.855 423.701 392.632C424.547 394.216 425.621 395.669 426.877 396.964C427.994 398.148 429.319 399.108 430.792 399.797C432.777 400.713 434.973 401.066 437.155 400.83L437.249 400.819C446.03 399.781 448.398 393.351 448.422 393.285L448.551 392.932L449.266 393.178L449.278 393.188Z" fill="white"/>
<path d="M401.909 356.093C402.058 356.382 402.111 356.567 402.065 356.625C401.92 356.747 401.784 356.667 401.639 356.409C400.331 355.32 398.561 355.363 396.326 356.535C390.83 359.42 386.316 366.4 382.775 377.498C380.187 385.612 378.173 393.672 376.735 401.688C376.777 402.243 376.78 402.919 376.754 403.715C376.728 405.166 376.465 405.925 375.964 405.982C375.736 406.018 375.567 405.921 375.447 405.702C375.298 405.413 375.265 404.846 375.36 404.01C375.356 403.229 375.565 402.085 375.977 400.59C375.992 399.51 375.642 397.637 374.937 394.959C373.794 390.66 373.141 388.07 372.97 387.213C372.046 382.794 371.965 378.818 372.717 375.288C373.249 372.617 374.053 370.57 375.116 369.139C374.912 369.289 374.585 369.58 374.159 370.019C373.265 370.987 372.331 372.541 371.361 374.702C369.603 378.589 367.919 383.494 366.287 389.418L364.251 396.73C363.352 399.887 362.515 402.486 361.734 404.541C358.612 412.895 353.795 418.789 347.261 422.215C345.195 423.295 343.281 423.66 341.516 423.278C339.751 422.908 338.347 421.714 337.295 419.709C336.23 417.674 335.811 415.195 336.049 412.262C336.309 409.611 337.004 407.165 338.134 404.923C339.835 401.56 342.001 398.851 344.634 396.809C343.86 396.601 343.193 395.937 342.614 394.84C341.441 392.605 341.479 389.959 342.705 386.881C343.669 384.479 345.17 382.152 347.196 379.883C349.866 376.959 353.091 374.458 356.873 372.391C361.782 369.732 366.892 367.916 372.195 366.955C374.081 366.625 376.364 366.535 379.046 366.696C379.417 366.707 379.589 366.825 379.541 367.052C379.451 367.189 379.33 367.245 379.201 367.228C378.405 367.192 377.802 367.281 377.423 367.483C375.653 368.74 374.73 371.508 374.665 375.786C374.586 378.627 374.883 381.711 375.554 385.028C376.496 389.973 376.88 394.199 376.708 397.717C377.609 392.056 379.353 385.157 381.942 377.043C385.752 365.069 390.368 357.676 395.79 354.884C396.858 354.33 397.966 354.13 399.138 354.304C400.443 354.441 401.376 355.022 401.916 356.06L401.909 356.093ZM377.025 367.232C370.86 367.582 364.333 369.675 357.457 373.53C354.119 375.409 351.24 377.702 348.82 380.407C346.073 383.498 344.313 386.71 343.548 390.031C343.094 391.995 343.218 393.64 343.918 394.967C344.309 395.715 344.76 396.15 345.294 396.29C346.514 395.402 347.865 394.635 349.334 393.983C350.744 393.368 352.181 393.184 353.659 393.45C355.136 393.705 356.22 394.502 356.908 395.819C357.111 396.208 357.28 396.675 357.407 397.231C357.555 397.976 357.479 398.428 357.189 398.577C357.159 398.591 357.116 398.586 357.063 398.581L356.858 397.706C356.756 397.274 356.603 396.858 356.402 396.479C355.767 395.261 354.786 394.527 353.478 394.274C352.17 394.02 350.857 394.18 349.546 394.741C345.531 396.517 342.188 400.13 339.518 405.569C338.473 407.812 337.749 410.103 337.37 412.44C336.919 415.27 337.16 417.579 338.09 419.355C339.007 421.1 340.245 422.144 341.794 422.475C343.355 422.816 345.022 422.511 346.798 421.58C351.645 419.033 356.003 413.001 359.857 403.464C361.723 398.856 363.26 394.602 364.477 390.701C365.948 385.969 367.182 382.309 368.178 379.723C370.122 374.863 371.971 371.504 373.704 369.638C374.714 368.572 375.817 367.77 377.013 367.223L377.025 367.232Z" fill="white"/>
<path d="M408.815 390.515L401.114 391.388L401.996 399.162L399.752 399.416L398.871 391.642L391.201 392.512L390.966 390.435L398.635 389.565L397.754 381.792L399.997 381.537L400.879 389.311L408.58 388.438L408.815 390.515Z" fill="white"/>
</g>
<defs>
<clipPath id="clip0_93_485">
<rect width="781.57" height="671.219" fill="white"/>
</clipPath>
</defs>
</svg>
