<svg width="782" height="672" viewBox="0 0 782 672" fill="none" xmlns="http://www.w3.org/2000/svg">
<g clip-path="url(#clip0_93_502)">
<path d="M702.372 114.582C705.965 185.464 716.308 254.369 756.342 315.601C773.305 341.547 782.955 370.059 781.415 401.855C779.952 431.932 767.172 449.332 737.89 456.081C723.853 459.315 709.25 461.342 694.853 461.599C648.403 462.42 609.626 480.718 577.136 512.643C536.845 552.241 504.869 668.315 417.897 671.19C327.332 669.752 259.966 558.811 197.81 502.686C195.654 500.735 193.422 498.887 191.343 496.86C164.576 470.504 132.959 455.183 95.1831 451.077C77.0393 449.101 58.7671 444.276 41.5985 437.912C11.0081 426.569 -5.54463 394.618 1.61538 362.591C4.18169 351.094 8.10815 339.16 14.3956 329.357C30.2041 304.746 46.2949 280.058 64.9006 257.551C84.2506 234.147 93.9256 207.842 98.006 178.586C101.676 152.384 105.166 126.182 109.221 100.031C110.555 91.4854 114.815 68.4913 117.638 60.3048C139.683 10.005 218.751 -5.3415 242.977 1.56188C281.651 12.5714 292.738 46.6007 312.627 65.694C331.463 83.7352 353.662 95.2322 379.325 100.031C406.554 105.113 433.089 103.059 457.29 88.9704C476.665 77.7043 495.476 65.2834 513.749 52.2979C550.088 26.5064 589.224 10.1334 634.673 16.4208C664.827 20.6039 703.425 45.5485 702.398 85.2236C702.142 95.0013 702.372 104.805 702.372 114.582Z" fill="#701114"/>
<path d="M549.758 157.599C548.928 158.951 549.569 163.648 551.822 164.051C551.656 159.853 555.096 159.378 556.899 157.812C557.776 157.053 557.682 155.725 558.369 154.895C560.813 152.001 565.012 152.76 567.147 155.654C567.431 157.267 566.506 156.745 565.415 156.674C563.707 156.555 561.809 155.535 559.888 156.057C560.196 160.28 557.682 160.802 554.028 160.422L556.899 169.508L555.12 170.646C553.245 170.267 554.005 166.756 552.249 167.064C548.952 167.634 551.443 170.362 549.26 172.093C544.017 169.816 548.216 165.475 548.24 162.272C548.24 160.09 546.84 158.785 547.007 156.745C547.291 153.305 550.256 154.729 552.178 152.404L553.151 155.606C552.818 157.053 550.019 157.148 549.735 157.623L549.758 157.599Z" fill="#F6EFEC"/>
<path d="M572.366 151.55C571.678 151.075 572.342 147.897 568.997 147.92C566.34 147.92 566.032 150.364 564.442 150.814C562.734 151.289 558.464 150.032 556.211 150.909C555.546 147.541 557.563 145.097 560.979 145.002C563.28 144.931 564.158 146.426 566.055 146.592C569.139 146.877 574.192 143.674 575.616 147.944C576.588 150.886 574.311 152.902 572.366 151.55Z" fill="#F6EFEC"/>
<path d="M570.088 170.646C570.278 171.643 569.827 172.378 568.879 172.71C562.901 174.632 559.01 163.625 567.242 165.854C568.546 166.78 566.933 170.812 570.112 170.67L570.088 170.646Z" fill="#F6EFEC"/>
<path d="M468.533 332.741C466.896 333.216 465.663 333.572 463.884 333.429C458.878 333.05 449.579 329.136 443.814 327.855C432.831 325.411 420.614 323.181 409.488 321.26C407.472 320.904 396.133 318.864 395.445 319.576L394.021 331.223C407.353 333.287 420.994 333.809 434.326 335.849C439.497 336.632 447.183 337.842 452.022 339.313C454.774 340.143 458.665 341.424 453.896 343.298C447.136 345.955 434.017 341.756 426.402 340.831C415.039 339.431 403.558 338.767 392.218 337.201C391.198 337.439 385.149 353.143 384.366 355.586C384.129 356.298 383.299 356.274 384.485 357.175C395.611 358.077 406.665 360.141 417.744 361.161C420.827 361.446 424.125 360.924 427.233 361.161C434.254 361.73 447.634 364.814 453.968 363.035C456.103 362.442 456.34 358.741 458.997 358.978C462.626 375.56 440.944 368.515 431.597 367.756C425.999 367.305 419.475 367.59 414.09 367.02C403.297 365.858 392.337 362.086 381.33 362.632L378.649 368.135C393.499 368.657 408.041 370.413 422.63 373.117C433.59 375.157 453.92 381.704 464.334 378.549C473.349 375.821 471.285 359.88 472.186 352.787C472.305 351.767 472.566 350.699 473.633 351.696C480.204 370.341 477.571 386.71 454.3 385.286C428.229 383.673 403.059 370.602 376.253 373.591C375.731 373.71 373.288 379.949 370.465 381.111C369.279 381.586 358.58 382.535 357.299 382.25C356.398 382.06 352.839 380.139 354.571 379.095L368.116 376.557C374.759 361.137 383.963 344.887 387.996 328.495C389.68 321.639 389.68 315.638 390.344 308.687C382.801 304.963 373.857 307.453 366.1 305.532C364.368 305.105 362.826 303.61 361.166 303.16C342.449 298.059 327.504 295.735 308.218 294.003C302.026 293.457 291.399 290.706 285.753 292.722C280.415 294.643 272.634 304.844 270.001 309.826C262.908 323.158 260.726 336.751 258.377 351.53C257.286 358.48 257.381 360.924 263.975 364.506C272.658 369.226 301.006 369.867 312.488 371.504C318.039 372.287 323.827 373.995 329.52 374.944C335.214 375.892 343.777 375.869 348.973 377.411C354.168 378.953 349.257 383.27 344.062 383.104C329.164 382.677 310.187 376.794 294.981 374.422C283.641 372.642 262.339 373.995 255.246 363.747C253.443 361.113 253.206 357.745 253.063 354.613C238.379 353.214 223.624 354.566 208.963 353.048C194.944 351.601 168.849 345.646 162.136 331.959C158.459 324.462 158.648 312.127 159.55 303.848C160.404 296.138 165.931 293.22 173.072 292.532C183.675 291.536 194.066 295.047 204.48 296.162C219.971 297.822 235.77 297.917 251.118 300.645C256.195 301.547 260.512 302.496 265.138 304.939C266.751 304.891 271.922 295.924 273.868 293.979C279.419 288.428 284.899 285.771 292.893 285.914C319.96 286.412 346.078 294.288 372.481 298.368C377.653 299.174 389.585 299.886 393.286 302.401C397.058 305.01 396.109 308.474 396.346 312.483L397.437 313.574C415.016 316.302 433.993 318.84 451.192 323.371C453.635 324.012 471.404 328.448 468.557 332.647L468.533 332.741ZM255.222 342.254C250.976 342.112 246.682 342.444 242.459 342.254C222.367 341.305 195.56 339.834 176.44 334.497C169.134 332.457 166.856 328.4 167.639 320.809C168.161 315.685 169.94 306.078 175.989 305.081C179.216 304.559 189.677 305.983 193.402 306.576C205.453 308.521 216.768 311.676 229.293 313.052C237.027 313.906 245.709 313.526 253.324 314.594C255.696 314.926 258.353 315.59 259.99 317.417L263.193 311.202C256.906 306.22 247.346 305.39 239.447 304.37C228.131 302.899 216.555 302.543 205.215 301.357C196.153 300.408 176.393 295.64 168.707 298.463C167.402 298.937 165.67 300.171 165.077 301.404C163.725 304.204 164.271 314.357 164.674 317.773C165.765 326.858 168.493 333.999 177.081 338.221C198.881 348.991 223.126 348.019 246.872 348.778C248.912 348.849 253.561 350.842 254.392 348.327L255.246 342.254H255.222ZM259.611 318.888C255.483 320.738 251.308 320.501 246.801 320.382C235.343 320.05 221.868 318.366 210.529 316.468C199.19 314.57 187.803 310.964 176.298 311.178C174.969 315.14 171.221 325.957 176.132 328.187C179.69 329.824 193.473 332.077 197.956 332.647C212.474 334.521 236.979 336.964 251.213 336.418C253.016 336.347 254.771 335.731 256.574 335.564L259.587 318.864L259.611 318.888Z" fill="#F6EFEC"/>
<path d="M380.144 204.213C379.076 204.047 379.147 205.471 378.91 206.253C377.772 209.788 374.166 227.295 371.722 228.292C371.414 228.434 369.919 228.576 369.919 227.936C371.272 220.653 372.434 211.876 374.522 204.783C378.578 190.953 383.584 195.151 395.089 191.759C397.271 191.119 399.122 189.079 401.779 188.889C404.103 188.723 406.357 190.122 408.966 190.36C415.87 190.976 424.884 189.458 432.404 189.577C448.583 189.838 468.082 191.474 484.237 193.254C498.162 194.796 512.016 197.785 525.87 199.825L527.388 199.161C531.208 195.009 535.003 189.316 538.917 185.473C540.791 183.646 546.129 180.562 547.22 179.163C548.762 177.217 548.359 172.924 552.89 173.493C555.784 173.849 553.862 178.522 556.923 179.779C557.871 180.159 558.631 178.902 559.485 178.902C562.829 178.878 565.961 188.509 559.651 187.323C557.8 186.611 557.539 184.856 557.658 183.029C555.57 183.124 553.649 184.168 551.49 183.765C549.521 183.409 549.165 181.037 547.457 181.891C545.583 182.816 543.543 187.133 541.978 188.889C534.6 197.144 527.032 205.115 520.106 213.75C515.48 219.514 512.941 226.702 504.401 229.098L505.801 235.622C499.088 232.775 501.317 225.706 500.511 220.107C499.396 212.398 494.889 203.193 485.684 204.166C480.608 204.712 477.548 215.861 476.195 220.273C475.555 222.361 475.816 224.876 474.914 227.034C474.013 229.193 466.754 236.642 468.533 238.54C473.8 237.567 478.805 236.713 484.214 237.092C488.009 237.377 506.133 242.311 507.224 241.861C510.142 240.627 511.162 234.364 512.491 231.755C513.819 229.146 518.872 221.72 520.817 218.897C526.511 210.5 532.038 205.376 538.68 198.069C540.839 195.697 547.884 185.639 549.972 185.259C550.968 185.069 551.372 185.307 551.063 186.35C550.684 187.584 543.377 196.931 541.978 198.449C541.1 199.398 536.166 202.102 537.209 203.525C538.775 203.834 540.459 204.308 541.835 205.115C544.136 206.467 551.727 212.54 553.649 214.485C556.258 217.118 567.028 234.483 566.411 237.496C566.174 238.682 565.534 238.492 564.585 237.875C560.339 235.147 558.298 226.584 554.005 223.262C553.72 232.277 559.342 245.917 555.286 254.149C554.74 255.24 553.934 256.355 552.534 256.142C551.538 249.76 551.775 243.331 550.968 236.879C550.328 231.826 548.81 221.886 547.054 217.427C545.204 212.753 538.348 207.084 533.2 207.89C530.093 208.365 526.653 220.297 524.067 223.428C521.79 226.18 516.713 228.031 516.761 232.751C524.803 233.487 534.007 236.096 540.815 240.485C545.512 243.521 549.521 247.08 548.904 253.2C543.33 247.127 539.605 242.976 531.397 240.414C528.598 239.536 516.595 236.998 514.317 237.353C513.084 237.543 507.604 242.596 508.007 242.976C515.669 243.758 519.821 251.184 525.775 254.813C531.018 258.016 537.541 258.039 542.333 261.598C537.826 265.654 531.729 264.017 526.629 261.977C517.638 258.371 514.626 251.041 503.785 247.554C492.943 244.067 480.133 241.078 468.889 245.134C464.643 246.676 445.712 259.652 442.984 256.829C442.984 255.833 442.794 254.837 443.364 253.912C443.767 253.247 451.619 247.625 452.995 246.724C459.021 242.81 465.853 242.62 465.639 233.463L460.539 236.381C460.491 226.655 468.699 234.697 470.597 224.899C471.878 218.233 471.807 212.089 475.579 205.779L484.641 199.161L448.512 196.195H415.965C416.486 198.378 416.273 201.841 416.866 203.739C416.985 204.118 420.543 210.452 420.78 210.784C422.156 212.635 427.944 215.149 421.112 216.739V221.792C415.538 220.961 420.97 213.892 420.97 213.394C420.97 212.967 419.072 211.591 418.574 210.808C417.317 208.815 416.795 206.064 414.517 205.02L412.928 208.91L403.202 221.815C401.019 215.719 405.384 214.865 408.326 211.615C412.809 206.609 413.474 202.648 413.782 196.266C404.578 197.713 387.261 196.812 390.558 211.093C391.127 213.607 394.543 215.41 394.78 218.186C387.498 215.6 382.089 204.878 388.209 198.473H383.821V219.277L384.983 220.25C388.257 219.372 392.076 220.7 395.326 221.626C399.715 222.883 411.979 229.217 414.921 229.098C415.443 229.098 419.096 225.35 421.089 224.401C426.189 221.934 433.875 221.056 439.331 222.93C441.205 223.571 447.847 227.319 445.902 229.857C442.344 228.363 440.968 224.852 436.793 224.662C431.74 224.449 426.521 229.881 421.065 229.857C420.662 231.541 421.397 231.067 421.99 231.518C428.514 236.642 437.86 239.868 432.736 250.282C429.273 248.455 431.479 245.277 429.083 241.884C424.552 235.456 417.317 234.697 411.173 232.04C402.49 228.292 389.135 219.158 380.879 228.007L391.483 231.257C401.541 233.819 408.065 246.273 416.819 249.025C419.974 250.021 424.552 249.855 427.161 251.824C430.506 254.339 423.911 253.935 422.346 253.722C406.404 251.492 392.835 230.64 374.023 232.822C367.073 233.629 341.121 246.724 333.411 250.638C332.557 251.065 331.394 251.326 331.205 252.441C333.008 252.536 334.858 252.275 336.685 252.441C387.711 257.28 433.495 259.842 484.048 270.185C489.883 271.371 495.861 273.933 501.792 274.36C519.75 275.689 536.189 265.251 552.581 259.724C554.455 261.479 543.069 267.979 542.001 268.501C527.625 275.404 511.613 281.311 495.458 278.488C471.38 274.265 448.037 266.959 423.532 264.207C385.719 259.961 346.34 259.842 308.194 256.07C305.347 255.786 297.329 254.932 295.194 253.722C294.245 253.2 293.7 252.915 293.937 251.682C304.304 251.8 314.504 250.235 324.823 251.682C333.031 244.114 344.418 239.963 354.571 235.242C350.325 233.178 342.425 235.408 343.896 228.268C345.818 219.04 364.036 224.282 364.06 226.465C361.806 231.589 350.728 227.604 349.471 230.118C349.068 231.518 351.274 231.802 352.08 231.874C354.381 232.087 356.018 231.375 357.75 231.423C359.102 231.47 360.193 232.68 362.044 232.514C362.993 232.419 375.21 229.122 375.731 228.647C376.419 228.031 377.012 224.875 378.317 223.191C379.124 222.171 380.689 221.744 380.761 221.602C381.354 220.653 380.096 219.538 380.096 219.135V204.166L380.144 204.213ZM522.596 204.949L494.106 200.56C495.339 202.41 497.901 202.529 499.609 204.166C505.137 209.409 505.564 220.012 503.595 226.844C504.828 226.37 505.943 225.611 506.916 224.686C509.81 221.863 514.412 216.264 517.116 212.967C517.804 212.137 523.118 205.423 522.573 204.925L522.596 204.949Z" fill="#F6EFEC"/>
<path d="M463.433 403.599C463.267 406.303 460.159 407.584 457.882 407.916C445.617 409.648 429.201 404.856 416.937 402.982C398.86 400.23 380.784 397.55 362.708 394.916C361.427 399.329 356.255 402.484 353.954 406.256C349.613 413.396 347.478 423.881 341.002 430.547C339.104 432.516 336.494 433.157 334.549 435.766C330.398 441.365 326.626 450.379 323.044 456.405C321.241 459.465 311.183 470.709 311.633 473.2C311.871 474.552 313.887 475.311 313.745 478.419C313.46 484.658 306.889 492.083 300.152 491.253C288.599 489.806 299.322 473.176 304.754 472.346C306.13 472.133 307.316 472.939 308.146 472.797C309.925 472.512 312.037 465.182 313.104 463.237C316.449 457.164 322.38 447.794 326.246 442.029C328.785 438.233 334.075 434.035 335.807 430.405C336.471 429.005 336.21 427.392 337.064 425.803C339.863 420.631 346.766 413.04 348.379 408.628C349.281 406.185 348.806 403.789 350.372 401.108C351.558 399.068 355.283 396.577 356.089 394.418C356.682 392.829 355.022 393.469 354.239 393.375C351.25 392.971 340.456 391.097 338.558 392.26C337.443 392.924 332.984 399.519 331.726 401.132C326.934 407.205 326.958 409.079 323.376 415.057C321.312 418.496 317.493 420.608 315.31 424.522C307.672 438.328 303.283 446.465 293.699 459.157C283.167 473.105 277.45 489.948 266.229 503.28L269.17 505.581C269.242 507.645 269.313 509.472 268.577 511.464C267.889 513.267 261.793 522.922 260.346 524.417C258.756 526.077 258.401 527.168 255.72 526.979C253.917 526.836 248.01 524.749 248.698 522.258C249.884 517.94 254.344 526.884 257.784 522.59C258.994 521.096 264.853 510.42 264.806 509.092C264.758 506.838 258.519 507.337 259.634 503.636C261.129 503.66 262.338 503.968 263.643 502.9C265.992 500.979 270.76 489.284 272.895 485.868C278.114 477.446 283.594 468.645 288.979 460.319C294.364 451.992 302.334 444.235 306.96 435.956C309.973 430.547 310.827 424.285 314.101 418.995C317.374 413.705 324.254 408.13 327.883 402.816C330.327 399.234 330.54 394.347 334.146 391.192L322.475 390.836C314.955 397.004 308.526 404.951 300.887 410.882C296.688 414.155 287.366 418.686 284.448 422.197C281.53 425.708 276.928 439.467 274.579 444.472C268.791 456.761 262.22 467.744 255.364 479.297C253.704 482.096 242.673 499.745 242.934 500.979C243.1 501.833 244.808 502.426 245.045 504.039C245.282 505.652 244.357 507.787 243.693 509.234C242.886 510.966 237.928 519.53 236.884 520.692C235.936 521.736 234.892 522.756 233.35 522.637V520.431C230.195 521.926 225.64 518.984 225.308 515.616C224.952 511.986 230.147 504.609 232.97 502.189C236.813 505.13 228.937 512.461 228.914 514.216C229.768 515.616 231.499 518.13 232.543 519.221C233.113 519.838 233.041 519.886 234.061 519.696C234.607 516.47 242.103 507.171 240.514 504.49C240.039 503.66 235.675 502.687 237.003 499.247L240.656 499.983C241.249 493.483 246.634 488.762 249.671 483.069C251.308 480.008 252.114 476.83 253.656 473.912C256.93 467.791 262.884 462.335 265.778 456.073C267.486 452.372 267.486 448.908 268.791 445.208C270.76 439.609 275.077 436.502 276.453 431.33C266.3 437.901 261.2 449.739 253.466 458.35C251.592 460.438 249.196 461.197 248.034 462.406C244.547 466.012 242.269 471.445 237.027 472.963C240.087 476.379 239.873 480.056 237.027 483.567C235.461 485.488 229.483 490.897 227.467 492.249C222.414 495.641 219.33 492.415 216.151 488.359C215.677 486.105 227.016 472.797 229.293 471.445C232.496 469.547 233.801 472.749 235.509 471.895C237.217 471.041 240.585 466.25 242.412 464.518C252.802 454.673 261.057 443.002 269.882 431.71C273.227 427.416 281.53 421.96 282.692 416.765C283.262 414.298 282.835 411.925 283.333 409.363C284.448 403.694 289.05 399.163 289.572 393.327C282.313 396.126 270.807 397.17 263.098 396.055C256.194 395.059 244.357 387.397 244.997 379.45C233.943 378.287 222.865 376.721 211.881 374.942C203.934 373.638 188.443 372.024 181.659 369.368C178.1 367.968 175.562 365.287 173.522 362.156C172.004 359.807 164.484 345.669 168.659 344.412C169.584 344.198 170.177 344.554 170.889 345.076C173.83 347.282 177.318 357.72 179.951 360.828C181.635 362.82 184.6 364.03 187.091 364.647C199.285 367.66 215.202 369.344 227.917 371.289C291.28 380.991 354.998 387.397 418.36 397.075C432.095 399.163 445.831 401.132 459.471 403.433C460.776 403.646 462.104 403.504 463.409 403.528L463.433 403.599ZM317.327 389.721L295.455 387.563C295.218 398.783 288.955 407.252 285.918 417.453L317.327 389.721ZM236.22 477.352L230.74 473.698L219.757 487.576L224.881 491.941C226.565 490.067 237.406 478.941 236.22 477.352ZM309.285 476.616L303.449 475.881L299.061 487.552L305.513 488.928C307.458 485.109 309.451 481.052 309.285 476.616Z" fill="#F6EFEC"/>
<path d="M602.256 326.905L603.703 327.261C602.801 335.706 594.475 340.19 591.296 330.559L589.28 332.385C591.842 336.679 593.218 341.02 598.365 342.871C604.604 339.265 608.424 328.969 608.756 322.09C608.827 320.619 607.949 319.243 608.02 317.772C608.376 311.391 609.373 304.915 608.827 298.415L612.385 309.802C615.493 339.976 602.019 358.077 570.444 354.637C567.858 354.352 565.059 352.051 563.304 352.549C562.379 352.81 557.895 357.151 556.448 358.171C553.317 360.354 537.802 371.503 535.477 371.266C532.394 370.958 531.682 367.352 532.821 364.885C524.138 372.239 518.777 382.653 511.043 390.908C513.605 396.53 512.562 406.992 518.943 409.435L518.231 411.286C512.514 415.034 507.865 397.029 508.719 393.375C508.315 392.901 504.947 395.107 504.662 395.582C503.879 396.791 506.868 406.47 505.872 408.985C507.343 415.034 507.58 424.902 515.954 419.256C527.815 411.238 525.443 392.142 527.72 379.877C527.934 378.691 527.222 378.62 529.144 378.762C532.109 397.195 526.653 428.817 502.48 428.484C497.379 428.413 483.62 425.045 479.517 422.174C473.728 418.118 474.464 413.682 475.816 407.253H466.327L467.56 404.477C478.923 399.97 492.089 396.151 502.503 389.746C510.996 384.551 519.394 370.863 526.582 363.414C529.12 360.805 532.655 356.511 536.664 357.721C539.842 358.67 537.66 363.58 539.724 362.679C545.963 357.436 553.127 353.214 559.745 348.374C566.364 343.535 582.424 332.196 587.145 326.123C596.634 313.953 597.227 296.636 602.327 283.612C603.086 281.667 607.237 274.954 608.922 274.147C615.92 270.755 613.026 282.07 613.026 285.557L611.65 286.411C609.776 285.961 608.756 282.094 607.641 283.802C604.557 288.475 602.801 301.784 601.07 307.904C599.765 312.506 595.4 321.378 595.021 325.245C594.404 331.508 600.666 334.663 602.185 326.905H602.256Z" fill="#F6EFEC"/>
<path d="M615.588 248.574C616.015 249.001 617.913 249.144 619.028 249.879C620.736 251.018 622.349 254.505 622.657 256.474C623.155 259.558 623.701 267.244 623.369 270.257C623.203 271.799 622.064 273.293 622.064 274.693C622.064 278.915 625.599 280.03 621.234 285.652C615.445 293.125 610.416 284.846 617.153 281.572C619.051 280.647 622.111 281.382 621.945 278.702C611.081 278.82 618.055 271.324 618.245 266.603C618.292 265.204 617.675 259.605 617.391 258.063C617.272 257.423 616.157 254.719 615.612 254.576C611.745 253.627 602.825 257.945 598.816 259.582C585.84 264.919 573.41 271.656 560.908 277.943C567.882 290.421 566.577 301.879 564.039 315.353C563.422 318.65 562.924 322.683 560.955 325.411C559.983 310.253 564.087 294.619 555.12 280.955C536.996 292.034 517.71 302.756 501.056 315.946C494.675 321.022 488.721 327.546 482.34 332.291C479.683 334.259 477.192 336.964 473.657 336.371C471.498 334.307 484.902 321.663 486.799 319.931C495.814 311.676 506.655 304.156 516.832 297.371C546.034 277.895 577.087 261.337 609.918 248.741C610.748 247.744 606.573 247.436 606.17 247.365C597.82 246.107 589.28 247.175 581.048 245.087C582.471 252.489 576.066 253.532 573.41 256.806C572.176 258.348 572.508 260.222 570.468 261.906C564.988 266.366 552.581 258.158 566.435 258.229C566.981 254.671 563.114 254.813 561.43 252.655C555.808 245.562 565.89 239.607 572.674 239.94C575.07 240.058 578.747 241.885 579.222 241.885C579.696 241.885 580.526 240.936 581.475 240.794C587.406 239.916 607.736 240.865 612.433 244.043C614.876 245.704 614.829 247.815 615.588 248.551V248.574ZM576.659 246.582C573.955 246.226 571.488 245.135 568.807 246.392C562.545 249.357 577.371 253.627 576.659 246.582Z" fill="#F6EFEC"/>
<path d="M483.881 290.42L483.526 291.867C478.354 289.732 472.874 287.882 467.347 286.862C439.165 281.691 408.492 279.627 379.883 275.713C366.147 273.839 352.507 271.3 338.772 269.355C325.037 267.41 304.564 267.196 292.3 262.499C290.877 261.954 289.406 261.337 288.836 259.771C289.667 258.68 300.294 259.581 302.334 259.771C325.559 262.025 349.993 266.817 373.312 269.877C403.534 273.862 444.099 275.475 472.352 284.798C476.67 286.222 479.92 288.428 483.881 290.444V290.42Z" fill="#F6EFEC"/>
<path d="M587.619 310.846C587.927 312.222 586.836 312.577 586.172 313.408C574.714 327.19 547.576 347.544 532.038 357.152C522.145 363.272 491.401 380.257 480.963 380.661C473.847 380.921 484.237 374.659 485.85 373.781C514.91 358.101 543.543 346.026 570.017 325.008C571.82 323.585 586.433 309.636 587.619 310.846Z" fill="#F6EFEC"/>
<path d="M185.099 292.579C185.431 290.657 188.443 288.688 189.962 287.597C216.009 268.596 246.421 262.428 276.572 253.674C279.205 252.915 288.196 247.625 289.501 252.18C290.426 255.382 285.99 256.497 283.902 257.351C269.669 263.211 252.019 265.156 237.003 270.351C219.33 276.471 202.701 286.198 185.099 292.579Z" fill="#F6EFEC"/>
<path d="M293.106 335.042L293.225 339.312C295.36 337.888 302.311 334.496 301.623 339.383C301.314 341.542 290.284 357.958 289.216 358.313C288.884 358.432 287.366 358.551 287.389 357.91C287.294 352.786 290.544 348.469 293.249 344.412C291.802 342.989 279.68 355.965 280.795 358.978L277.521 358.337C276.738 356.178 277.141 354.02 277.758 351.932C278.517 349.394 280.937 347.615 281.554 345.148C278.921 346.002 273.82 354.043 272.278 354.518C269.503 355.372 267.344 353.688 268.388 350.983C265.85 351.576 264.996 354.067 261.817 353.166C261.152 349.323 264.497 346.025 267.012 343.392C269.977 340.261 281.174 329.562 282.289 338.576H283.357C285.8 336.252 289.738 333.12 293.13 335.042H293.106Z" fill="#F6EFEC"/>
<path d="M362.115 366.877C362.66 367.541 365.697 368.561 365.554 368.917C362.399 372.784 355.852 370.625 355.33 365.643H354.263C352.531 367.636 350.514 369.059 347.739 368.561C346.624 368.372 345.794 367.233 344.726 367.114C343.422 366.972 341.547 367.921 339.65 367.873C333.98 367.707 334.265 361.326 337.776 357.934C340.717 355.087 347.502 353.877 345.699 359.286C345.557 361.468 339.27 362.251 340.005 363.817C340.527 364.932 342.141 365.098 343.255 364.932C346.126 364.505 346.6 357.981 353.148 357.151C354.69 356.961 356.872 357.815 357.418 357.507C357.868 357.246 362.257 351.315 364.084 349.916C365.626 348.729 369.54 346.808 369.777 349.916C370.014 353.023 357.536 361.326 362.115 366.877Z" fill="#F6EFEC"/>
<path d="M352.389 320.334C353.551 320.287 361.878 322.73 360.43 324.723C356.327 326.526 352.317 324.51 348.119 324.842C345.794 329.562 345.035 331.531 349.471 334.924C343.493 337.296 340.599 332.433 341.429 326.905C336.874 330.654 332.32 335.588 325.772 334.164L318.798 332.362C318.228 330.369 324.017 327.475 325.701 326.146C327.385 324.818 330.517 320.311 332.652 321.378C335 322.92 333.814 325.767 334.122 328.02C334.241 328.922 333.79 329.396 335.237 329.112C337.396 328.685 339.65 325.031 342.164 324.699C342.686 322.802 340.172 322.683 339.602 321.805C337.728 319.03 344.37 319.741 345.865 319.267C348.142 318.555 350.254 314.451 352.033 314.451C356.018 314.428 352.151 319.955 352.412 320.311L352.389 320.334Z" fill="#F6EFEC"/>
<path d="M279.324 328.352C283.309 322.089 297.163 313.881 299.772 307.524C300.555 305.602 296.855 307.168 295.811 307.215C294.032 307.286 283.973 307.832 286.251 304.226C290.521 302.328 295.692 302.186 300.531 300.976C303.758 300.17 315.571 294.429 310.661 303.799C309.309 306.361 299.393 317.653 296.878 319.954C292.276 324.2 285.847 328.826 279.347 328.328L279.324 328.352Z" fill="#F6EFEC"/>
<path d="M306.367 354.66C308.336 355.728 315.524 346.097 317.208 352.264C317.849 354.589 312.511 363.058 320.98 355.752C322.403 354.518 323.4 352.525 324.277 351.743C326.792 349.56 327.646 351.909 327.077 354.471C326.507 357.033 324.23 358.764 323.542 361.232C327.954 359.927 329.757 354.328 334.478 353.19C338.606 357.792 328.547 360.567 331.204 365.596C327.575 367.043 326.816 363.106 325.63 362.75C324.444 362.394 320.767 364.268 318.916 363.295L318.798 359.025L313.294 361.208L309.665 357.578C306.889 361.872 303.093 358.29 301.741 358.409C300.389 358.527 297.376 361.587 296.261 357.768C294.387 351.363 307.648 344.602 306.367 354.637V354.66Z" fill="#F6EFEC"/>
<path d="M577.395 177.193C576.968 174.513 578.296 171.192 577.229 168.226C576.612 166.542 575.663 164.099 574.999 162.414C574.216 160.493 572.793 158.785 572.271 156.745L568.855 162.438C566.933 163.292 562.806 162.082 563.565 159.378C564.039 157.67 567.289 157.789 568.57 157.029C571.63 155.298 575.592 150.292 574.453 158.904C584.417 158.192 574.667 167.989 581.76 168.392C581.214 164.217 580.123 162.557 581.76 158.216C573.718 156.436 582.21 150.79 585.793 155.274C588.568 158.761 584.322 161.56 584.725 161.821C591.462 160.706 594.428 168.392 587.643 170.575C590.324 167.159 588.141 164.668 584.725 163.268C585.935 167.017 583.468 168.274 582.685 170.361C581.262 174.181 583.278 175.746 577.419 177.146C577.632 178.569 581.523 178.451 581.072 180.42C580.408 183.314 573.149 182.484 573.765 178.261C574.667 176.624 576.28 177.407 577.419 177.146L577.395 177.193Z" fill="#F6EFEC"/>
<path d="M586.907 191.806C586.528 189.528 588.9 186.943 586.528 185.258C584.772 188.058 581.261 190.786 577.798 190.359C576.683 190.216 575.9 188.912 574.999 189.03C574.026 189.149 572.508 191.047 570.468 191.023C568.285 190.975 564.442 188.318 565.107 185.78C566.008 182.293 568.831 185.021 570.539 185.258C572.247 185.496 574.216 184.642 575.331 184.902C576.446 185.163 577.537 187.037 579.174 186.777C580.099 186.634 580.668 180.514 586.955 181.913C593.241 183.313 593.502 191.118 586.907 191.829V191.806Z" fill="#F6EFEC"/>
<path d="M304.897 324.723C308.407 325.624 313.081 317.037 315.833 318.911C317.564 320.073 312.559 329.918 311.468 331.721L308.74 331.128L307.814 327.664C305.893 329.396 301.67 331.246 299.725 328.827C295.502 323.56 311.989 310.347 304.897 324.723Z" fill="#F6EFEC"/>
<path d="M478.781 232.704C478.9 230.735 480.608 230.071 480.94 227.912C481.296 225.54 480.323 223.832 480.394 222.124C480.56 218.352 481.39 205.494 487.748 207.25C491.852 208.388 488.128 212.326 487.724 214.248C487.155 216.833 487.463 219.965 486.467 222.479C485.352 225.302 481.058 230.426 478.781 232.68V232.704Z" fill="#F6EFEC"/>
<path d="M571.559 198.377L571.18 196.194C572.461 194.178 576.351 196.337 575.971 199.468C575.924 199.871 572.793 206.039 571.559 204.616C569.424 200.322 557.231 193.893 565.747 190.691C565.889 191.782 570.254 199.729 571.559 198.401V198.377Z" fill="#F6EFEC"/>
<path d="M494.106 233.44C493.062 234.436 489.219 227.414 489.029 226.465C487.724 219.657 493.086 216.81 494.77 222.172C496.051 226.275 495.339 229.525 494.082 233.44H494.106Z" fill="#F6EFEC"/>
<path d="M562.26 179.21C561.524 178.404 561.287 176.838 561.335 175.747C562.616 176.292 563.754 177.407 565.32 177.241C566.554 177.123 570.302 172.521 570.847 177.621C571.274 181.654 564.3 181.464 562.236 179.21H562.26Z" fill="#F6EFEC"/>
<path d="M445.902 234.151C441.751 236.001 437.457 232.467 436.413 228.315C437.481 227.366 445.048 232.585 445.902 234.151Z" fill="#F6EFEC"/>
<path d="M584.701 180.111C585.958 178.071 584.393 175.699 584.796 174.062C586.409 167.657 593.455 179.66 584.701 180.111Z" fill="#F6EFEC"/>
<path d="M563.897 197.667C564.585 198.734 567.503 203.692 565.344 204.214C561.406 204.166 560.931 199.659 563.897 197.667Z" fill="#F6EFEC"/>
</g>
<defs>
<clipPath id="clip0_93_502">
<rect width="781.57" height="671.219" fill="white"/>
</clipPath>
</defs>
</svg>
