<svg width="479" height="411" viewBox="0 0 479 411" fill="none" xmlns="http://www.w3.org/2000/svg">
<g clip-path="url(#clip0_63_1396)">
<path d="M430.076 70.1609C432.276 113.563 438.609 155.755 463.123 193.249C473.51 209.136 479.418 226.594 478.475 246.064C477.58 264.48 469.754 275.134 451.824 279.267C443.229 281.247 434.288 282.489 425.472 282.646C397.03 283.149 373.286 294.353 353.392 313.901C328.721 338.148 309.141 409.222 255.886 410.982C200.432 410.102 159.182 342.17 121.123 307.804C119.803 306.61 118.436 305.478 117.163 304.237C100.773 288.099 81.4137 278.717 58.2826 276.203C47.1728 274.993 35.9844 272.039 25.4718 268.142C6.74067 261.196 -3.39487 241.632 0.989341 222.021C2.56074 214.981 4.96499 207.674 8.81492 201.671C18.4948 186.602 28.3474 171.485 39.7401 157.704C51.5885 143.372 57.5126 127.266 60.0112 109.352C62.2583 93.3076 64.3954 77.2636 66.8782 61.251C67.6953 56.0183 70.3038 41.9385 72.0324 36.9257C85.5307 6.12628 133.946 -3.2707 148.78 0.956368C172.461 7.69768 179.249 28.5345 191.427 40.2257C202.962 51.2726 216.554 58.3125 232.268 61.251C248.941 64.3624 265.189 63.1053 280.007 54.4783C291.871 47.5798 303.39 39.9743 314.578 32.023C336.829 16.2304 360.793 6.20485 388.623 10.0548C407.087 12.6162 430.72 27.8902 430.092 52.184C429.935 58.1711 430.076 64.1738 430.076 70.1609ZM160.078 86.0477C120.809 90.4791 81.4451 129.858 112.952 207.737C133.128 259.075 212.767 331.469 249.129 331.469C280.007 331.469 300.498 305.054 320.267 281.436C348.41 237.657 361.673 222.964 380.373 177.048C387.915 158.521 389.88 133.394 380.828 115.307C373.349 100.363 356.739 87.3677 326.364 87.5406C263.178 88.1534 270.045 137.181 250.009 136.568C233.007 136.568 220.86 121.42 214.056 112.18C200.762 94.0933 186.745 83.4549 160.062 86.0635L160.078 86.0477Z" fill="#AA1F33"/>
<path d="M325.624 219.412L325.373 219.915C325.326 220.01 320.533 229.611 306.893 229.862H306.469H305.762C305.023 229.831 304.285 229.768 303.546 229.674C301.016 229.375 298.549 228.731 296.208 227.757C293.709 226.735 291.368 225.337 289.278 223.624C286.826 221.644 284.768 219.192 283.244 216.427C278.561 207.737 278.561 197.271 283.244 188.581C284.768 185.816 286.826 183.38 289.278 181.384C291.368 179.672 293.693 178.273 296.208 177.252C298.549 176.277 301.032 175.633 303.546 175.335C304.457 175.209 305.385 175.162 306.296 175.146H306.877C308.512 175.146 310.13 175.24 311.749 175.429C315.206 175.869 318.443 177.283 321.114 179.53C321.664 179.986 321.491 180.929 320.737 181.652C320.266 182.107 319.747 182.516 319.181 182.862C318.286 183.396 317.437 183.49 317.186 183.05C315.772 180.63 313.682 178.666 311.183 177.425C309.674 176.67 308.009 176.277 306.327 176.293H306.123C302.886 176.34 299.728 177.252 296.962 178.933C294.903 180.206 293.112 181.856 291.666 183.789C290.016 185.91 288.681 188.251 287.691 190.75C284.611 198.293 284.611 206.731 287.691 214.274C288.681 216.772 290.032 219.114 291.682 221.251C293.143 223.199 294.95 224.849 297.025 226.122C299.822 227.819 303.027 228.715 306.312 228.731H306.453C319.684 228.668 324.289 219.507 324.336 219.412L324.587 218.91L325.609 219.397L325.624 219.412Z" fill="#AA1F33"/>
<path d="M261.449 156.274C261.622 156.73 261.669 157.012 261.591 157.091C261.355 157.248 261.167 157.107 260.994 156.698C259.234 154.86 256.594 154.624 253.074 155.991C244.415 159.354 236.527 168.971 229.393 184.873C224.176 196.502 219.823 208.146 216.335 219.821C216.303 220.654 216.193 221.66 216.02 222.838C215.737 224.991 215.219 226.076 214.465 226.076C214.119 226.091 213.883 225.918 213.742 225.573C213.569 225.117 213.616 224.268 213.899 223.043C214.025 221.88 214.527 220.214 215.392 218.061C215.596 216.459 215.392 213.614 214.795 209.513C213.82 202.929 213.286 198.969 213.176 197.665C212.547 190.939 213.097 185.015 214.81 179.892C216.052 176.011 217.592 173.104 219.414 171.155C219.084 171.344 218.55 171.721 217.843 172.302C216.35 173.591 214.7 175.744 212.893 178.792C209.625 184.276 206.293 191.285 202.868 199.817L198.609 210.346C196.739 214.887 195.058 218.611 193.549 221.534C187.499 233.43 179.344 241.381 169.051 245.372C165.798 246.629 162.891 246.849 160.33 245.985C157.768 245.137 155.883 243.125 154.657 239.967C153.416 236.761 153.211 233.005 154.06 228.684C154.893 224.787 156.338 221.267 158.397 218.124C161.493 213.41 165.17 209.749 169.428 207.156C168.312 206.716 167.432 205.616 166.757 203.887C165.39 200.367 165.893 196.439 168.234 192.07C170.072 188.66 172.697 185.455 176.091 182.422C180.554 178.525 185.771 175.351 191.742 172.915C199.489 169.788 207.393 167.949 215.439 167.415C218.299 167.242 221.709 167.494 225.669 168.185C226.219 168.264 226.454 168.468 226.344 168.798C226.187 168.987 225.999 169.049 225.81 169.002C224.632 168.814 223.72 168.845 223.123 169.081C220.279 170.652 218.44 174.612 217.623 180.961C217.026 185.172 216.947 189.808 217.387 194.852C217.953 202.363 217.812 208.712 216.963 213.913C219.257 205.647 223.013 195.685 228.23 184.056C235.914 166.897 244.023 156.682 252.555 153.445C254.237 152.801 255.918 152.691 257.631 153.147C259.548 153.571 260.837 154.592 261.465 156.227L261.449 156.274ZM222.573 168.641C213.349 168.122 203.292 170.134 192.418 174.706C187.138 176.938 182.471 179.861 178.417 183.475C173.812 187.608 170.654 192.086 168.957 196.895C167.951 199.739 167.857 202.206 168.674 204.296C169.13 205.474 169.727 206.197 170.497 206.496C172.461 205.38 174.598 204.469 176.892 203.746C179.092 203.07 181.261 203.039 183.414 203.683C185.566 204.312 187.044 205.679 187.845 207.753C188.081 208.366 188.254 209.089 188.348 209.937C188.442 211.069 188.254 211.729 187.798 211.902C187.751 211.917 187.688 211.901 187.609 211.886L187.452 210.55C187.374 209.89 187.216 209.246 186.981 208.649C186.242 206.732 184.906 205.474 183.005 204.877C181.104 204.28 179.124 204.296 177.081 204.909C170.811 206.873 165.233 211.682 160.345 219.319C158.413 222.477 156.951 225.761 155.993 229.171C154.846 233.304 154.814 236.777 155.898 239.574C156.967 242.324 158.633 244.084 160.88 244.838C163.143 245.608 165.673 245.435 168.47 244.351C176.107 241.381 183.602 233.147 190.941 219.617C194.492 213.08 197.493 207.014 199.961 201.42C202.946 194.632 205.398 189.399 207.315 185.722C211.023 178.823 214.339 174.141 217.23 171.658C218.912 170.244 220.687 169.238 222.557 168.625L222.573 168.641Z" fill="#AA1F33"/>
<path d="M265.915 208.617H254.318V220.324H250.939V208.617H239.39V205.49H250.939V193.783H254.318V205.49H265.915V208.617Z" fill="#AA1F33"/>
</g>
<defs>
<clipPath id="clip0_63_1396">
<rect width="478.57" height="411" fill="white"/>
</clipPath>
</defs>
</svg>
