<svg width="1194" height="139" viewBox="0 0 1194 139" fill="none" xmlns="http://www.w3.org/2000/svg">
<path d="M96.9714 53.5204L75.435 83.1287C65.7352 100.443 77.3004 93.6256 85.5588 86.4524C91.9519 80.9072 98.0737 73.7341 103.738 67.4258L105.433 68.2737C97.5649 75.362 82.0486 96.4575 71.5856 97.8989C58.9181 99.6456 70.4664 81.399 73.0609 77.397C78.3857 69.1724 85.7962 59.7269 93.1898 53.5373H96.9714V53.5204Z" fill="#701114"/>
<path d="M100.922 37.6481C106.077 37.1732 108.943 47.1953 101.482 47.3818C95.5974 47.5175 95.343 38.1568 100.922 37.6481Z" fill="#701114"/>
<path d="M455.408 17.2141L413.048 74.2092L413.455 75.4641C419.627 69.1728 436.415 52.0793 445.607 53.5038C450.897 54.3177 447.709 60.4395 446.234 63.3732C443.08 69.6476 426.987 86.8258 427.394 91.9131C427.479 92.9136 427.852 93.6089 428.835 93.965C431.667 94.8638 437.128 90.353 439.315 88.5555C455.357 75.3454 467.228 50.3835 492.071 54.5551C495.734 55.1656 498.837 58.218 502.873 58.1672C502.822 59.9138 484.372 81.0262 481.828 86.1645C480.404 89.0642 478.369 92.8458 482.931 94.0159C489.069 94.1516 510.809 67.5618 517.338 62.4405C524.358 56.9462 538.79 50.4005 547.235 55.3013C550.558 57.2175 550.355 60.626 546.098 60.236C544.725 52.8254 537.704 55.1826 532.77 57.5736C524.121 61.7283 503.382 81.3315 506.417 91.7436C509.147 101.121 526.8 89.4543 531.091 86.3001C543.741 76.9564 556.816 55.7761 572.824 53.5886C590.562 51.1636 583.965 68.3588 571.094 72.9543C563.955 75.498 559.19 74.294 552 73.2935C548.082 76.9733 537.959 93.8124 548.15 94.9147C559.529 96.1526 578.844 78.4995 586.322 70.3937C589.799 66.6291 595.632 57.2345 598.651 54.8095C600.465 53.3511 603.67 52.5202 605.366 54.7586L590.138 74.5823C591.291 75.6167 598.176 67.6466 599.448 66.5613C603.755 62.8645 615.659 53.0798 621.069 53.402C627.987 53.826 618.695 62.4066 617.101 65.5777C612.369 75.0571 620.865 78.1773 628.276 72.4965C632.38 69.3593 642.3 54.623 643.707 54.0464C644.572 53.6903 650.406 52.4354 649.439 54.7417C648.388 57.2345 641.096 64.9333 638.925 67.9179C637.535 69.8341 635.568 72.293 635.042 74.5992C641.893 68.7658 647.981 61.5078 655.968 57.0479C663.124 53.0459 673.638 49.9257 667.974 62.254C664.396 70.0715 649.439 84.4517 648.846 91.2009C648.778 91.981 649.117 93.7276 649.982 94.0837C655.493 95.2708 671.925 77.2955 676.148 72.9204C682.066 66.7987 685.237 59.9986 693.784 55.8778C704.925 50.4853 713.896 53.8599 712.081 67.3583C711.725 70.0037 708.707 75.3793 708.791 76.719C708.876 78.2113 711.182 79.2287 709.605 81.3484C710.708 82.2642 719.322 75.3963 720.628 74.1923C728.174 67.1887 739.248 47.4329 751.118 56.4714L748.15 60.236C742.554 53.3172 739.095 57.811 736.941 64.272C733.838 73.5648 733.923 84.4856 726.546 92.3201C730.531 95.3217 749.71 72.3947 752.831 69.1219C753.458 68.4605 754.526 66.9174 755.357 68.257C744.284 80.4327 729.497 102.512 710.419 97.0005C704.484 95.2877 702.432 91.6757 702.822 85.5709C691.393 99.6629 666.804 105.038 673.163 78.8217C666.566 83.519 657.138 97.3227 648.812 98.0858C644.759 98.4588 642.215 94.4399 643.046 90.6583C645.115 81.3993 662.446 65.8151 662.615 59.846C662.615 59.2864 662.378 57.7432 661.615 57.6754C654.73 56.217 632.973 79.3135 627.818 84.74C623.07 89.7256 618.254 100.053 610.47 97.0005L626.58 75.905C620.085 77.4651 612.437 79.8901 614.065 70.1902C614.964 64.8485 624.647 50.977 609.012 60.9313C600.177 66.5443 587.577 79.3474 580.387 87.2837C576.114 91.9979 574.045 100.019 566.414 97.0005L578.267 80.5345C570.857 86.6732 554.475 100.545 544.369 97.8653C536.365 95.7456 537.959 87.3345 540.146 81.3654C533.906 85.2318 528.191 91.2348 521.543 94.4907C506.214 101.986 495.598 97.6449 502.856 79.6866C497.209 84.3839 491.223 92.4388 484.813 95.8982C472.959 102.325 471.874 92.1336 477.436 83.9091L458.562 96.7461C446.641 100.155 447.251 89.5899 449.473 81.3654C443.996 85.4014 440.027 91.6588 434.16 95.2199C431.209 97.0174 424.986 100.239 422.798 95.7286C417.965 85.7235 443.47 63.8311 441.452 59.3881C440.807 58.5741 440.061 57.7771 438.925 57.7432C430.785 57.5228 402.534 89.2338 396.599 96.6105L389.341 97.3905L449.676 17.3837L455.425 17.1971L455.408 17.2141ZM553.712 72.0725C561.225 75.2776 579.912 67.5279 581.557 59.6425C582.117 56.9971 580.675 55.2165 577.894 55.1487C571.145 54.996 557.935 66.8156 553.712 72.0725ZM484.016 56.2509C474.503 57.7263 452.61 79.6527 453.153 89.2677C453.695 98.8828 465.905 90.4039 469.754 87.6228C479.488 80.5853 485.44 70.9194 493.597 62.4236C497.192 56.4205 488.306 55.5896 484.016 56.2509ZM707.079 56.0474C694.174 54.8943 673.468 80.6023 675.893 91.7266C678.471 103.563 699.956 86.6562 699.397 83.5869C699.244 82.7899 697.328 82.0437 696.921 80.0936C695.954 75.3624 698.261 70.7498 700.465 66.7648C701.482 64.9333 708.13 57.0819 707.079 56.0474ZM710.47 59.422C708.656 57.5567 702.992 65.3403 702.161 66.7478C699.414 71.3264 696.293 77.3634 701.584 81.3484C706.214 74.9554 711.437 67.7653 710.47 59.422ZM733.346 63.6445C731.82 63.3223 731.294 64.4585 730.362 65.3064C723.595 71.4281 720.73 77.126 711.895 82.3659C708.215 84.5535 703.924 83.536 704.552 89.3186C704.823 91.7775 706.994 94.1685 709.385 94.7112C718.712 96.797 723.121 86.7241 726.461 79.9918C729.056 74.7519 730.955 69.0032 733.363 63.6445H733.346Z" fill="#701114"/>
<path d="M1135.86 17.2141C1136.47 17.7398 1132.62 22.9967 1131.97 23.8954C1118.05 43.1765 1101.28 61.8131 1088.07 81.4671C1085.66 85.0452 1082.27 88.4029 1083.44 93.0663C1085.97 97.0174 1096.82 86.8597 1099.01 84.7739C1108.76 75.498 1125.12 50.6379 1140.32 53.7072C1152.98 56.2679 1145.17 75.7184 1140.08 82.2133C1148.95 82.4507 1154.37 74.1753 1160.41 69.1219C1161.09 68.5623 1162.11 66.9004 1162.95 68.274C1157.48 73.5478 1152.1 80.1783 1144.89 83.2138C1135.48 87.1819 1137.81 86.5205 1130.19 92.2014C1114.91 103.597 1101.91 95.7965 1108.72 77.1429C1102.79 81.9928 1089.87 98.3062 1082.02 98.1536C1074.16 98.001 1078.93 86.8088 1080.76 83.0442C1075.44 85.944 1063.28 101.613 1056.71 97.3057C1051.83 94.1007 1056.38 87.8263 1057.44 83.8751C1052.02 87.2667 1036.03 103.784 1030.02 95.186C1026.28 89.8104 1030.24 85.1639 1030.34 79.6696C1026.85 83.3494 1022.21 86.5714 1017.78 89.0981C1013.57 91.4892 1002.94 94.8638 1000.5 96.797C994.089 101.867 982.778 121.369 974.876 129.085C970.569 133.307 960.547 141.973 954.221 137.97C953.17 137.089 952.763 135.41 952.797 134.121C953.136 120.3 982.236 99.4085 995.107 96.0508L1001.11 87.2497C996.718 91.4553 982.914 102.63 977.861 94.7959C974.452 89.5051 978.318 84.8926 978.658 79.6526C971.569 86.4018 952.526 102.139 942.402 97.187C937.704 94.8807 937.789 89.1151 938.807 84.7061C939.18 83.0951 943.182 76.8207 942.622 76.278C936.06 77.3633 929.395 79.4661 930.972 70.1393C931.515 66.9004 938.502 57.3192 932.109 57.6923C926.021 58.0484 902.331 81.6537 897.277 87.2328C892.766 92.2184 891.325 99.3406 883.304 97.3735L915.151 55.2334C916.931 53.3511 920.475 52.4184 922.273 54.7417L907.045 74.5653C908.198 75.5997 915.083 67.6296 916.355 66.5443C920.662 62.8475 932.583 53.0628 937.976 53.385C939.282 53.4698 940.18 53.5716 940.943 54.7417C939.553 60.0155 928.971 67.8161 933.567 73.48C939.875 81.2297 949.829 67.1548 954.086 63.6106C956.901 61.2704 961.411 57.9976 964.667 56.4205C992.173 43.1256 986.746 73.5648 963.345 74.5653C958.834 74.7518 953.594 71.7164 950.643 74.5144C942.249 82.4846 938.366 100.358 956.748 93.2697C983.457 82.9764 994.784 42.6338 1028.72 57.5906C1029.51 57.9467 1030.21 57.0988 1029.89 58.9133L1004.48 93.1171C1011.5 90.2173 1018.59 86.9954 1024.75 82.5016C1040.25 71.1907 1049.39 49.7222 1073.16 54.6569C1076.54 55.3521 1079.4 58.1671 1083.27 58.0823C1079.13 66.0016 1061.45 82.2981 1060.56 90.3869C1059.53 99.9511 1073.18 87.4023 1075.66 85.13C1096.99 65.3572 1111.89 38.6826 1131.33 17.3328L1135.81 17.1632L1135.86 17.2141ZM953.679 72.0725C961.276 75.4132 979.743 67.3243 981.32 59.439C981.863 56.7766 980.743 55.2165 977.861 55.1486C973.028 55.0299 960.36 64.3906 956.663 67.8839C955.934 68.5792 952.78 71.1059 953.679 72.0725ZM1011.91 56.2509C1002.4 57.8619 978.946 80.9923 981.964 90.6922C983.813 96.6104 990.477 92.6932 993.937 90.6922C1001.62 86.1984 1017.34 70.0885 1021.32 62.254C1024.46 56.0983 1016.39 55.5048 1011.91 56.2509ZM1064.46 56.2509C1054.68 57.7601 1033.14 79.517 1033.45 89.4203C1033.75 99.3237 1046.78 90.0986 1050.2 87.6228C1059.94 80.5853 1065.89 70.9194 1074.05 62.4235C1077.64 56.4205 1068.75 55.5895 1064.46 56.2509ZM1138.18 56.2339C1131.58 57.1666 1120.09 68.7318 1116.52 74.3449C1113.98 78.3469 1107.72 91.3026 1112.62 94.8129C1121.17 98.4249 1128.33 90.0986 1133.8 84.723C1134.62 83.0951 1132.01 81.5858 1131.65 79.1948C1130.58 71.9708 1137.7 62.22 1142.62 57.3023C1141.4 55.5217 1139.98 55.9626 1138.18 56.217V56.2339ZM1143.91 58.5911C1139.04 64.0684 1128.77 74.6671 1136.28 81.3484C1138.28 81.3484 1149.32 61.8978 1143.91 58.5911ZM991.8 99.9511C990.596 99.0354 980.981 105.174 979.166 106.344C972.061 110.889 960.869 119.063 957.172 126.626C955.273 130.509 954.476 135.749 960.682 134.392C969.161 132.527 986.034 107.209 991.8 99.9511Z" fill="#F7F7F4"/>
<path d="M168.16 57.7432C169.686 59.422 147.556 83.9091 146.98 89.4712C146.708 92.1336 147.878 94.0837 150.778 94.1007C156.595 94.1346 173.671 75.3284 177.928 70.4106C180.793 67.1039 189.306 54.2499 192.342 53.5377C193.376 53.3002 194.614 53.5716 195.699 53.5037L196.005 55.4878C191.341 61.7961 170.483 85.1639 171.518 91.8792C171.941 94.6433 173.536 94.1176 175.553 93.3715C181.217 91.3026 198.769 72.8695 203.771 67.443C206.366 64.628 213.369 54.1651 216.049 53.5037C217.049 53.2494 218.338 53.5546 219.423 53.4868L219.729 55.4708C215.184 61.9996 194.19 84.9774 195.241 91.8623C196.005 96.8987 203.449 90.9296 205.467 89.3695C218.253 79.4152 226.953 62.7796 242.435 56.1322C269.517 44.4992 262.886 74.0227 239.773 74.6331C230.768 74.8705 230.158 69.5458 224.256 79.3813C219.881 86.6732 217.151 96.373 229.53 94.762C239.366 93.4732 258.765 75.0062 265.633 67.4261C268.414 64.3567 274.519 54.3008 277.928 53.5037C278.962 53.2663 282.438 52.8593 281.709 54.7417C280.42 58.0484 272.179 66.6291 269.534 70.4785C268.652 71.7503 267.176 72.9374 267.312 74.5992C272.993 69.8171 278.25 64.2211 284.321 59.8968C286.39 58.4385 300.481 49.0778 300.38 55.5895C298.565 60.8973 287.339 69.054 294.445 74.1583C301.55 79.2626 307.824 68.5623 312.674 64.4924C319.695 58.608 333.871 48.8064 342.299 56.0135C345.097 72.5982 323.917 76.8716 311.385 73.2765C307.248 79.3474 300.481 86.5375 305.162 94.0668C309.215 96.6104 319.779 93.0323 322.866 89.8273C325.019 87.5889 325.189 80.0596 329.615 77.9569L331.718 80.0596C331.463 81.2128 325.46 84.6213 327.054 87.2497C330.039 84.6552 333.481 82.332 336.398 79.6866C342.74 73.9548 358.596 52.9611 366.668 53.6564C371.382 54.0633 374.621 57.0479 369.432 60.236C363.717 53.5207 360.885 57.2853 358.596 63.8141C356.307 70.3428 355.594 78.2621 352.711 84.9774C351.541 87.7245 349.303 89.539 348.659 92.3371C359.325 87.928 366.583 77.5838 374.231 69.2745C374.824 68.6301 375.554 66.7986 376.622 68.274C365.311 81.0771 350.202 103.394 330.412 96.5935C326.817 95.3556 326.664 92.8967 323.68 91.4722C317.49 95.6947 300.414 103.58 298.006 91.7096C296.836 85.9101 300.736 80.5005 302.889 75.4471C300.414 77.4481 292.07 78.3978 290.612 75.4471C287.967 70.0715 297.616 59.0829 293.071 57.7601C287.848 56.2339 264.395 79.2626 260.105 83.8751C258.223 85.8931 250.1 96.8818 248.947 97.2379C248.235 97.4583 242.706 98.2384 243.605 96.1356L254.611 81.3654L234.855 95.0164C221 101.291 211.08 98.0179 216.473 81.3654C215.116 81.7893 214.845 83.5868 213.556 84.7909C209.757 88.335 198.921 98.2723 194.004 98.1705C184.897 97.984 191.731 84.8248 193.597 80.5345C187.373 85.13 182.828 92.5914 175.859 96.2034C164.158 102.257 163.174 91.0483 169.025 83.4851C169.211 82.9085 168.228 82.8746 167.77 83.0781C166.057 83.8582 161.055 90.1495 158.867 91.947C154.17 95.8134 150.049 99.1371 143.605 96.5765C143.554 107.972 130.819 135.172 117.761 134.613C105.297 134.087 119.813 114.535 122.9 110.16C127.919 103.02 133.871 96.2034 139.349 89.3864C139.688 88.3689 139.145 87.6737 138.094 88.1315C137.042 88.5894 133.108 92.6932 131.158 93.8802C119.644 100.901 111.657 97.2548 116.32 83.3325C120.983 69.4101 138.518 53.4359 153.339 53.5207C158.63 53.5546 163.14 56.7596 168.177 57.7432H168.16ZM257.867 56.1661C254.814 51.3501 238.009 63.8649 235.092 66.5782C234.278 67.3413 229.988 71.1229 230.87 72.0725C237.704 76.6511 262.971 64.2041 257.867 56.1661ZM313.912 72.0725C321.475 74.4805 333.38 69.8002 338.467 64.0515C340.57 61.6604 342.995 56.5731 338.721 55.3352C334.16 54.0125 321.696 63.2545 318.135 66.5782C317.321 67.3413 313.03 71.1398 313.912 72.0725ZM150.151 56.2509C140.553 57.8958 118.016 80.1953 120.017 90.0308C122.018 99.8663 137.839 86.9954 141.451 83.8751C144.385 81.3484 161.411 61.9826 161.428 59.846C161.462 55.6404 153.118 55.7422 150.151 56.2509ZM354.577 63.6445C350.812 64.4246 350.558 67.85 348.659 69.9697C346.166 72.7508 342.961 75.8541 340.197 78.4147C338.111 80.3479 327.648 87.9959 327.037 88.9625C324.426 93.1341 330.955 95.3386 334.601 94.8299C345.131 93.3715 350.558 71.8351 354.577 63.6275V63.6445ZM141.044 96.5765C139.247 96.3391 137.924 99.0863 136.839 100.409C133.278 104.767 119.389 122.369 119.05 126.643C118.524 133.087 125.274 129.983 128.292 127.338C136.313 120.334 139.518 106.632 141.044 96.5765Z" fill="#F7F7F4"/>
<path d="M796.056 53.5207C796.31 54.9113 795.395 55.7931 794.716 56.8275C790.002 64.1024 771.399 83.4851 771.433 91.1161C771.433 92.388 771.552 93.4054 772.841 93.999C775.113 94.6773 781.065 89.7256 782.931 88.1485C789.358 82.756 798.379 73.3613 804.111 67.0361C806.265 64.662 813.133 54.3347 815.286 53.6903C816.355 53.3851 820.391 52.6898 819.763 54.7586C815.151 62.7288 795.123 82.722 795.157 91.1161C795.157 92.371 795.276 93.4054 796.565 93.999C798.837 94.6773 804.789 89.7256 806.655 88.1485C811.725 83.8921 819.136 76.2611 823.596 71.2586C826.275 68.257 835.958 54.4025 838.162 53.6903C839.01 53.419 843.436 52.7068 842.639 54.7586C841.774 56.9971 827.225 73.497 828.259 74.6162C834.856 69.0371 851.05 52.1302 859.97 53.5038C865.464 54.3517 862.022 61.0839 860.462 64.0854C857.257 70.2241 841.757 86.368 842.605 91.8962C843.453 97.4244 850.338 91.2857 852.373 89.7934C860.92 83.5021 867.16 73.9549 875.283 67.0191C875.927 66.8835 875.826 67.8331 875.69 68.257C874.825 71.0551 854.103 91.3875 850.558 93.8803C844.25 98.3062 834.499 101.172 836.924 89.573C838.688 81.145 852.254 70.0715 855.578 62.5762C856.087 61.44 856.477 60.3717 856.154 59.1168C855.798 58.1332 855.103 57.7602 854.103 57.6923C847.862 57.2006 828.412 77.1768 823.596 82.2133C821.171 84.757 812.42 96.1017 810.453 96.9835C809.504 97.4075 803.602 98.391 804.552 96.1696C805.688 93.4902 811.589 89.2508 812.166 85.6049C807.74 91.3196 786.153 107.582 789.493 89.5899C790.121 86.1814 793.479 83.943 793.105 80.5345C788.103 85.13 776.606 98.798 769.483 98.018C759.071 96.8818 770.755 79.8731 773.35 76.0407C775.486 72.8865 789.561 54.3008 791.579 53.6903C793.004 53.2664 794.598 53.5546 796.056 53.5207Z" fill="#F7F7F4"/>
<path d="M42.7574 46.7544C43.9784 55.1993 37.0087 49.5354 31.4466 49.6202C12.6743 49.8916 -5.25007 79.1098 11.4533 91.0311C27.4954 102.478 41.723 86.9274 49.1166 73.802C61.5297 51.7908 59.2913 23.2 81.4381 6.39484C103.483 -10.3255 123.833 8.7011 104.619 29.4913C101.177 33.2221 90.3749 40.6326 85.4402 40.8531C82.5913 40.9887 81.4042 38.3772 83.4052 37.0545C84.1853 36.5458 92.1554 35.4605 95.0043 34.2734C104.67 30.2205 112.369 18.1296 105.45 8.36195C98.5316 -1.40574 86.3898 4.61428 80.0476 11.7705C59.41 35.1213 70.2121 76.3287 37.0596 93.897C13.5222 106.378 -10.7953 88.8097 5.07722 64.56C12.5047 53.2153 29.0894 45.0586 42.7405 46.7713L42.7574 46.7544Z" fill="#F7F7F4"/>
<path d="M1167.11 87.3851C1169.53 92.2351 1167.47 98.6621 1161.28 97.0172C1157.46 92.4894 1161.06 85.842 1167.11 87.3851Z" fill="#F7F7F4"/>
<path d="M1179.79 87.4022C1181.47 89.9458 1180.95 95.5928 1178.01 96.8477C1169.55 100.46 1171.23 84.3159 1179.79 87.4022Z" fill="#F7F7F4"/>
<path d="M1188.14 87.4192C1195.68 85.1468 1194.6 96.8308 1188.78 97.4582C1183.69 98.0008 1184.41 88.5554 1188.14 87.4192Z" fill="#F7F7F4"/>
<path d="M351.186 34.9518L339.332 48.4502C341.554 43.1932 344.08 33.1712 351.186 34.9518Z" fill="#F7F7F4"/>
</svg>
