<svg width="1875" height="160" viewBox="0 0 1875 160" fill="none" xmlns="http://www.w3.org/2000/svg">
<g clip-path="url(#clip0_72_48)">
<path d="M1674.25 70.9442C1674.2 71.7456 1673.93 72.5291 1673.38 73.1345C1667.34 79.6342 1650.96 100.166 1647.43 107.538C1646.35 109.817 1643.91 114.928 1648.04 115.267C1653.51 115.712 1671.4 96.925 1675.59 92.2061C1677.92 89.5706 1688.84 73.8824 1689.98 73.5797C1690.79 73.366 1696.37 72.8496 1695.55 74.9152L1679.56 95.7319C1681.23 96.1237 1681.68 94.806 1682.67 93.969C1689.05 88.6268 1694.73 82.145 1701.85 77.6576C1705.36 75.4495 1709.97 72.0127 1714.25 73.0989C1719.36 76.696 1700.75 88.3241 1709.3 94.8594C1717.11 100.843 1725.39 86.0626 1730.61 81.5396C1734.6 78.1028 1743.01 72.5291 1748.35 72.7606C1754.44 73.0277 1758.59 78.5835 1758.41 84.4243C1758.2 90.8706 1751.98 96.6045 1756.45 101.947C1761.92 101.947 1775.7 83.4984 1780.94 79.4027C1786.17 75.307 1793.63 70.0361 1798.58 76.785C1796.25 83.4449 1793.04 75.0577 1787.97 77.5507C1783.27 79.8479 1780.26 109.568 1772.87 114.305C1775.9 116.816 1798.15 93.4882 1800.38 89.9268L1803.07 89.072C1791.92 101.591 1772.74 127.838 1753.26 117.475C1748.65 115.017 1749.06 112.702 1748.49 108.161C1748.4 107.485 1749.38 106.292 1747.55 107.253C1745.46 108.322 1741.9 112.952 1738.46 115.035C1732.77 118.49 1726.64 121.463 1720.46 117.386C1710.51 110.815 1719.84 97.3346 1718.63 95.7319C1713.89 99.0797 1703.74 100.415 1704.81 92.1527C1705.38 87.7543 1713.93 77.1768 1705.82 78.0137C1699.68 78.6548 1677.9 99.9879 1672.86 105.455C1670.98 107.503 1663.6 117.724 1662.64 118.294C1661.18 119.166 1657.21 119.024 1655.54 118.294C1657.69 115.445 1660.15 112.809 1662.2 109.871C1662.7 109.159 1664.58 108.144 1663.09 107.218C1650.12 122.888 1629.64 125.915 1645.76 100.13C1645.33 99.7386 1637.55 104.404 1636.02 105.01C1627.54 108.411 1630.8 107.129 1623.98 112.489C1608.85 124.366 1593.32 120.448 1599.55 99.2222C1588.65 108.856 1577.7 123.814 1560.94 118.65C1555.12 116.851 1552.47 112.328 1553.34 106.292C1547.25 113.219 1530.32 126.004 1522.73 115.106C1518.65 109.248 1521.71 105.294 1521.8 99.2044C1515.75 104.368 1503.07 121.143 1494.47 119.416C1484.85 117.475 1493.9 104.849 1496.64 100.7C1498.9 97.2634 1513.59 80.8629 1510.69 77.9603C1504.07 77.5507 1497.69 83.1422 1492.9 87.2379C1486.99 92.2951 1480.15 99.6495 1474.69 105.401C1469.22 111.153 1465.09 120.805 1456.49 118.686L1490.45 73.7222C1491.62 73.5441 1497.35 72.5647 1496.46 74.844L1481.36 94.7704C1483.04 95.1621 1483.48 93.8444 1484.48 93.0074C1493.7 85.2791 1502.47 73.9715 1515.39 72.7606C1520.4 75.7522 1517.99 79.5808 1515.86 83.534C1512.79 89.2145 1495.04 109.07 1496.55 113.682C1498.07 118.294 1505.31 112.595 1507.15 111.153C1519.33 101.555 1536.9 73.5263 1552.15 72.6715C1560.71 72.1907 1563.97 79.3849 1562.9 87.0064C1562.4 90.5856 1558.93 95.6073 1558.84 97.1209C1558.77 98.4387 1561.28 100.148 1560.04 102.73C1572.41 97.7976 1578.31 84.6736 1588.62 77.1946C1593.62 73.5619 1599.23 71.0689 1604 76.6069L1600.78 79.652C1587.44 69.5375 1588.65 91.9034 1585.38 99.6674L1578.25 114.252C1593.26 108.429 1600.89 92.0815 1612 81.9135C1635.63 60.3133 1650.28 80.9697 1632.46 103.175C1639.55 104.137 1648.29 95.8744 1652.87 90.7459C1654.9 88.4666 1666.42 73.9002 1667.09 72.1551C1668.41 68.7717 1656.37 73.2058 1657.34 69.0745L1669.76 68.6293C1675.69 63.3227 1679.75 48.8276 1689.32 51.8014L1676.89 69.0745C1677.3 69.4306 1685.29 68.843 1687.13 69.0745C1688.75 69.2882 1688.57 68.7717 1688.44 70.8552H1674.23L1674.25 70.9442ZM1557.85 76.2686C1545.31 75.1111 1529.43 93.506 1526.11 104.404C1522.82 115.249 1526.4 120.555 1537.42 115.676C1540.18 114.447 1549.55 107.146 1548.85 104.368C1548.3 102.16 1544.51 99.6317 1546.7 95.6963L1557.86 76.2686H1557.85ZM1635.15 76.2686C1622.61 75.1111 1606.73 93.506 1603.41 104.404C1600.1 115.302 1603.7 120.555 1614.72 115.676C1617.48 114.447 1626.85 107.146 1626.15 104.368C1625.82 103.015 1623.93 101.964 1623.63 99.6495C1623.22 96.5689 1624.84 93.328 1625.94 90.5322L1635.16 76.2686H1635.15ZM1753.35 76.2686C1743.06 75.5741 1733.78 84.4778 1728.1 92.2773C1723.4 98.7414 1717.72 108.339 1721.73 116.175C1727.69 121.054 1740.14 110.993 1744.07 106.345C1744.91 104.671 1742.24 103.051 1741.83 100.558C1741.03 95.6785 1743.88 89.8199 1746.41 85.7243C1748.62 82.145 1751.8 79.9369 1753.33 76.2508L1753.35 76.2686ZM1560.5 78.9219C1558.26 77.2302 1549.92 90.9596 1549.39 93.0609C1548.6 96.0703 1548.11 100.095 1551.29 101.893C1553.45 102.249 1558.63 91.939 1559.43 89.7843C1560.73 86.2941 1562.03 82.5011 1560.52 78.9219H1560.5ZM1637.82 78.9219C1635.57 77.2302 1627.24 90.9596 1626.71 93.0609C1625.92 96.0703 1625.42 100.095 1628.61 101.893C1630.77 102.249 1635.95 91.939 1636.75 89.7843C1638.05 86.2941 1639.35 82.5011 1637.84 78.9219H1637.82ZM1756.01 78.9219C1755.17 77.9425 1751.77 81.7354 1751.11 82.4477C1747.03 86.9173 1740.74 96.4442 1745.82 101.911C1747.78 102.784 1749.59 99.2044 1750.52 97.7976C1754.06 92.3842 1756.84 85.4572 1756.01 78.9219ZM1556.3 105.704C1551.19 121.784 1571.58 117.653 1575.19 106.381L1585.39 83.3381C1578.91 87.2913 1574.66 94.9484 1568.44 99.6495C1564.92 102.321 1560.53 104.404 1556.3 105.704ZM1751.78 105.686C1749.35 107.805 1749.92 113.343 1753 115.124C1767.58 123.547 1776.55 92.3486 1779.99 83.3381C1772.69 90.6213 1767.33 97.4058 1758.37 102.962C1756.66 104.03 1752.34 105.205 1751.78 105.686Z" fill="#F7F7F4"/>
<path d="M1815.55 98.3852C1821.84 75.7522 1863.19 58.8531 1866.87 37.52C1870.33 17.5402 1848.73 14.0856 1838.79 29.0259C1836.23 32.8901 1835.41 37.5912 1833.66 41.7759L1827.02 40.2801C1828.28 19.7483 1863.92 7.9777 1872.57 27.8328C1881.78 48.9344 1849.23 63.9103 1836.85 74.9152C1828.75 82.1272 1825.22 88.8405 1818.95 96.9428C1817.81 98.4208 1817.58 98.6879 1815.53 98.403L1815.55 98.3852Z" fill="#F7F7F4"/>
<path d="M1811.78 109.248C1814.36 111.83 1812.12 118.472 1807.93 118.739C1798.99 119.309 1806.2 103.638 1811.78 109.248Z" fill="#F7F7F4"/>
<path d="M519.682 67.3827C511.829 78.441 501.448 89.1788 494.307 100.611C492.437 103.585 488.324 108.624 491.369 111.758C495.375 112.773 500.272 108.428 503.246 105.953C516.014 95.3045 529.743 72.3509 547.355 70.1072C567.548 67.543 556.882 88.3419 543.312 90.9061C537.044 92.0814 530.758 90.4965 524.989 91.2266C514.928 101.466 511.242 120.609 532.308 110.975C548.637 103.496 563.31 85.6352 573.496 71.3359C574.244 69.8401 580.476 68.8785 579.746 71.3359L550.4 110.797C552.038 112.239 566.943 103.46 569.382 101.786C583.539 92.0458 590.715 75.2179 608.932 71.1578C618.798 68.9675 623.125 72.155 632.26 74.47L610.749 103.994C609.716 106.487 606.332 111.153 610.499 111.741C616.251 112.56 630.443 97.5304 634.504 93.0786C637.46 89.8555 651.759 70.6948 653.361 70.1962C654.697 69.7689 656.228 70.036 657.617 70.0004L657.938 72.0838L643.835 91.28C650.388 86.2584 656.567 79.4382 663.476 74.9508C665.47 73.6687 677.615 66.5101 678.523 71.3359C679.164 74.7549 665.061 84.353 671.365 90.8705C677.312 97.0496 683.135 89.0898 687.409 85.4927C688.121 84.905 689.19 83.1777 690.08 84.6023C685.664 89.0363 681.319 94.4854 674.534 94.8593C661.446 95.5716 670.741 82.5011 672.237 75.8233C670.902 73.5262 669.156 74.4522 667.18 75.0932C658.989 77.7643 636.783 100.326 630.461 107.663C626.401 112.382 626.116 118.596 617.996 115.623L625.101 105.419C623.926 104.19 610.214 121.303 604.16 115.213C599.744 110.779 606.083 101.662 605.531 100.985C599.815 105.526 583.557 122.372 576.559 113.468C573.336 109.372 576.274 102.926 576.63 98.3317C571.662 101.929 566.836 106.007 561.333 108.802C557.273 110.868 549.349 112.791 546.34 115.142C541.71 118.774 532.877 133.038 528.105 138.647C522.531 145.183 510.155 160.159 501.002 159.553C492.704 159.001 496.301 150.667 498.937 145.931C504.226 136.475 516.37 126.574 525.737 121.214C529.672 118.97 537.222 116.602 540.143 114.305C540.944 113.682 550.97 101.555 550.346 100.985L531.364 113.539C517.1 120.11 506.79 116.139 512.951 99.2043C508.072 102.997 503.745 108.464 498.652 111.99C484.994 121.446 481.219 114.732 487.148 100.985C476.963 112.221 457.553 125.132 445.8 108.998C439.46 113.646 423.808 121.837 418.857 111.865C416.4 106.933 419.516 104.083 419.089 99.2221C414.477 103.62 401.923 117.902 395.245 115.925C391.862 114.928 392.129 109.889 391.505 107.2L365.685 141.764L359.025 142.209C359.061 141.158 362.213 136.884 363.121 135.638C384.151 106.701 410.417 70.4277 434.653 44.6606C437.502 41.6156 450.964 26.5506 454.703 32.7119C456.11 37.4487 452.549 43.521 450.18 47.7235C438.944 67.6854 417.468 84.8872 398.682 97.477C394.533 101.43 394.782 112.969 401.762 111.26C409.669 109.337 424.93 89.4637 431.554 83.2312C438.178 76.9986 452.335 67.1156 462.325 70.3387C468.664 72.3865 464.996 80.2395 462.254 83.6585C454.882 92.8649 443.574 91.6006 432.961 90.7458C426.532 95.7853 417.077 115.017 432.391 113.325C434.51 113.094 444.482 108.607 445.693 107.271C447.029 105.793 447.046 96.4976 452.05 94.7703C455.986 99.2221 447.296 100.771 448.489 105.401C460.811 98.0112 468.878 83.6942 479.651 75.2891C485.154 70.9976 492.259 66.7594 496.978 74.3631C492.241 78.6191 488.092 69.573 483.747 75.8233C480.951 79.83 479.028 94.8237 476.304 101.217C475.538 103.051 474.701 104.885 473.704 106.594C473.383 107.146 469.003 111.794 472.493 110.726C473.686 110.369 479.188 106.452 480.506 105.401C492.758 95.4826 501.643 80.3108 512.114 68.6114C512.488 66.5992 511.242 67.3827 509.906 67.2937C507.769 67.1334 501.572 68.5936 502.338 65.5129H514.803C516.477 62.9487 526.093 48.7563 527.446 47.9728C528.8 47.1893 531.791 48.044 533.483 47.7769L521.036 65.0678C524.276 66.1896 527.98 65.0678 531.275 65.5129C532.895 65.7266 532.717 65.2102 532.592 67.2937H519.682V67.3827ZM403.561 91.3157C404.665 92.3129 418.786 80.8628 420.478 79.367C428.545 72.2797 451.409 48.507 452.442 38.4815C453.617 27.0136 442.844 39.0335 440.066 42.1498C426.924 56.8586 415.777 75.6987 403.561 91.3157ZM434.706 89.5527C438.303 89.3747 442.043 89.9445 445.622 89.3569C451.017 88.4487 467.649 79.5451 462.788 72.6715C459.369 67.8457 442.114 81.0231 439.14 83.801C438.392 84.4955 433.673 88.7158 434.706 89.5706V89.5527ZM527.25 89.5527C535.958 90.2828 543.918 88.8939 550.809 83.338C553.552 81.1121 560.443 73.7755 554.193 71.977C548.263 70.2675 534.338 81.4861 529.904 85.5639C528.746 86.6324 527.037 87.7898 527.25 89.5527ZM623.053 74.7371C617.872 68.7895 605.674 74.9864 600.67 78.9218C595.185 83.249 575.811 103.336 581.438 110.458C587.065 117.581 606.582 98.2783 610.446 93.9868C613.455 90.6568 616.126 86.4721 618.904 82.9106C620.899 80.3642 625.974 78.0849 623.036 74.7193L623.053 74.7371ZM478.298 79.7944C472.048 85.5283 466.812 92.2595 460.526 97.9756C458.461 99.8632 449.148 106.203 448.471 107.271C448.026 107.965 447.848 108.535 448.168 109.337C456.609 120.288 466.795 107.307 470.178 98.7413L478.298 79.8122V79.7944ZM536.136 118.81C526.431 121.695 499.738 140.553 498.776 150.365C498.403 154.211 500.575 155.725 504.119 154.763C511.313 152.822 528.924 129.993 533.821 123.137C534.391 122.336 536.813 119.469 536.136 118.792V118.81Z" fill="#F7F7F4"/>
<path d="M912.956 67.3827C910.854 67.9703 888.524 97.9221 886.156 101.84C883.787 105.757 879.834 113.931 888.542 111.313C892.353 110.156 909.359 92.7224 912.991 88.6802C915.591 85.7776 926.311 70.8195 928.288 70.2318C929.196 69.9647 933.826 69.199 932.989 71.3715C932.081 73.7042 916.891 91.1554 917.888 92.2238C928.323 84.1749 938.384 70.2852 952.577 70.0537C953.236 77.141 941.251 82.7147 945.418 90.0513C951.686 101.056 963.849 81.5751 968.586 77.5862C992.536 57.4106 1004.08 79.6341 988.174 100.201C998.181 99.7029 1005.04 90.5499 1011.75 84.264C1012.41 84.1215 1012.36 85.1899 1012.18 85.5817C1010.5 89.3212 997.238 99.1864 993.071 101.127C990.756 102.214 987.55 102.321 985.556 103.389C982.653 104.92 978.682 110.441 974.533 112.809C956.922 122.87 948.73 109.176 956.121 93.132C955.604 92.6156 948.054 96.9249 944.047 94.0758C937.743 89.5883 948.837 78.1561 946.825 75.3603C946.344 74.7371 945.757 74.5234 944.991 74.4699C938.758 73.9357 917.746 94.236 912.956 99.3289C910.676 101.751 899.921 115.605 898.55 115.997C897.784 116.21 892.014 117.083 892.958 114.857L901.844 103.763L887.545 114.786C883.574 117.67 877.662 118.044 876.949 112.097C876.433 107.894 879.211 105.668 879.157 101.982C869.274 110.975 860.602 119.38 845.947 115.569C842.296 114.625 840.676 112.186 839.091 109.052C826.501 118.436 804.919 122.728 812.861 99.3111C807.109 103.745 794.27 119.629 786.168 115.712C780.238 112.845 786.862 103.407 787.949 99.3111C781.93 103.941 770.355 118.632 761.879 115.997C756.216 114.234 760.81 104.511 762.146 101.092C756.305 105.544 745.603 119.789 737.234 115.729C736.147 115.195 735.702 114.162 735.488 113.04C733.227 101.306 757.498 81.4682 755.896 75.9301C754.275 70.3387 740.332 81.9134 738.124 83.801C731.945 89.1075 724.697 96.8537 718.999 102.873C714.048 108.09 709.721 117.937 701.672 116.175C700.853 115.48 708.386 105.971 709.329 104.742C712.713 100.255 734.171 71.5318 736.397 70.5345C737.394 70.0894 742.683 69.0922 741.703 71.3893L726.585 92.2416C733.761 86.2762 748.63 69.9825 758.175 69.9825C767.061 69.9825 761.523 79.0108 758.994 83.3024C755.931 88.4665 740.243 105.419 741.258 110.067C741.525 111.278 742.487 112.631 743.893 112.631C748.416 112.738 765.173 95.4647 768.859 91.3691C772.065 87.8254 783.96 71.1756 786.827 70.2674C787.717 69.9825 792.365 69.2524 791.528 71.4071C784.316 81.2545 774.469 91.1019 768.574 101.751C767.292 104.066 762.591 111.634 767.185 112.524C771.78 113.414 789.996 94.5209 793.772 90.5143C797.226 86.8104 807.822 72.529 810.617 70.9441C812.647 69.7866 814.25 70.0003 816.44 70.1072C817.153 70.7304 814.695 73.6686 814.125 74.4521C809.032 81.6107 791.688 100.415 790.673 107.859C789.391 117.279 799.541 108.963 803.103 106.024C815.888 95.4647 829.101 73.081 846.463 70.3209C862.543 67.7744 861.208 80.0614 851.075 87.3268C843.596 92.669 834.675 91.9389 825.949 90.6211C819.948 95.1798 809.887 114.091 824.026 113.628C826.697 113.539 836.242 109.568 837.827 107.805C838.824 106.701 839.483 101.466 841.21 98.7591C843.205 95.625 844.985 93.2032 846.659 97.9221L841.388 103.371C841.032 104.44 841.602 105.17 842.706 104.689C843.614 104.297 853.729 95.5003 855.207 94.0758C860.887 88.6089 864.68 81.7353 870.735 76.7493C875.347 72.9563 881.544 67.9347 887.384 71.692C890.732 73.8467 888.702 76.3397 886.298 76.3397C884.464 76.3397 882.879 72.5468 880.137 73.6152C874.065 74.4878 871.856 94.8415 869.648 100.486C868.242 104.066 866.176 107.556 863.63 110.441C865.784 111.117 869.328 108.446 871.037 107.182C883.894 97.6016 894.579 81.2011 904.551 68.7538C905.583 65.2992 893.92 69.8757 894.774 65.6732L907.24 65.228C913.454 60.1707 917.283 45.3373 926.792 48.3645L914.345 65.6553C914.772 66.0293 922.732 65.4239 924.584 65.6553C926.204 65.869 926.026 65.3526 925.902 67.4361H912.991L912.956 67.3827ZM827.107 89.5527C835.815 90.2828 843.774 88.8938 850.666 83.338C853.408 81.1121 860.3 73.7755 854.049 71.9769C848.226 70.303 834.141 81.5216 829.76 85.5639C828.603 86.6323 826.893 87.7898 827.107 89.5527ZM990.809 72.707C976.634 71.4961 956.655 95.6606 957.296 108.5C957.99 122.407 977.81 108.589 981.531 102.837C982.386 100.985 979.929 99.8631 979.43 97.7975C978.255 92.9361 980.748 88.787 982.636 84.5133L990.809 72.707ZM992.145 75.3781C986.607 80.7381 976.35 92.3663 984.131 99.2755C985.912 99.2043 998.021 78.7259 992.145 75.3781ZM840.498 107.36C840.302 110.565 844.415 113.201 847.193 113.468C859.801 114.714 866.586 88.6089 870.681 79.7943C860.798 89.0719 852.536 100.753 840.498 107.36Z" fill="#F7F7F4"/>
<path d="M1082.46 74.4878C1078.44 82.2874 1058.28 101.573 1058.46 109.568C1058.58 114.964 1066.88 109.497 1068.65 108.161C1081.02 98.7235 1091.1 83.0531 1100.72 70.962C1101.37 69.7867 1108.36 69.0744 1107.38 71.3715L1093.15 90.4431C1100.43 85.4393 1105.88 78.6013 1113.68 74.1138C1121.48 69.6264 1132.84 65.8335 1126.41 79.7053L1118.95 91.3335C1126.5 85.5461 1142.15 68.184 1152.27 70.0538C1158.07 71.1222 1153.78 78.0314 1152.02 81.2724C1148.67 87.4515 1143.47 92.4197 1139.55 98.118C1137.77 100.7 1129.71 111.278 1135.51 112.417C1143.38 113.949 1167.32 81.8956 1174.56 76.2685C1180.67 71.514 1192.37 65.8513 1198.12 74.0248C1204.69 83.3736 1191.64 99.1331 1192.78 100.184C1205.74 102.356 1220.92 71.514 1227.06 70.0716C1228.14 69.8223 1231.8 69.3949 1231.03 71.3715C1229.75 74.6837 1220.95 84.1215 1218.23 87.8789C1217.28 89.1788 1215.8 90.55 1215.93 92.2238C1221.98 87.2912 1227.43 81.3436 1233.79 76.7849C1237.33 74.2385 1244.81 68.8073 1249.14 70.1962L1250.65 72.2619C1248.61 77.5507 1239.04 85.2612 1243.78 91.0842C1248.98 97.4948 1256.35 88.698 1260.43 85.5817C1261.12 85.0475 1262.14 83.1956 1263.08 84.6736C1258.44 89.8199 1250.9 96.925 1243.25 94.6812C1234.43 92.0992 1246.01 79.0821 1245.24 75.8768C1244.17 71.425 1234.73 78.1561 1232.92 79.4382C1225.03 84.9941 1215 94.8059 1208.36 101.964C1206.38 104.083 1197.85 115.623 1196.64 115.997C1195.9 116.228 1190.09 117.047 1191.03 114.839L1204.37 96.6579C1201.88 98.118 1199.71 100.13 1196.98 101.252C1190.96 103.745 1192.23 102.232 1187.03 106.398C1181.83 110.565 1174.72 116.46 1167.44 116.228C1157.27 115.908 1155.67 104.386 1158.98 96.64C1152.34 101.644 1138.93 119.611 1129.65 115.676C1123.37 113.023 1129.55 103.71 1131.75 100.077C1134.87 94.9127 1147.23 81.4504 1147.89 77.2479C1148.03 76.3041 1147.62 75.4138 1147.37 74.5412C1146.41 74.2919 1145.39 74.381 1144.42 74.5412C1135.42 75.948 1113.8 99.8988 1106.93 107.289C1102.5 112.043 1101.23 118.062 1093.15 116.157C1096 110.12 1122.37 79.7053 1121.62 75.8412C1121.41 74.7549 1119.7 74.4522 1118.61 74.5056C1111.1 74.8261 1089.75 97.4948 1083.8 103.727C1082.09 105.526 1074.63 115.213 1073.6 115.712C1071.76 116.602 1069.34 116.032 1067.36 116.139L1070.48 109.052C1059.81 119.451 1046.88 120.733 1054.9 101.947C1053.72 100.54 1029.59 127.945 1025.07 110.832C1020.55 93.7197 1049.11 70.2319 1065.24 70.125C1071.65 70.0894 1076.44 74.5234 1082.5 74.47L1082.46 74.4878ZM1061.77 72.9208C1053.65 74.3097 1042.4 85.742 1037.61 92.2951C1035.19 95.6072 1026.44 108.144 1031.73 111.295C1038.19 115.142 1053.58 101.021 1057.89 96.5688C1059.88 94.521 1073.17 78.6191 1073.42 77.3726C1074.49 72.2619 1064.92 72.3865 1061.75 72.9208H1061.77ZM1194.58 72.7071C1180.26 71.2469 1159.16 97.6194 1161.69 110.369C1163.79 120.983 1182.68 108.09 1185.32 102.837C1186.03 101.43 1183.32 98.6345 1183.07 96.1058C1182.67 92.0814 1185.35 87.131 1187.33 83.6585C1188.15 82.234 1195.22 73.2591 1194.6 72.7249L1194.58 72.7071ZM1197.23 75.3604C1195.75 75.022 1195.43 75.8412 1194.58 76.7137C1189.43 81.9669 1183.31 90.9239 1186.56 98.4208C1189.61 100.486 1194.81 89.5349 1195.61 87.5049C1197.23 83.4271 1198.6 79.7053 1197.23 75.3782V75.3604Z" fill="#F7F7F4"/>
<path d="M210.477 70.0538L195.358 92.206C202.072 86.4365 220.003 67.3827 229.424 70.2141C234.89 71.8523 229.53 80.2573 227.75 83.2668C224.384 88.9651 209.586 104.831 210.423 110.352C210.566 111.295 210.922 112.275 211.901 112.56C216.478 113.895 236.422 92.8293 240.286 88.6802C243.189 85.5639 254.087 70.9976 256.473 70.2319C257.363 69.9469 262.011 69.2168 261.174 71.3715C254.265 81.2011 243.936 91.2266 238.22 101.697C236.44 104.956 233.412 109.443 236.742 112.613L243.491 109.337C243.883 107.129 243.491 105.597 244.221 103.282C245.236 99.9522 249.564 91.2266 251.344 97.8687C249.207 100.611 244.773 103.068 246.518 107.289C252.395 101.323 258.467 95.5538 264.326 89.5706C270.184 83.5873 280.334 68.4511 289.701 70.3921C291.108 70.677 294.367 72.155 294.064 73.9358L291.001 76.2863C285.071 71.6742 282.56 72.8495 280.139 79.5985C277.485 86.9707 276.755 95.5894 273.461 103.104C272.214 105.971 269.899 107.912 269.223 110.832C280.726 106.185 287.653 95.1264 295.916 86.4721C296.575 85.7776 297.697 84.1571 298.569 85.5639C287.368 98.6345 269.062 123.743 249.012 114.572C247.48 113.86 246.358 111.776 244.773 111.741C242.494 111.669 228.622 123.013 228.782 110.743C228.836 106.114 232.166 103.514 232.308 99.3289C228.391 103.977 211.937 121.535 205.58 115.302C201.324 111.117 207.2 102.036 209.764 98.1359C213.112 93.043 222.425 83.8544 224.277 78.8862C224.722 77.6753 225.203 76.5178 224.348 75.3247C223.636 74.4344 222.746 74.4166 221.695 74.4878C214.483 74.9864 194.343 96.0346 188.68 101.964C186.455 104.297 178.406 114.928 176.661 115.694C175.432 116.246 169.573 117.136 170.464 114.839L181.13 101.519C178.441 101.056 175.129 105.383 172.529 107.129C165.638 111.758 152.55 120.377 144.696 114.786C133.175 106.576 153.244 84.1393 160.759 78.5657C166.528 74.2919 190.283 62.0761 189.108 76.5891C188.057 89.7486 167.33 93.9333 156.841 90.5856C149.914 95.1798 140.245 115.142 155.684 113.432C165.923 112.31 184.531 95.5538 191.387 87.7898C194.397 84.3886 201.804 72.5112 204.671 70.8907C206.701 69.7333 208.304 69.9469 210.494 70.0538H210.477ZM157.999 89.5528C164.16 89.8555 169.181 89.7842 174.898 87.3446C179.154 85.5283 189.945 78.1383 186.081 72.6536C182.501 67.5964 164.587 81.7532 161.542 84.6736C160.83 85.3502 157.001 88.7158 157.999 89.5528ZM275.437 80.6847L247.373 109.052C245.806 112.079 251.968 113.753 254.461 113.45C265.376 112.15 271.413 89.1254 275.455 80.6669L275.437 80.6847Z" fill="#F7F7F4"/>
<path d="M77.0291 116.139C74.9457 114.056 84.8999 107.841 86.3957 106.416C101.425 91.9211 109.527 71.8523 120.604 54.5081C126.8 44.8031 133.514 35.7036 141.1 27.0492L122.972 31.8572C108.281 31.234 91.364 4.6655 77.5633 19.588C67.3776 30.5929 74.8744 43.5566 84.0452 52.0328L83.7246 54.0629L81.1426 55.7724C69.0693 44.2867 65.6325 26.2123 80.1454 15.0828C99.6443 0.142458 113.748 29.008 131.733 27.4766C141.313 26.6575 150.092 16.0444 159.762 15.065L159.673 18.5018C140.352 22.6152 133.354 45.462 124.005 60.5447C113.659 77.2301 102.137 93.4526 88.586 107.716C88.4436 108.393 89.4408 108.286 89.9038 108.144C99.0567 105.277 118.823 91.8677 127.121 85.831C153.778 66.4567 184.514 39.9595 171.283 3.09847L172.209 1.31774L176.661 0C182.697 42.0074 161.97 70.1963 127.655 90.7993C113.605 99.2399 95.798 108.179 80.8577 115.106C79.5755 115.712 78.5961 116.477 77.0113 116.139H77.0291Z" fill="#F7F7F4"/>
<path d="M368.872 74.488C369.104 75.9304 368.178 76.8741 367.466 77.9604C364.563 82.3054 341.325 107.325 345.741 111.723C349.925 112.524 353.202 110.067 356.354 107.663C364.599 101.324 371.917 91.0665 380.02 84.2464L380.447 85.5641C373.449 92.1706 367.697 100.077 360.45 106.434C355.677 110.637 338.315 125.292 339.508 109.533C339.758 106.238 342.001 104.084 341.752 101.11C337.727 106.79 314.275 125.613 311.978 110.352C309.681 95.091 330.8 75.2893 344.12 71.5676C354.431 68.6828 359.256 71.9771 368.872 74.5058V74.488ZM349.053 72.9209C338.974 74.6482 321.398 93.239 318.353 102.606C317.107 106.434 315.664 111.313 321.256 111.794C333.561 112.827 352.792 86.5613 360.45 78.0138C361.767 72.1374 353.22 72.2086 349.071 72.9209H349.053Z" fill="#F7F7F4"/>
<path d="M40.5419 91.3157L47.5936 93.6306C44.78 111.545 20.8649 123.618 6.2629 110.832C1.24125 106.452 -0.325794 102.41 0.902908 95.7141C4.35752 76.8562 32.3862 65.9225 44.9581 51.8548C47.1484 49.3974 56.7999 34.6351 57.8862 34.5995C58.83 34.5817 59.1861 36.1487 58.8478 37.3062C58.2779 39.3184 50.3893 49.6467 48.5195 51.8548C37.4612 64.7828 18.0691 74.5056 10.4476 89.2856C-2.65855 114.697 28.5754 123.725 38.2982 100.202C39.4378 97.4414 40.1501 94.2895 40.5419 91.3335V91.3157Z" fill="#F7F7F4"/>
<path d="M580.868 61.8269C577.609 57.8381 582.382 50.822 587.35 54.0273C594.241 58.4792 585.32 67.2759 580.868 61.8269Z" fill="#F7F7F4"/>
<path d="M66.9324 14.3882C68.1789 14.2813 69.5145 15.0827 70.3692 15.9552C73.4321 20.9947 65.401 29.649 62.3559 23.0247C60.8601 19.7838 63.4778 14.6909 66.9324 14.3704V14.3882Z" fill="#F7F7F4"/>
<path d="M272.766 52.3177L266.106 60.2954L259.429 66.4745C262.972 61.2214 264.593 50.5014 272.766 52.2999V52.3177Z" fill="#F7F7F4"/>
<path d="M1330.27 76.6248C1330.82 77.2302 1331.8 79.3849 1331.44 79.8835C1326.39 82.608 1327.12 76.1262 1322.97 75.4673C1311.2 73.5797 1282.96 101.466 1285.72 112.578C1288.14 122.3 1302.9 113.789 1307.78 110.601C1321.22 101.858 1328.03 89.7487 1338.99 80.7917C1362.7 61.453 1373.81 83.5874 1358.05 103.282C1357.83 103.923 1358.73 103.781 1359.38 103.745C1371.39 102.926 1383.73 82.6792 1390.85 74.1674H1397.06L1382.89 94.0225C1388.84 89.535 1409.44 68.6649 1417.1 74.5413C1418.11 75.3783 1418.4 76.3221 1418.33 77.6042C1418.04 84.2107 1404.83 98.2606 1400.75 104.315C1399.22 106.594 1393.25 114.875 1398.51 115.89C1404.22 117.012 1425.54 93.3458 1429.85 88.2529L1431.63 89.1433C1424.13 96.5867 1417.52 105.223 1409.48 112.097C1405.54 115.462 1393.09 125.47 1390.32 116.068C1387.54 106.666 1411.58 86.6859 1410.76 79.7945C1410.19 75.0934 1402.05 80.6314 1400.31 81.7889C1386.38 91.013 1374.57 107.592 1362.77 119.433C1361.47 119.433 1356.45 120.644 1357.16 118.276L1369.55 101.056C1365.74 104.173 1359.15 104.885 1355.43 106.844C1351.71 108.803 1347.72 114.75 1342.11 117.403C1332.01 122.158 1322.68 118.97 1323.41 106.755C1323.57 103.995 1325.07 101.911 1324.77 99.2756C1316.88 104.992 1309.63 112.595 1300.67 116.762C1284.09 124.491 1274.32 117.849 1283.08 100.148C1288.6 88.983 1299.96 78.6014 1312.12 75.2358C1317.15 73.8468 1326.33 72.262 1330.25 76.607L1330.27 76.6248ZM1360.68 76.3577C1347.01 74.5413 1325.46 100.593 1327.37 112.578C1329.4 125.274 1347.72 111.545 1351.42 106.327C1352.28 104.493 1349.84 103.371 1349.34 101.306C1348.17 96.4621 1350.66 92.3308 1352.55 88.0927L1360.68 76.3577ZM1362.02 79.0109C1356.5 84.3353 1346.28 95.91 1354.04 102.801C1355.73 102.73 1367.81 82.3587 1362.02 79.0109Z" fill="#F7F7F4"/>
</g>
<defs>
<clipPath id="clip0_72_48">
<rect width="1873.7" height="159.66" fill="white" transform="translate(0.511108)"/>
</clipPath>
</defs>
</svg>
